<?xml version="1.0" encoding="UTF-8"?>
<svg version="1.1" xmlns="http://www.w3.org/2000/svg" width="420" height="400">
<path d="M0 0 C1.98 0 3.96 0 6 0 C6 0.66 6 1.32 6 2 C8.64 2 11.28 2 14 2 C14 2.66 14 3.32 14 4 C15.41539062 4.51046875 15.41539062 4.51046875 16.859375 5.03125 C24.7913015 7.99145078 31.52223364 11.28497557 38.4140625 16.265625 C40.92616105 18.08330706 40.92616105 18.08330706 43.74609375 19.0859375 C46.81445734 20.33029986 47.32979105 22.19404896 49 25 C50.98768394 26.35162508 52.9866347 27.68693567 55 29 C55.33 29.99 55.66 30.98 56 32 C56.639375 32.61875 57.27875 33.2375 57.9375 33.875 C60.17340743 36.1786622 60.86177054 38.0406034 62 41 C62.44859375 41.40863281 62.8971875 41.81726562 63.359375 42.23828125 C67.94954 47.16724414 71.42893376 56.19598508 71.3125 62.9375 C71.22935547 63.97003906 71.22935547 63.97003906 71.14453125 65.0234375 C70.91905373 68.10699497 71.4829493 70.96232715 72 74 C72.66 74 73.32 74 74 74 C74.15407397 101.71212489 74.30210206 129.4242764 74.4429636 157.13647175 C74.50851074 170.00416557 74.57602457 182.87184342 74.64819336 195.73950195 C74.711102 206.95697425 74.77029502 218.17445901 74.82505554 229.39197415 C74.85417062 235.32968225 74.88512642 241.2673677 74.92053413 247.20504189 C74.95383132 252.7986473 74.98214415 258.39225622 75.00670624 263.9859066 C75.01656538 266.03408134 75.028214 268.0822484 75.04183006 270.13040161 C75.17205924 290.01156316 75.17205924 290.01156316 74 299 C73.34 299 72.68 299 72 299 C71.80372609 300.58226965 71.61834462 302.16589271 71.4375 303.75 C71.33308594 304.63171875 71.22867187 305.5134375 71.12109375 306.421875 C71.00543324 308.88432451 71.26361305 310.66538064 72 313 C71.01 313 70.02 313 69 313 C68.95875 313.9075 68.9175 314.815 68.875 315.75 C68.0671349 321.61003637 64.98904706 326.9733267 62 332 C61.34 332.33 60.68 332.66 60 333 C59.67 333.99 59.34 334.98 59 336 C58.34 336.33 57.68 336.66 57 337 C56.67 337.66 56.34 338.32 56 339 C55.195625 339.78375 54.39125 340.5675 53.5625 341.375 C50.97138099 343.74390001 50.97138099 343.74390001 49.9375 346.25 C49.628125 346.8275 49.31875 347.405 49 348 C48.09121094 348.21269531 48.09121094 348.21269531 47.1640625 348.4296875 C44.60865487 349.10313428 43.39139274 350.11780787 41.4375 351.875 C40.56931641 352.64457031 40.56931641 352.64457031 39.68359375 353.4296875 C38.58874236 354.45087139 37.51652939 355.49707209 36.47265625 356.5703125 C33.35143321 359.60046537 30.07125325 360.73338788 26 362 C26 362.66 26 363.32 26 364 C25.17242187 364.12246094 24.34484375 364.24492187 23.4921875 364.37109375 C19.6403979 365.06476056 15.89555126 366.02852131 12.125 367.0625 C11.09246094 367.3419043 11.09246094 367.3419043 10.0390625 367.62695312 C8.35867486 368.08205811 6.67923678 368.54066678 5 369 C5.33 369.66 5.66 370.32 6 371 C-68.58 371 -143.16 371 -220 371 C-220 370.34 -220 369.68 -220 369 C-221.15757812 368.66226562 -222.31515625 368.32453125 -223.5078125 367.9765625 C-225.04689212 367.52610017 -226.58595367 367.07557606 -228.125 366.625 C-228.88554687 366.40328125 -229.64609375 366.1815625 -230.4296875 365.953125 C-245.62584418 361.49907908 -245.62584418 361.49907908 -248.375 358.5 C-250.05078359 356.74141641 -250.05078359 356.74141641 -253.125 356 C-254.07375 355.67 -255.0225 355.34 -256 355 C-256.495 353.515 -256.495 353.515 -257 352 C-257.61875 351.855625 -258.2375 351.71125 -258.875 351.5625 C-261.75055688 350.80132318 -262.29219804 349.39092274 -264 347 C-264.86625 346.34 -265.7325 345.68 -266.625 345 C-269.19491792 342.8358586 -269.35446668 342.12007771 -270 339 C-270.99 338.67 -271.98 338.34 -273 338 C-273.495 336.515 -273.495 336.515 -274 335 C-274.515625 334.484375 -275.03125 333.96875 -275.5625 333.4375 C-276.2740625 332.7259375 -276.2740625 332.7259375 -277 332 C-277 331.34 -277 330.68 -277 330 C-277.66 330 -278.32 330 -279 330 C-282.42857143 322.71428571 -282.42857143 322.71428571 -282 318 C-282.66 318 -283.32 318 -284 318 C-284.103125 317.05125 -284.20625 316.1025 -284.3125 315.125 C-284.68539295 311.70892499 -284.68539295 311.70892499 -288 310 C-287.34 309.01 -286.68 308.02 -286 307 C-286.31730524 303.36060068 -286.31730524 303.36060068 -287 300 C-287.66 300 -288.32 300 -289 300 C-289.02281287 271.05628017 -289.04050983 242.1125614 -289.05106533 213.16883435 C-289.05231604 209.75171638 -289.05361036 206.33459842 -289.05493164 202.91748047 C-289.05519395 202.23719416 -289.05545626 201.55690786 -289.05572652 200.85600682 C-289.06007775 189.84109636 -289.06796231 178.82619112 -289.0771528 167.81128375 C-289.08650451 156.50887124 -289.09198398 145.20646133 -289.09408849 133.90404475 C-289.09539339 127.55570821 -289.09846533 121.2073835 -289.10573006 114.85905075 C-289.1125107 108.88542115 -289.11461277 102.91180828 -289.11310768 96.9381752 C-289.11338309 94.74439147 -289.11537609 92.55060719 -289.11920547 90.35682678 C-289.12417458 87.36362684 -289.12298634 84.37049021 -289.12025452 81.37728882 C-289.12316736 80.50762966 -289.1260802 79.63797049 -289.12908131 78.74195802 C-289.11830712 74.37956892 -288.87641177 70.29574774 -288 66 C-287.34 66 -286.68 66 -286 66 C-286.20625 65.113125 -286.4125 64.22625 -286.625 63.3125 C-287.02550239 59.7747289 -286.56683516 58.13367033 -285 55 C-284.34 55 -283.68 55 -283 55 C-283 53.35 -283 51.7 -283 50 C-282.34 50 -281.68 50 -281 50 C-280.690625 49.071875 -280.38125 48.14375 -280.0625 47.1875 C-279.375 45.125 -278.6875 43.0625 -278 41 C-277.34 41 -276.68 41 -276 41 C-275.87625 40.195625 -275.7525 39.39125 -275.625 38.5625 C-275.41875 37.716875 -275.2125 36.87125 -275 36 C-274.01 35.505 -274.01 35.505 -273 35 C-273.33 34.34 -273.66 33.68 -274 33 C-272.02 32.505 -272.02 32.505 -270 32 C-269.87625 31.071875 -269.87625 31.071875 -269.75 30.125 C-269 28 -269 28 -267.23046875 27.125 C-264.51263213 25.75418223 -262.74869985 23.99115297 -260.5625 21.875 C-252.45458582 14.44872462 -243.15118243 9.12929455 -233 5 C-233 4.34 -233 3.68 -233 3 C-219.99192797 0.97652213 -207.14950899 0.86191818 -194.01489258 0.88647461 C-191.89507041 0.88675702 -189.77524814 0.88659769 -187.65542603 0.8860321 C-181.92691262 0.88574624 -176.19842033 0.89160889 -170.46991181 0.89860606 C-164.47348784 0.9048747 -158.47706334 0.90544617 -152.4806366 0.90663147 C-141.13726396 0.90973445 -129.793901 0.91793389 -118.45053262 0.92798096 C-105.53154034 0.93917421 -92.61254758 0.94466063 -79.69355166 0.94967639 C-53.12902908 0.96011739 -26.56451508 0.97769678 0 1 C0 0.67 0 0.34 0 0 Z M64 46 C65 48 65 48 65 48 Z M66 51 C67 53 67 53 67 53 Z M67 53 C68 55 68 55 68 55 Z M68 56 C69 58 69 58 69 58 Z M69 58 C70 60 70 60 70 60 Z M-285 59 C-284 62 -284 62 -284 62 Z M-287 70 C-286 72 -286 72 -286 72 Z M-288 72 C-288 73.98 -288 75.96 -288 78 C-287.67 78 -287.34 78 -287 78 C-287 76.02 -287 74.04 -287 72 C-287.33 72 -287.66 72 -288 72 Z M-284 313 C-283 315 -283 315 -283 315 Z M-281 321 C-280 323 -280 323 -280 323 Z M-280 323 C-279 325 -279 325 -279 325 Z " fill="#742BF7" transform="translate(317,16)"/>
<path d="M0 0 C1.21691025 -0.00209976 1.21691025 -0.00209976 2.45840454 -0.00424194 C14.83869499 0.01330317 26.13001696 0.80736406 37.75 5.4375 C38.74902344 5.83324219 39.74804688 6.22898438 40.77734375 6.63671875 C55.70481955 13.39336569 65.0861909 25.1117188 70.7890625 40.18359375 C75.3989296 56.05963139 74.70499172 76.07677634 68.75 91.4375 C68.42257812 92.32824219 68.09515625 93.21898437 67.7578125 94.13671875 C61.65159724 108.33255495 49.42273366 116.99828077 35.61328125 122.7421875 C23.02254507 127.25181066 10.47860412 127.78587474 -2.75073242 127.75317383 C-5.44295032 127.74999356 -8.1340874 127.77362272 -10.82617188 127.79882812 C-12.5651028 127.80110001 -14.30403664 127.80180513 -16.04296875 127.80078125 C-16.8338237 127.809991 -17.62467865 127.81920074 -18.4394989 127.82868958 C-22.61010831 127.79457185 -26.08042837 127.29730957 -30.03144836 125.91423035 C-30.82612676 125.6391524 -31.62080515 125.36407446 -32.4395647 125.08066082 C-33.03700835 124.86841775 -33.634452 124.65617468 -34.25 124.4375 C-34.27332931 108.67833256 -34.29097933 92.91916976 -34.30181217 77.15998936 C-34.30697506 69.84322598 -34.31401762 62.5264733 -34.32543945 55.2097168 C-34.33538651 48.83466982 -34.34185348 42.45963059 -34.34408849 36.08457607 C-34.34539557 32.70701986 -34.34848119 29.32948584 -34.35573006 25.95193672 C-34.36293613 22.18742657 -34.36399113 18.42296315 -34.36352539 14.65844727 C-34.3689183 12.96668114 -34.3689183 12.96668114 -34.37442017 11.24073792 C-34.3730455 10.22125061 -34.37167084 9.20176331 -34.37025452 8.15138245 C-34.37117631 7.26000863 -34.3720981 6.36863482 -34.37304783 5.45024967 C-34.25 3.4375 -34.25 3.4375 -33.25 2.4375 C-22.23671415 0.346233 -11.17791691 -0.00185677 0 0 Z " fill="#FDFAFE" transform="translate(272.25,138.5625)"/>
<path d="M0 0 C7.92 0 15.84 0 24 0 C32.61614768 15.56953002 39.83842549 31.7147924 47.08563232 47.95196533 C47.97253689 49.93848711 48.86129193 51.92417115 49.75048828 53.90966797 C51.31966794 57.41591755 52.88011132 60.92599509 54.4375 64.4375 C54.90397949 65.48486328 55.37045898 66.53222656 55.85107422 67.61132812 C56.27018066 68.56330078 56.68928711 69.51527344 57.12109375 70.49609375 C57.66914673 71.73637329 57.66914673 71.73637329 58.22827148 73.00170898 C59 75 59 75 59 77 C59.66 77 60.32 77 61 77 C61.51626953 75.29070312 61.51626953 75.29070312 62.04296875 73.546875 C64.59726418 65.90335073 68.02404781 58.59841774 71.3125 51.25 C71.66193665 50.46585724 72.01137329 49.68171448 72.37139893 48.87380981 C77.37683083 37.64983169 82.52641948 26.50210032 87.875 15.4375 C88.32233994 14.51076477 88.32233994 14.51076477 88.77871704 13.56530762 C93.60046291 3.59930564 93.60046291 3.59930564 96 0 C98.33837891 -0.34057617 98.33837891 -0.34057617 101.2265625 -0.29296875 C102.7734375 -0.2784668 102.7734375 -0.2784668 104.3515625 -0.26367188 C105.43179688 -0.23853516 106.51203125 -0.21339844 107.625 -0.1875 C108.71296875 -0.17396484 109.8009375 -0.16042969 110.921875 -0.14648438 C113.61507409 -0.11104754 116.30729374 -0.06164331 119 0 C123.33193452 31.17680144 125.35035093 62.71938621 127.25 94.125 C127.33000244 95.41849365 127.41000488 96.7119873 127.49243164 98.04467773 C128.00325914 107.04719854 128.05976217 115.98587253 128 125 C120.08 125 112.16 125 104 125 C103.91959473 123.28304932 103.83918945 121.56609863 103.75634766 119.79711914 C103.48433494 114.00960536 103.20845721 108.22228212 102.93017006 102.43506718 C102.76221161 98.93947305 102.59562376 95.44382687 102.43261719 91.94799805 C101.60714154 74.26995793 100.55774311 56.63117578 99 39 C98.77584915 39.52901917 98.5516983 40.05803833 98.320755 40.60308838 C92.94184951 53.29110935 87.40917939 65.90682599 81.8125 78.5 C81.47138184 79.26832153 81.13026367 80.03664307 80.77880859 80.82824707 C76.59229785 90.25392579 72.34565511 99.64636599 68 109 C62.06 109 56.12 109 50 109 C49.25878906 107.28683594 48.51757812 105.57367188 47.75390625 103.80859375 C38.53961389 82.52291015 29.27519429 61.25920681 20 40 C17.66732441 56.68207411 17.16583721 73.48456766 16.47198486 90.2946167 C16.30872664 94.21743748 16.13840616 98.13995164 15.96875 102.0625 C15.63907539 109.70805947 15.31765789 117.3539301 15 125 C7.08 125 -0.84 125 -9 125 C-9.08437579 113.58979695 -8.79711683 102.26747458 -8.1875 90.875 C-8.14398407 90.04350433 -8.10046814 89.21200867 -8.05563354 88.35531616 C-4.30255249 17.21020996 -4.30255249 17.21020996 0 0 Z " fill="#FDFAFE" transform="translate(84,140)"/>
<path d="M0 0 C1.98 0 3.96 0 6 0 C6 0.66 6 1.32 6 2 C8.64 2 11.28 2 14 2 C14 2.66 14 3.32 14 4 C15.41539062 4.51046875 15.41539062 4.51046875 16.859375 5.03125 C24.7913015 7.99145078 31.52223364 11.28497557 38.4140625 16.265625 C40.92616105 18.08330706 40.92616105 18.08330706 43.74609375 19.0859375 C46.81445734 20.33029986 47.32979105 22.19404896 49 25 C50.98768394 26.35162508 52.9866347 27.68693567 55 29 C55.33 29.99 55.66 30.98 56 32 C56.639375 32.61875 57.27875 33.2375 57.9375 33.875 C60.17340743 36.1786622 60.86177054 38.0406034 62 41 C62.44859375 41.40863281 62.8971875 41.81726562 63.359375 42.23828125 C67.94954 47.16724414 71.42893376 56.19598508 71.3125 62.9375 C71.22935547 63.97003906 71.22935547 63.97003906 71.14453125 65.0234375 C70.91905373 68.10699497 71.4829493 70.96232715 72 74 C72.66 74 73.32 74 74 74 C74.15407397 101.71212489 74.30210206 129.4242764 74.4429636 157.13647175 C74.50851074 170.00416557 74.57602457 182.87184342 74.64819336 195.73950195 C74.711102 206.95697425 74.77029502 218.17445901 74.82505554 229.39197415 C74.85417062 235.32968225 74.88512642 241.2673677 74.92053413 247.20504189 C74.95383132 252.7986473 74.98214415 258.39225622 75.00670624 263.9859066 C75.01656538 266.03408134 75.028214 268.0822484 75.04183006 270.13040161 C75.17205924 290.01156316 75.17205924 290.01156316 74 299 C73.34 299 72.68 299 72 299 C71.80372609 300.58226965 71.61834462 302.16589271 71.4375 303.75 C71.33308594 304.63171875 71.22867187 305.5134375 71.12109375 306.421875 C71.00543324 308.88432451 71.26361305 310.66538064 72 313 C71.01 313 70.02 313 69 313 C68.95875 313.9075 68.9175 314.815 68.875 315.75 C68.0671349 321.61003637 64.98904706 326.9733267 62 332 C61.34 332.33 60.68 332.66 60 333 C59.67 333.99 59.34 334.98 59 336 C58.34 336.33 57.68 336.66 57 337 C56.67 337.66 56.34 338.32 56 339 C55.195625 339.78375 54.39125 340.5675 53.5625 341.375 C50.97138099 343.74390001 50.97138099 343.74390001 49.9375 346.25 C49.628125 346.8275 49.31875 347.405 49 348 C48.09121094 348.21269531 48.09121094 348.21269531 47.1640625 348.4296875 C44.60865487 349.10313428 43.39139274 350.11780787 41.4375 351.875 C40.56931641 352.64457031 40.56931641 352.64457031 39.68359375 353.4296875 C38.58874236 354.45087139 37.51652939 355.49707209 36.47265625 356.5703125 C33.35143321 359.60046537 30.07125325 360.73338788 26 362 C26 362.66 26 363.32 26 364 C25.17242187 364.12246094 24.34484375 364.24492187 23.4921875 364.37109375 C19.6403979 365.06476056 15.89555126 366.02852131 12.125 367.0625 C11.09246094 367.3419043 11.09246094 367.3419043 10.0390625 367.62695312 C8.35867486 368.08205811 6.67923678 368.54066678 5 369 C5.33 369.66 5.66 370.32 6 371 C-68.58 371 -143.16 371 -220 371 C-220 370.34 -220 369.68 -220 369 C-221.15757812 368.66226562 -222.31515625 368.32453125 -223.5078125 367.9765625 C-225.04689212 367.52610017 -226.58595367 367.07557606 -228.125 366.625 C-228.88554687 366.40328125 -229.64609375 366.1815625 -230.4296875 365.953125 C-245.62584418 361.49907908 -245.62584418 361.49907908 -248.375 358.5 C-250.05078359 356.74141641 -250.05078359 356.74141641 -253.125 356 C-254.07375 355.67 -255.0225 355.34 -256 355 C-256.495 353.515 -256.495 353.515 -257 352 C-257.61875 351.855625 -258.2375 351.71125 -258.875 351.5625 C-261.75055688 350.80132318 -262.29219804 349.39092274 -264 347 C-264.86625 346.34 -265.7325 345.68 -266.625 345 C-269.19491792 342.8358586 -269.35446668 342.12007771 -270 339 C-270.99 338.67 -271.98 338.34 -273 338 C-273.495 336.515 -273.495 336.515 -274 335 C-274.515625 334.484375 -275.03125 333.96875 -275.5625 333.4375 C-276.2740625 332.7259375 -276.2740625 332.7259375 -277 332 C-277 331.34 -277 330.68 -277 330 C-277.66 330 -278.32 330 -279 330 C-282.42857143 322.71428571 -282.42857143 322.71428571 -282 318 C-282.66 318 -283.32 318 -284 318 C-284.103125 317.05125 -284.20625 316.1025 -284.3125 315.125 C-284.68539295 311.70892499 -284.68539295 311.70892499 -288 310 C-287.34 309.01 -286.68 308.02 -286 307 C-286.31730524 303.36060068 -286.31730524 303.36060068 -287 300 C-287.66 300 -288.32 300 -289 300 C-289.02281287 271.05628017 -289.04050983 242.1125614 -289.05106533 213.16883435 C-289.05231604 209.75171638 -289.05361036 206.33459842 -289.05493164 202.91748047 C-289.05519395 202.23719416 -289.05545626 201.55690786 -289.05572652 200.85600682 C-289.06007775 189.84109636 -289.06796231 178.82619112 -289.0771528 167.81128375 C-289.08650451 156.50887124 -289.09198398 145.20646133 -289.09408849 133.90404475 C-289.09539339 127.55570821 -289.09846533 121.2073835 -289.10573006 114.85905075 C-289.1125107 108.88542115 -289.11461277 102.91180828 -289.11310768 96.9381752 C-289.11338309 94.74439147 -289.11537609 92.55060719 -289.11920547 90.35682678 C-289.12417458 87.36362684 -289.12298634 84.37049021 -289.12025452 81.37728882 C-289.12316736 80.50762966 -289.1260802 79.63797049 -289.12908131 78.74195802 C-289.11830712 74.37956892 -288.87641177 70.29574774 -288 66 C-287.34 66 -286.68 66 -286 66 C-286.20625 65.113125 -286.4125 64.22625 -286.625 63.3125 C-287.02550239 59.7747289 -286.56683516 58.13367033 -285 55 C-284.34 55 -283.68 55 -283 55 C-283 53.35 -283 51.7 -283 50 C-282.34 50 -281.68 50 -281 50 C-280.690625 49.071875 -280.38125 48.14375 -280.0625 47.1875 C-279.375 45.125 -278.6875 43.0625 -278 41 C-277.34 41 -276.68 41 -276 41 C-275.87625 40.195625 -275.7525 39.39125 -275.625 38.5625 C-275.41875 37.716875 -275.2125 36.87125 -275 36 C-274.01 35.505 -274.01 35.505 -273 35 C-273.33 34.34 -273.66 33.68 -274 33 C-272.02 32.505 -272.02 32.505 -270 32 C-269.87625 31.071875 -269.87625 31.071875 -269.75 30.125 C-269 28 -269 28 -267.23046875 27.125 C-264.51263213 25.75418223 -262.74869985 23.99115297 -260.5625 21.875 C-252.45458582 14.44872462 -243.15118243 9.12929455 -233 5 C-233 4.34 -233 3.68 -233 3 C-219.99192797 0.97652213 -207.14950899 0.86191818 -194.01489258 0.88647461 C-191.89507041 0.88675702 -189.77524814 0.88659769 -187.65542603 0.8860321 C-181.92691262 0.88574624 -176.19842033 0.89160889 -170.46991181 0.89860606 C-164.47348784 0.9048747 -158.47706334 0.90544617 -152.4806366 0.90663147 C-141.13726396 0.90973445 -129.793901 0.91793389 -118.45053262 0.92798096 C-105.53154034 0.93917421 -92.61254758 0.94466063 -79.69355166 0.94967639 C-53.12902908 0.96011739 -26.56451508 0.97769678 0 1 C0 0.67 0 0.34 0 0 Z M-258 24 C-258.88558594 24.83015625 -259.77117187 25.6603125 -260.68359375 26.515625 C-271.07721109 36.58492441 -277.12491633 46.10399934 -281 60 C-281.33 60.99 -281.66 61.98 -282 63 C-283.62475874 69.61396074 -284.29363569 75.90984259 -284.27415466 82.70594788 C-284.27939134 83.62946389 -284.28462802 84.55297991 -284.29002339 85.50448126 C-284.30491532 88.57082219 -284.30572615 91.63699466 -284.30639648 94.70336914 C-284.31402534 96.91368894 -284.32245408 99.1240061 -284.33161926 101.33432007 C-284.35350175 107.32022082 -284.36235497 113.3060705 -284.36744571 119.29200673 C-284.37109722 123.03872161 -284.37734146 126.78542328 -284.3844471 130.5321331 C-284.4038903 140.93204573 -284.42041123 151.33194919 -284.42332363 161.73188114 C-284.4235112 162.39590113 -284.42369877 163.05992112 -284.42389202 163.74406293 C-284.42425824 165.08984085 -284.42462194 166.43561877 -284.42498314 167.78139669 C-284.42516595 168.44932436 -284.42534876 169.11725202 -284.42553711 169.80541992 C-284.42571766 170.47417518 -284.42589821 171.14293044 -284.42608423 171.83195101 C-284.42962169 182.65458526 -284.45662354 193.47702003 -284.494035 204.29958517 C-284.53225112 215.44530076 -284.55104238 226.59093382 -284.55178314 237.73671812 C-284.55257322 243.98084037 -284.56118779 250.22470502 -284.58978081 256.46876717 C-284.61610385 262.34831534 -284.6180874 268.22739496 -284.60212517 274.10697556 C-284.60032187 276.25261781 -284.60689887 278.39828791 -284.62294388 280.54387093 C-284.74546419 298.0064259 -281.88628695 313.2274261 -274 329 C-273.34 329 -272.68 329 -272 329 C-271.01 332.465 -271.01 332.465 -270 336 C-268.68 336.33 -267.36 336.66 -266 337 C-266 337.99 -266 338.98 -266 340 C-264.87318664 341.19510508 -263.7306477 342.37835267 -262.5234375 343.4921875 C-261 345 -261 345 -259.6015625 346.8203125 C-252.92961916 355.45658434 -242.6554753 361.02676383 -232 363 C-231.05025918 363.50170113 -231.05025918 363.50170113 -230.08133167 364.01353765 C-227.69102606 365.14644046 -225.95922951 365.30921091 -223.32369328 365.40839767 C-222.40843119 365.44631589 -221.4931691 365.48423411 -220.55017179 365.52330136 C-219.07768684 365.56865714 -219.07768684 365.56865714 -217.57545471 365.6149292 C-216.54945115 365.652491 -215.52344758 365.69005281 -214.466353 365.72875285 C-204.24216458 366.07752434 -194.02190805 366.15544456 -183.79272461 366.16113281 C-181.79236768 366.16578049 -179.79201161 366.17080763 -177.79165649 366.17617798 C-172.4389437 366.18909856 -167.0862433 366.1957038 -161.73351741 366.20018864 C-158.37756043 366.20314685 -155.02160665 366.20725592 -151.66565132 366.21169281 C-141.12900879 366.22530094 -130.59237382 366.23500551 -120.05572313 366.2388947 C-107.95526644 366.24338863 -95.85492196 366.26102633 -83.75449938 366.2898953 C-74.34752296 366.31155049 -64.94057809 366.32160068 -55.53357702 366.32293582 C-49.93646833 366.32397913 -44.3394661 366.32978819 -38.74238396 366.34775543 C-33.48655154 366.36430766 -28.230905 366.36635711 -22.97505569 366.35761642 C-21.05713081 366.35685045 -19.13919557 366.36113019 -17.22129631 366.37107468 C-6.36800072 366.4240171 3.46583425 365.88164168 14 363 C14.86538926 362.7663335 15.73077852 362.53266701 16.6223917 362.29191971 C21.87568712 360.79954196 26.24824121 358.23207466 30.8359375 355.3046875 C33 354 33 354 36 353 C37.68997323 351.35697047 39.35216394 349.68528688 41 348 C42.10037579 347.12023745 43.20479673 346.24551852 44.3125 345.375 C56.74984531 334.76825963 64.23419455 318.52928684 68 303 C68.51134633 301.44793555 68.51134633 301.44793555 69.03302288 299.86451626 C70.14438012 295.42298602 70.28155985 291.46654827 70.26069641 286.91383362 C70.26452196 286.02076018 70.26834751 285.12768674 70.27228898 284.20755047 C70.28257625 281.22627845 70.27863484 278.24520057 70.2746582 275.26391602 C70.27900726 273.12138186 70.28419106 270.97884926 70.29014587 268.83631897 C70.30353202 263.02177749 70.30411453 257.20730104 70.30158257 251.39274716 C70.30051175 246.5301114 70.30539953 241.66748872 70.310188 236.80485576 C70.32128369 225.32212368 70.32172143 213.8394243 70.31567383 202.35668945 C70.3096449 190.53880056 70.32191744 178.72103106 70.3432439 166.90316254 C70.36090852 156.73809191 70.36685327 146.5730591 70.36360615 136.40797371 C70.36179954 130.34555851 70.36436633 124.28322831 70.37832069 118.2208271 C70.39097217 112.51048465 70.38888613 106.80032669 70.37590981 101.0899868 C70.37355964 99.00521403 70.37622205 96.920428 70.38453293 94.83567047 C70.43731492 80.55443426 70.46203028 65.90297457 63.9140625 52.83203125 C62.65706581 50.31266608 61.84943933 47.67900096 61 45 C60.67 44.34 60.34 43.68 60 43 C59.34 43 58.68 43 58 43 C57.87625 42.195625 57.7525 41.39125 57.625 40.5625 C57.41875 39.716875 57.2125 38.87125 57 38 C56.34 37.67 55.68 37.34 55 37 C54.608125 36.319375 54.21625 35.63875 53.8125 34.9375 C50.45635455 29.4982298 46.51575893 23.57957792 40 22 C40 21.34 40 20.68 40 20 C38.02 19.505 38.02 19.505 36 19 C36 18.34 36 17.68 36 17 C30.78546335 13.42567215 24.84136124 11.32652255 19 9 C18.05125 8.61199219 17.1025 8.22398438 16.125 7.82421875 C15.2175 7.46972656 14.31 7.11523438 13.375 6.75 C12.57835937 6.43546875 11.78171875 6.1209375 10.9609375 5.796875 C3.81191555 3.87286382 -3.72931751 3.85166105 -11.09420776 3.86628723 C-11.95183122 3.86402167 -12.80945467 3.86175612 -13.69306672 3.85942191 C-16.53611458 3.85314595 -19.37911399 3.85390711 -22.22216797 3.85473633 C-24.2731126 3.85174088 -26.32405666 3.84833746 -28.375 3.84455872 C-33.92462637 3.83575494 -39.47423731 3.83338216 -45.02386999 3.83274293 C-48.49582548 3.8320305 -51.96777708 3.82989256 -55.4397316 3.82724571 C-67.5654551 3.8180051 -79.69116763 3.81390932 -91.81689453 3.81469727 C-103.09923989 3.81529809 -114.38153743 3.80474206 -125.66387069 3.7889536 C-135.36948968 3.77585814 -145.07509308 3.77051419 -154.78072083 3.77115268 C-160.56908039 3.77140702 -166.35739742 3.76859071 -172.14574814 3.75797462 C-177.59097157 3.74825955 -183.03611207 3.74823779 -188.4813385 3.75549126 C-190.47265367 3.75653278 -192.46397411 3.75420005 -194.4552803 3.7481308 C-218.0558833 3.68089198 -240.25821424 7.21797081 -258 24 Z M64 46 C65 48 65 48 65 48 Z M66 51 C67 53 67 53 67 53 Z M67 53 C68 55 68 55 68 55 Z M68 56 C69 58 69 58 69 58 Z M69 58 C70 60 70 60 70 60 Z M-285 59 C-284 62 -284 62 -284 62 Z M-287 70 C-286 72 -286 72 -286 72 Z M-288 72 C-288 73.98 -288 75.96 -288 78 C-287.67 78 -287.34 78 -287 78 C-287 76.02 -287 74.04 -287 72 C-287.33 72 -287.66 72 -288 72 Z M-284 313 C-283 315 -283 315 -283 315 Z M-281 321 C-280 323 -280 323 -280 323 Z M-280 323 C-279 325 -279 325 -279 325 Z " fill="#5D37D2" transform="translate(317,16)"/>
<path d="M0 0 C35.72727273 0 35.72727273 0 48 12 C56.01348323 22.17621308 57.93293646 35.39878782 57 48 C55.24309205 59.81270629 51.52034483 70.09786927 41.91015625 77.72265625 C29.11504267 86.27889785 15.24149395 85 0 85 C0 56.95 0 28.9 0 0 Z " fill="#7D29F7" transform="translate(263,160)"/>
<path d="M0 0 C0.33 0 0.66 0 1 0 C1.15407397 27.71212489 1.30210206 55.4242764 1.4429636 83.13647175 C1.50851074 96.00416557 1.57602457 108.87184342 1.64819336 121.73950195 C1.711102 132.95697425 1.77029502 144.17445901 1.82505554 155.39197415 C1.85417062 161.32968225 1.88512642 167.2673677 1.92053413 173.20504189 C1.95383132 178.7986473 1.98214415 184.39225622 2.00670624 189.9859066 C2.01656538 192.03408134 2.028214 194.0822484 2.04183006 196.13040161 C2.17205924 216.01156316 2.17205924 216.01156316 1 225 C0.34 225 -0.32 225 -1 225 C-1.19627391 226.58226965 -1.38165538 228.16589271 -1.5625 229.75 C-1.66691406 230.63171875 -1.77132813 231.5134375 -1.87890625 232.421875 C-1.99456676 234.88432451 -1.73638695 236.66538064 -1 239 C-1.99 239 -2.98 239 -4 239 C-4.04125 239.9075 -4.0825 240.815 -4.125 241.75 C-4.9328651 247.61003637 -8.01095294 252.9733267 -11 258 C-11.66 258.33 -12.32 258.66 -13 259 C-13.33 259.99 -13.66 260.98 -14 262 C-14.66 262.33 -15.32 262.66 -16 263 C-16.33 263.66 -16.66 264.32 -17 265 C-17.804375 265.78375 -18.60875 266.5675 -19.4375 267.375 C-22.02861901 269.74390001 -22.02861901 269.74390001 -23.0625 272.25 C-23.371875 272.8275 -23.68125 273.405 -24 274 C-24.90878906 274.21269531 -24.90878906 274.21269531 -25.8359375 274.4296875 C-28.39134513 275.10313428 -29.60860726 276.11780787 -31.5625 277.875 C-32.43068359 278.64457031 -32.43068359 278.64457031 -33.31640625 279.4296875 C-34.41125764 280.45087139 -35.48347061 281.49707209 -36.52734375 282.5703125 C-39.64856679 285.60046537 -42.92874675 286.73338788 -47 288 C-47 288.66 -47 289.32 -47 290 C-47.82757813 290.12246094 -48.65515625 290.24492187 -49.5078125 290.37109375 C-53.3596021 291.06476056 -57.10444874 292.02852131 -60.875 293.0625 C-61.90753906 293.3419043 -61.90753906 293.3419043 -62.9609375 293.62695312 C-64.64132514 294.08205811 -66.32076322 294.54066678 -68 295 C-67.67 295.66 -67.34 296.32 -67 297 C-141.58 297 -216.16 297 -293 297 C-293 296.34 -293 295.68 -293 295 C-294.15757812 294.66226562 -295.31515625 294.32453125 -296.5078125 293.9765625 C-298.04689212 293.52610017 -299.58595367 293.07557606 -301.125 292.625 C-301.88554687 292.40328125 -302.64609375 292.1815625 -303.4296875 291.953125 C-316.74227645 288.05115927 -316.74227645 288.05115927 -320 286 C-320.495 284.515 -320.495 284.515 -321 283 C-320.15050781 283.28746094 -319.30101562 283.57492187 -318.42578125 283.87109375 C-313.88635733 285.36698145 -309.30891789 286.7267082 -304.73046875 288.09765625 C-302 289 -302 289 -301 290 C-299.54359277 290.15638766 -298.08007183 290.24741004 -296.61666203 290.31074142 C-295.69173197 290.3518823 -294.76680191 290.39302317 -293.81384367 290.43541074 C-292.80705031 290.47402683 -291.80025696 290.51264292 -290.76295471 290.5524292 C-289.72341599 290.59450272 -288.68387727 290.63657625 -287.61283737 290.67992473 C-277.33840811 291.06959704 -267.07335743 291.15541595 -256.79272461 291.16113281 C-254.79236768 291.16578049 -252.79201161 291.17080763 -250.79165649 291.17617798 C-245.4389437 291.18909856 -240.0862433 291.1957038 -234.73351741 291.20018864 C-231.37756043 291.20314685 -228.02160665 291.20725592 -224.66565132 291.21169281 C-214.12900879 291.22530094 -203.59237382 291.23500551 -193.05572313 291.2388947 C-180.95526644 291.24338863 -168.85492196 291.26102633 -156.75449938 291.2898953 C-147.34752296 291.31155049 -137.94057809 291.32160068 -128.53357702 291.32293582 C-122.93646833 291.32397913 -117.3394661 291.32978819 -111.74238396 291.34775543 C-106.48655154 291.36430766 -101.230905 291.36635711 -95.97505569 291.35761642 C-94.05713081 291.35685045 -92.13919557 291.36113019 -90.22129631 291.37107468 C-79.36800072 291.4240171 -69.53416575 290.88164168 -59 288 C-58.13461074 287.76625294 -57.26922148 287.53250587 -56.3776083 287.29167557 C-51.09473798 285.79150226 -46.7477972 283.19737246 -42.1640625 280.20703125 C-40 279 -40 279 -37 279 C-36.690625 278.13375 -36.690625 278.13375 -36.375 277.25 C-34.50773388 274.19447363 -31.98065635 272.92500723 -29 271 C-28.34 270.01 -27.68 269.02 -27 268 C-26.34 268 -25.68 268 -25 268 C-24.73703125 267.43410156 -24.4740625 266.86820312 -24.203125 266.28515625 C-22.90517585 263.81989569 -21.39453018 261.68576536 -19.75 259.4375 C-12.90117351 249.6839737 -8.85226065 240.49293263 -6 229 C-5.34 229 -4.68 229 -4 229 C-2.9987174 224.00057176 -2.84786847 219.22718818 -2.84178162 214.15420532 C-2.83437465 212.83569519 -2.83437465 212.83569519 -2.82681805 211.49054849 C-2.81148755 208.55180631 -2.80309449 205.61308591 -2.79467773 202.67431641 C-2.78509572 200.56508188 -2.77508544 198.45584927 -2.76467896 196.34661865 C-2.73765895 190.62402818 -2.71663364 184.90142948 -2.69667697 179.1788106 C-2.67479952 173.19702184 -2.64741943 167.21525835 -2.62062073 161.23348999 C-2.57071765 149.90767729 -2.52576995 138.58185055 -2.48259836 127.25601041 C-2.43320563 114.36129942 -2.37829504 101.46661378 -2.32291877 88.57192731 C-2.20913532 62.04797519 -2.10228835 35.52399876 -2 9 C-1.67 9 -1.34 9 -1 9 C-0.67 6.03 -0.34 3.06 0 0 Z " fill="#8029D8" transform="translate(390,90)"/>
<path d="M0 0 C1.05832031 0.03738281 2.11664063 0.07476562 3.20703125 0.11328125 C4.79451172 0.13455078 4.79451172 0.13455078 6.4140625 0.15625 C14.15347035 0.30376095 14.15347035 0.30376095 17.70703125 1.48828125 C19.58088792 4.04949316 20.93609981 6.92376444 22.39453125 9.73828125 C22.81025391 10.50269531 23.22597656 11.26710937 23.65429688 12.0546875 C27.32235443 19.02941763 27.32235443 19.02941763 26.70703125 23.48828125 C27.69703125 23.81828125 28.68703125 24.14828125 29.70703125 24.48828125 C31.05737305 26.83325195 31.05737305 26.83325195 32.40625 29.9140625 C32.89287109 31.02072266 33.37949219 32.12738281 33.88085938 33.26757812 C34.38037109 34.43353516 34.87988281 35.59949219 35.39453125 36.80078125 C35.90564453 37.95513672 36.41675781 39.10949219 36.94335938 40.29882812 C40.70703125 48.95678092 40.70703125 48.95678092 40.70703125 53.48828125 C41.36703125 53.48828125 42.02703125 53.48828125 42.70703125 53.48828125 C43.71847693 55.7128597 44.7162339 57.94202416 45.70703125 60.17578125 C45.99320312 60.80162109 46.279375 61.42746094 46.57421875 62.07226562 C48.16447653 65.68820892 49.07029777 68.53018974 48.70703125 72.48828125 C45.81149698 69.03348833 44.10460393 65.20364526 42.3359375 61.1015625 C42.01722183 60.37511536 41.69850616 59.64866821 41.37013245 58.90020752 C40.68689791 57.34281202 40.00574238 55.78450309 39.32647705 54.22537231 C32.79674918 39.24643978 26.00695546 24.43721953 18.78173828 9.77954102 C17.66163655 7.39150041 16.68664172 4.93730741 15.70703125 2.48828125 C7.78703125 2.48828125 -0.13296875 2.48828125 -8.29296875 2.48828125 C-8.56109375 5.74703125 -8.82921875 9.00578125 -9.10546875 12.36328125 C-9.71739143 19.77730099 -10.35057668 27.18893635 -11.0234375 34.59765625 C-13.82747356 65.52423318 -15.67544239 96.47995683 -17.29296875 127.48828125 C-9.37296875 127.48828125 -1.45296875 127.48828125 6.70703125 127.48828125 C6.66578125 124.41515625 6.62453125 121.34203125 6.58203125 118.17578125 C6.5254367 106.01414375 7.02849667 93.88458811 7.58203125 81.73828125 C7.62132751 80.83774017 7.66062378 79.9371991 7.70111084 79.0093689 C8.27096776 66.11404891 9.29961959 53.31904029 10.70703125 40.48828125 C14.12774286 43.90899286 15.51216 48.58347434 17.39453125 52.98828125 C17.82314453 53.96410156 18.25175781 54.93992188 18.69335938 55.9453125 C19.09361328 56.87730469 19.49386719 57.80929688 19.90625 58.76953125 C20.27580811 59.62611328 20.64536621 60.48269531 21.02612305 61.36523438 C21.70703125 63.48828125 21.70703125 63.48828125 20.70703125 65.48828125 C20.04703125 64.82828125 19.38703125 64.16828125 18.70703125 63.48828125 C18.70703125 62.16828125 18.70703125 60.84828125 18.70703125 59.48828125 C18.04703125 59.48828125 17.38703125 59.48828125 16.70703125 59.48828125 C15.38703125 56.18828125 14.06703125 52.88828125 12.70703125 49.48828125 C12.37703125 49.48828125 12.04703125 49.48828125 11.70703125 49.48828125 C11.69672379 50.08740829 11.68641632 50.68653534 11.67579651 51.30381775 C11.5679616 57.51638213 11.45334581 63.72879466 11.3347168 69.94116211 C11.29129386 72.26241898 11.24962441 74.58370933 11.2097168 76.9050293 C11.15219185 80.23366403 11.088447 83.5621291 11.0234375 86.890625 C10.99836876 88.45779518 10.99836876 88.45779518 10.97279358 90.05662537 C10.95284836 91.01754593 10.93290314 91.97846649 10.91235352 92.96850586 C10.89680923 93.81900009 10.88126495 94.66949432 10.86524963 95.54576111 C10.70703125 97.48828125 10.70703125 97.48828125 9.70703125 98.48828125 C9.5605041 100.69374151 9.47953613 102.90361259 9.42578125 105.11328125 C9.40737183 105.77537598 9.3889624 106.4374707 9.36999512 107.11962891 C9.31108428 109.2424204 9.25833201 111.36529299 9.20703125 113.48828125 C9.13956797 116.2801262 9.0659006 119.0717023 8.98828125 121.86328125 C8.9428418 123.73113281 8.9428418 123.73113281 8.89648438 125.63671875 C8.70703125 128.48828125 8.70703125 128.48828125 7.70703125 129.48828125 C5.79244843 129.58799911 3.87420808 129.61908714 1.95703125 129.62109375 C0.79171875 129.62238281 -0.37359375 129.62367188 -1.57421875 129.625 C-2.80140625 129.62113281 -4.02859375 129.61726562 -5.29296875 129.61328125 C-6.52015625 129.61714844 -7.74734375 129.62101563 -9.01171875 129.625 C-10.17703125 129.62371094 -11.34234375 129.62242187 -12.54296875 129.62109375 C-13.620625 129.61996582 -14.69828125 129.61883789 -15.80859375 129.61767578 C-18.29296875 129.48828125 -18.29296875 129.48828125 -19.29296875 128.48828125 C-21.19142057 108.33880397 -18.34095649 87.31538443 -16.84739685 67.20916748 C-16.43235992 61.57665849 -16.07090297 55.94351977 -15.75390625 50.3046875 C-15.40713828 44.16487817 -14.96556048 38.04527999 -14.35546875 31.92578125 C-14.22579712 30.61770508 -14.22579712 30.61770508 -14.09350586 29.28320312 C-13.91649535 27.52561556 -13.73696361 25.76827975 -13.5546875 24.01123047 C-13.38416642 22.36742001 -13.21731561 20.72322337 -13.0546875 19.07861328 C-12.83489038 16.8801764 -12.59826729 14.68428203 -12.35546875 12.48828125 C-12.22269531 11.25078125 -12.08992188 10.01328125 -11.953125 8.73828125 C-10.31331449 0.66536796 -7.87266744 -0.0900305 0 0 Z " fill="#693FD6" transform="translate(92.29296875,137.51171875)"/>
<path d="M0 0 C2.15961521 0.89226207 4.32747737 1.76464259 6.5 2.625 C12.56841959 5.10595456 17.54670798 8.25535212 22.6953125 12.36328125 C24.93009244 13.95035378 26.39286417 14.39395527 29 15 C29.45375 15.763125 29.9075 16.52625 30.375 17.3125 C32.37934382 20.62737631 34.79025031 21.90668498 38 24 C38.495 25.485 38.495 25.485 39 27 C39.639375 27.61875 40.27875 28.2375 40.9375 28.875 C43.17340743 31.1786622 43.86177054 33.0406034 45 36 C45.44859375 36.40863281 45.8971875 36.81726562 46.359375 37.23828125 C50.94954 42.16724414 54.42893376 51.19598508 54.3125 57.9375 C54.24675781 58.56527344 54.18101562 59.19304687 54.11328125 59.83984375 C53.91627527 62.15926055 53.91627527 62.15926055 54.48693562 65.05748272 C55.06448218 69.49549746 55.12466283 73.77291194 55.0957489 78.24043274 C55.09393091 79.14999023 55.09211291 80.05954772 55.09023982 80.99666756 C55.08288086 84.03337777 55.068187 87.07000667 55.0534668 90.10668945 C55.04659379 92.28851192 55.04014498 94.47033576 55.03408813 96.65216064 C55.01618793 102.57167613 54.99162443 108.49114601 54.96532798 114.41062951 C54.94381274 119.35583459 54.92516601 124.30104898 54.90639621 129.24626511 C54.85936066 141.58274517 54.80550578 153.9191857 54.74887029 166.25562497 C54.69697571 177.61787793 54.65681798 188.98014144 54.62020558 200.3424533 C54.58643313 210.67815531 54.54510005 221.01380912 54.49788028 231.3494584 C54.46981155 237.51895557 54.44474274 243.68842854 54.4272213 249.85796547 C54.41046366 255.66185851 54.38426907 261.46563433 54.35091019 267.26945496 C54.34027041 269.39543433 54.33294695 271.52143337 54.32924461 273.64743614 C54.32364795 276.55795742 54.30588811 279.4681686 54.28520203 282.37861633 C54.28645464 283.21239455 54.28770726 284.04617277 54.28899783 284.90521699 C54.22899287 290.78819804 53.32395009 296.2725967 52 302 C51.67 302 51.34 302 51 302 C51.07031811 301.45177676 51.14063622 300.90355352 51.21308517 300.33871746 C52.33085107 290.18703257 52.15597803 280.00815771 52.16113281 269.80981445 C52.16576779 267.66669124 52.17079336 265.52356885 52.17617798 263.38044739 C52.18923678 257.58268901 52.19573391 251.78494218 52.20018864 245.98717141 C52.20312937 242.35788778 52.20723598 238.72860724 52.21169281 235.09932518 C52.22534933 223.72329007 52.23502552 212.3472621 52.2388947 200.97121936 C52.24337382 187.87735688 52.2609228 174.78359887 52.2898953 161.68976814 C52.31156424 151.54160741 52.32160173 141.39347597 52.32293582 131.24529237 C52.32397992 125.1963426 52.32980369 119.14749129 52.34775543 113.09856606 C52.36432694 107.4045965 52.36634782 101.71079847 52.35761642 96.01681328 C52.35685095 93.93848331 52.36112341 91.86014375 52.37107468 89.78183746 C52.435207 75.54203311 52.46591723 60.99328943 45.91796875 47.97265625 C44.4233845 44.76089009 43.75315892 41.4519784 43 38 C42.34 38 41.68 38 41 38 C40.67 36.35 40.34 34.7 40 33 C39.01 32.67 38.02 32.34 37 32 C35.97862543 30.34634594 34.98387706 28.67623498 34 27 C30.74399738 22.69641393 27.75084938 19.65488642 23 17 C23 16.34 23 15.68 23 15 C21.68 14.67 20.36 14.34 19 14 C19 13.34 19 12.68 19 12 C18.38125 11.87625 17.7625 11.7525 17.125 11.625 C15 11 15 11 13 9 C3.67276062 4.8071558 -6.22690417 1.94823815 -16 -1 C-16 -1.33 -16 -1.66 -16 -2 C-14.39679026 -2.19551338 -12.79237014 -2.38111983 -11.1875 -2.5625 C-10.29417969 -2.66691406 -9.40085937 -2.77132813 -8.48046875 -2.87890625 C-4.82085504 -3.05756456 -3.03858382 -2.02572255 0 0 Z M47 41 C48 43 48 43 48 43 Z M49 46 C50 48 50 48 50 48 Z M50 48 C51 50 51 50 51 50 Z M51 51 C52 53 52 53 52 53 Z M52 53 C53 55 53 55 53 55 Z " fill="#7230CF" transform="translate(334,21)"/>
<path d="M0 0 C1.98 0.99 1.98 0.99 4 2 C1.03 2.99 -1.94 3.98 -5 5 C-5 5.66 -5 6.32 -5 7 C-5.82757813 7.12246094 -6.65515625 7.24492187 -7.5078125 7.37109375 C-11.3596021 8.06476056 -15.10444874 9.02852131 -18.875 10.0625 C-19.90753906 10.3419043 -19.90753906 10.3419043 -20.9609375 10.62695312 C-22.64132514 11.08205811 -24.32076322 11.54066678 -26 12 C-25.67 12.66 -25.34 13.32 -25 14 C-99.58 14 -174.16 14 -251 14 C-251 13.67 -251 13.34 -251 13 C-248.36 12.67 -245.72 12.34 -243 12 C-243 11.67 -243 11.34 -243 11 C-241.9179255 10.99853344 -240.835851 10.99706688 -239.72098637 10.99555588 C-213.33576483 10.95888605 -186.9506695 10.89933864 -160.56555271 10.81609726 C-147.80566268 10.77636579 -135.0458338 10.74394339 -122.28588867 10.72900391 C-111.15836345 10.71595683 -100.0309731 10.68891433 -88.90352386 10.64538693 C-83.01702377 10.62284086 -77.13068962 10.6070852 -71.24414253 10.60811615 C-65.69138749 10.60886682 -60.13899832 10.59075367 -54.58633804 10.55883217 C-52.56006098 10.5503882 -50.5337426 10.54854531 -48.50745583 10.55419731 C-31.97780985 10.59412444 -17.385094 8.94559497 -2.63671875 0.9765625 C-1.76660156 0.65429688 -0.89648438 0.33203125 0 0 Z " fill="#A257E7" transform="translate(348,373)"/>
<path d="M0 0 C2.6984985 0.01856424 5.39665837 0.020507 8.09521484 0.02026367 C9.81006159 0.02516911 11.52490601 0.03099313 13.23974609 0.0378418 C14.04688049 0.03895462 14.85401489 0.04006744 15.68560791 0.04121399 C21.2954698 0.08965925 21.2954698 0.08965925 22.41162109 1.20581055 C24.38758167 1.48000115 26.3676712 1.72460286 28.34912109 1.95581055 C34.0105338 2.77080512 38.3364464 4.26932847 43.29052734 7.0847168 C45.34240417 8.16922628 47.14619835 8.74861639 49.41162109 9.20581055 C49.41162109 9.86581055 49.41162109 10.52581055 49.41162109 11.20581055 C50.58724609 11.60799805 50.58724609 11.60799805 51.78662109 12.01831055 C54.41162109 13.20581055 54.41162109 13.20581055 56.41162109 16.20581055 C53.47577608 15.13823054 50.9255864 13.91990779 48.22412109 12.33081055 C34.81884732 4.57593174 20.65271163 2.7104611 5.44677734 2.86962891 C3.04669344 2.89321158 0.64772933 2.89016574 -1.75244141 2.88354492 C-3.33057279 2.8891255 -4.90869965 2.89623776 -6.48681641 2.9050293 C-7.52350967 2.90366219 -7.52350967 2.90366219 -8.58114624 2.90226746 C-15.98297591 3.00339527 -23.27479211 4.15141345 -30.58837891 5.20581055 C-30.65839368 20.94768501 -30.71133002 36.68951759 -30.74381542 52.43150902 C-30.75929844 59.74044365 -30.78041519 67.04928167 -30.81469727 74.3581543 C-30.84455592 80.7269855 -30.86394347 87.09574674 -30.87064439 93.46464598 C-30.87456271 96.83839998 -30.88380059 100.2119538 -30.90556908 103.58564377 C-30.92721443 107.34766466 -30.9303512 111.10926518 -30.92895508 114.87133789 C-30.93974091 115.9955867 -30.95052673 117.11983551 -30.9616394 118.27815247 C-30.95751541 119.29901443 -30.95339142 120.3198764 -30.94914246 121.37167358 C-30.95190784 122.26212561 -30.95467321 123.15257763 -30.95752239 124.07001305 C-30.83570504 124.77482622 -30.71388769 125.4796394 -30.58837891 126.20581055 C-29.59837891 126.86581055 -28.60837891 127.52581055 -27.58837891 128.20581055 C-29.23837891 128.20581055 -30.88837891 128.20581055 -32.58837891 128.20581055 C-34.54306589 114.05916814 -34.91480862 100.10639948 -34.92431641 85.83862305 C-34.9307585 83.54222535 -34.93748786 81.24582844 -34.94448853 78.94943237 C-34.95636478 74.17761323 -34.96017834 69.40586605 -34.95898438 64.6340332 C-34.9587793 58.5163229 -34.98631755 52.3990673 -35.02052879 46.28146553 C-35.042713 41.55807352 -35.04682487 36.83479362 -35.04576492 32.11135483 C-35.04812457 29.8538643 -35.05696846 27.59637085 -35.07242966 25.33893204 C-35.09195934 22.19933455 -35.08630763 19.06075538 -35.07421875 15.92114258 C-35.09107727 14.52641724 -35.09107727 14.52641724 -35.10827637 13.10351562 C-35.0467039 6.83132913 -35.0467039 6.83132913 -32.71566772 3.64994812 C-24.37244052 -2.01395976 -9.6978283 -0.06928306 0 0 Z " fill="#7433DD" transform="translate(269.58837890625,136.794189453125)"/>
<path d="M0 0 C3.42071161 3.42071161 4.80512875 8.09519309 6.6875 12.5 C7.11611328 13.47582031 7.54472656 14.45164063 7.98632812 15.45703125 C8.38658203 16.38902344 8.78683594 17.32101563 9.19921875 18.28125 C9.56877686 19.13783203 9.93833496 19.99441406 10.3190918 20.87695312 C11 23 11 23 10 25 C9.34 24.34 8.68 23.68 8 23 C8 21.68 8 20.36 8 19 C7.34 19 6.68 19 6 19 C4.68 15.7 3.36 12.4 2 9 C1.67 9 1.34 9 1 9 C0.98969254 9.59912704 0.97938507 10.19825409 0.96876526 10.8155365 C0.86093035 17.02810088 0.74631456 23.24051341 0.62768555 29.45288086 C0.58426261 31.77413773 0.54259316 34.09542808 0.50268555 36.41674805 C0.4451606 39.74538278 0.38141575 43.07384785 0.31640625 46.40234375 C0.29133751 47.96951393 0.29133751 47.96951393 0.26576233 49.56834412 C0.24581711 50.52926468 0.22587189 51.49018524 0.20532227 52.48022461 C0.18977798 53.33071884 0.1742337 54.18121307 0.15821838 55.05747986 C0 57 0 57 -1 58 C-1.14652715 60.20546026 -1.22749512 62.41533134 -1.28125 64.625 C-1.29965942 65.28709473 -1.31806885 65.94918945 -1.33703613 66.63134766 C-1.39594697 68.75413915 -1.44869924 70.87701174 -1.5 73 C-1.56746328 75.79184495 -1.64113065 78.58342105 -1.71875 81.375 C-1.76418945 83.24285156 -1.76418945 83.24285156 -1.81054688 85.1484375 C-2 88 -2 88 -3 89 C-4.91458282 89.09971786 -6.83282317 89.13080589 -8.75 89.1328125 C-9.9153125 89.13410156 -11.080625 89.13539063 -12.28125 89.13671875 C-13.5084375 89.13285156 -14.735625 89.12898438 -16 89.125 C-17.84078125 89.13080078 -17.84078125 89.13080078 -19.71875 89.13671875 C-20.8840625 89.13542969 -22.049375 89.13414062 -23.25 89.1328125 C-24.32765625 89.13168457 -25.4053125 89.13055664 -26.515625 89.12939453 C-29 89 -29 89 -30 88 C-31.33881104 71.28514704 -29.3963821 54.51761599 -27 38 C-26.67 38 -26.34 38 -26 38 C-25.81148583 48.44682669 -26.40206905 58.82633796 -27 69.25 C-27.09665827 70.9778476 -27.19301463 72.70571211 -27.2890625 74.43359375 C-27.52201048 78.62264097 -27.76113147 82.81126967 -28 87 C-20.08 87 -12.16 87 -4 87 C-4.04125 83.926875 -4.0825 80.85375 -4.125 77.6875 C-4.18159455 65.5258625 -3.67853458 53.39630686 -3.125 41.25 C-3.08570374 40.34945892 -3.04640747 39.44891785 -3.00592041 38.52108765 C-2.43606349 25.62576766 -1.40741166 12.83075904 0 0 Z " fill="#7042D4" transform="translate(103,178)"/>
<path d="M0 0 C0.33 0 0.66 0 1 0 C1.02578125 0.90621094 1.0515625 1.81242187 1.078125 2.74609375 C1.38960346 9.43580169 1.88730723 14.82651405 4.9609375 20.796875 C6.14366036 23.30460317 6.81729465 25.75169212 7.5 28.4375 C8.70190982 33.15217388 10.32041636 37.53280984 12.23046875 42.00390625 C13 44 13 44 13 46 C13.66 46 14.32 46 15 46 C16.4606285 48.64738916 17 49.89448334 17 53 C18.32 53.33 19.64 53.66 21 54 C21 54.99 21 55.98 21 57 C21.58007812 57.22945313 22.16015625 57.45890625 22.7578125 57.6953125 C25.57547434 59.33485789 26.94228564 61.259238 28.875 63.875 C31.96051696 67.87346018 34.59024441 70.57463442 39 73 C37 74 37 74 33.9375 73.25 C32.968125 72.8375 31.99875 72.425 31 72 C30.67 71.01 30.34 70.02 30 69 C29.38125 68.855625 28.7625 68.71125 28.125 68.5625 C25.24944312 67.80132318 24.70780196 66.39092274 23 64 C22.13375 63.34 21.2675 62.68 20.375 62 C17.80508208 59.8358586 17.64553332 59.12007771 17 56 C15.515 55.505 15.515 55.505 14 55 C13.505 53.515 13.505 53.515 13 52 C12.484375 51.484375 11.96875 50.96875 11.4375 50.4375 C10.963125 49.963125 10.48875 49.48875 10 49 C10 48.34 10 47.68 10 47 C9.34 47 8.68 47 8 47 C4.57142857 39.71428571 4.57142857 39.71428571 5 35 C4.34 35 3.68 35 3 35 C2.896875 34.05125 2.79375 33.1025 2.6875 32.125 C2.31460705 28.70892499 2.31460705 28.70892499 -1 27 C-0.01 25.515 -0.01 25.515 1 24 C0.7223986 21.65938191 0.37797139 19.32651954 0 17 C-0.12466267 14.01955152 -0.09572317 11.04491869 -0.0625 8.0625 C-0.05798828 7.28326172 -0.05347656 6.50402344 -0.04882812 5.70117188 C-0.03716908 3.80074732 -0.01923877 1.90036294 0 0 Z M3 30 C4 32 4 32 4 32 Z M6 38 C7 40 7 40 7 40 Z M7 40 C8 42 8 42 8 42 Z " fill="#7C47DD" transform="translate(30,299)"/>
<path d="M0 0 C0.94875 0.04125 1.8975 0.0825 2.875 0.125 C2.875 1.115 2.875 2.105 2.875 3.125 C-0.98004826 5.69503217 -4.12665049 5.39413394 -8.59416199 5.35877991 C-9.46904449 5.35978319 -10.343927 5.36078647 -11.24532109 5.36182016 C-14.18862065 5.36277578 -17.13168367 5.34940883 -20.07495117 5.33618164 C-22.18061247 5.33398126 -24.28627486 5.33267512 -26.39193726 5.3321991 C-30.93291959 5.32926113 -35.47383022 5.31999784 -40.01479149 5.30589485 C-47.19608353 5.28366327 -54.37734879 5.27554399 -61.55867004 5.26939392 C-72.92112723 5.25800086 -84.28354498 5.23726902 -95.64598018 5.21249622 C-115.98137641 5.16823101 -136.31678606 5.1349686 -156.65221769 5.11225218 C-163.78941302 5.10384834 -170.92656897 5.0898257 -178.0637449 5.07127964 C-182.50872984 5.06062189 -186.95371441 5.05404736 -191.39870834 5.04847908 C-193.45781515 5.04501396 -195.51691988 5.03980577 -197.57601738 5.03271103 C-200.39099925 5.02322715 -203.20592403 5.01997915 -206.0209198 5.01820374 C-206.83212459 5.01392665 -207.64332939 5.00964957 -208.47911614 5.00524288 C-213.44707216 5.01017596 -218.20622583 5.4177546 -223.125 6.125 C-223.455 5.465 -223.785 4.805 -224.125 4.125 C-218.42781089 3.31191976 -212.91639395 2.97745156 -207.16604614 2.98023987 C-206.29899233 2.97671302 -205.43193851 2.97318618 -204.53861034 2.96955246 C-201.65219952 2.95893313 -198.76582178 2.95519647 -195.87939453 2.95141602 C-193.80266686 2.94510592 -191.72594052 2.93833962 -189.6492157 2.93115234 C-185.18746344 2.91652015 -180.72571628 2.90478064 -176.26395035 2.89520454 C-169.21409922 2.87972792 -162.16429261 2.85578238 -155.11447144 2.83030701 C-135.07146004 2.75915686 -115.02842409 2.69918424 -94.98535156 2.64819336 C-83.90812611 2.61993768 -72.8309459 2.58459107 -61.75376785 2.54153961 C-54.73952443 2.51470877 -47.72533213 2.49684055 -40.71104741 2.48550236 C-36.35918955 2.47640785 -32.00739427 2.45906254 -27.65557289 2.43932343 C-25.63104417 2.43182078 -23.60649944 2.42776524 -21.58195686 2.42732811 C-18.82852971 2.42625306 -16.07542454 2.41307356 -13.322052 2.39674377 C-12.10749083 2.40066906 -12.10749083 2.40066906 -10.86839306 2.40467364 C-6.2605387 2.36168139 -4.16174444 0.16646978 0 0 Z " fill="#6337E8" transform="translate(320.125,15.875)"/>
<path d="M0 0 C23.21428571 0 23.21428571 0 31 2 C31 2.33 31 2.66 31 3 C29.99646484 2.90912109 29.99646484 2.90912109 28.97265625 2.81640625 C19.98006342 2.03181761 11.02412897 1.53083112 2 1 C2 28.06 2 55.12 2 83 C18.02100811 82.28907526 18.02100811 82.28907526 34 81 C24.33655565 87.44229624 10.55163541 85 0 85 C0 56.95 0 28.9 0 0 Z " fill="#763BC5" transform="translate(263,160)"/>
<path d="M0 0 C0.33 0 0.66 0 1 0 C2.45423948 16.1696467 3.3775771 32.34707318 4.125 48.5625 C4.16929138 49.49622437 4.21358276 50.42994873 4.25921631 51.39196777 C4.81828891 63.2755838 5.09086876 75.1026835 5 87 C12.92 87 20.84 87 29 87 C29 87.66 29 88.32 29 89 C21.08 89 13.16 89 5 89 C1.62528658 78.87585974 1.62528658 78.87585974 1.58349609 74.97094727 C1.56692963 74.09716934 1.55036316 73.22339142 1.53329468 72.32313538 C1.53004181 71.41341476 1.52678894 70.50369415 1.5234375 69.56640625 C1.50785797 68.60725815 1.49227844 67.64811005 1.47622681 66.65989685 C1.42908782 63.62743831 1.40105045 60.59520651 1.375 57.5625 C1.33848342 54.50495726 1.29792729 51.4475425 1.25234985 48.39012146 C1.22515666 46.49490402 1.20379088 44.59959223 1.18881226 42.70423889 C1.17341904 41.42666969 1.17341904 41.42666969 1.15771484 40.12329102 C1.15121918 39.37322281 1.14472351 38.6231546 1.13803101 37.85035706 C1.11057706 35.90495597 1.11057706 35.90495597 0 34 C-0.15378852 32.04225931 -0.24971463 30.07982648 -0.31640625 28.1171875 C-0.35830078 26.95058594 -0.40019531 25.78398437 -0.44335938 24.58203125 C-0.48267578 23.35871094 -0.52199219 22.13539063 -0.5625 20.875 C-0.60568359 19.64394531 -0.64886719 18.41289062 -0.69335938 17.14453125 C-0.79968704 14.09647147 -0.90171781 11.0483281 -1 8 C-1.33 8.99 -1.66 9.98 -2 11 C-2.66 11 -3.32 11 -4 11 C-3.5247412 9.35303396 -3.04468109 7.70745272 -2.5625 6.0625 C-2.29566406 5.14597656 -2.02882812 4.22945312 -1.75390625 3.28515625 C-1 1 -1 1 0 0 Z " fill="#773ECE" transform="translate(183,178)"/>
<path d="M0 0 C70.29 0 140.58 0 213 0 C213 0.33 213 0.66 213 1 C142.71 1 72.42 1 0 1 C0 0.67 0 0.34 0 0 Z " fill="#6633F5" transform="translate(104,15)"/>
<path d="M0 0 C0.84949219 0.28746094 1.69898437 0.57492187 2.57421875 0.87109375 C7.11364267 2.36698145 11.69108211 3.7267082 16.26953125 5.09765625 C19 6 19 6 20 7 C23.16984317 7.37904708 26.37395712 7.43280016 29.5625 7.5625 C31.10031128 7.62727539 31.10031128 7.62727539 32.66918945 7.69335938 C42.32226376 8.0541952 51.96314404 8.02806579 61.62133789 7.98071289 C80.75191133 7.91338343 99.87741736 8.50289746 119 9 C119 9.33 119 9.66 119 10 C91.61 10.33 64.22 10.66 36 11 C36 11.33 36 11.66 36 12 C29.94231152 12.25981057 25.12778111 11.46671769 19.375 9.625 C18.65054688 9.40328125 17.92609375 9.1815625 17.1796875 8.953125 C4.01639745 4.89921321 4.01639745 4.89921321 1 3 C0.67 2.01 0.34 1.02 0 0 Z " fill="#7B29EA" transform="translate(69,373)"/>
<path d="M0 0 C0.33 0 0.66 0 1 0 C0.48041348 20.00825779 -0.10276207 40.00441185 -1 60 C-8.92 60 -16.84 60 -25 60 C-25.11560727 47.63002244 -24.67734142 35.35067235 -24 23 C-23.67 23 -23.34 23 -23 23 C-23 34.55 -23 46.1 -23 58 C-16.4 58 -9.8 58 -3 58 C-3.01933594 56.13859375 -3.03867188 54.2771875 -3.05859375 52.359375 C-3.05744812 43.26308666 -2.64194223 34.19351032 -2.20043945 25.109375 C-2.06075288 22.2137837 -1.92955747 19.31788305 -1.79882812 16.421875 C-1.71144381 14.57810093 -1.62357176 12.7343499 -1.53515625 10.890625 C-1.47727684 9.5939389 -1.47727684 9.5939389 -1.41822815 8.27105713 C-1.11470825 2.2294165 -1.11470825 2.2294165 0 0 Z " fill="#F5E3FD" transform="translate(100,205)"/>
<path d="M0 0 C3.42071161 3.42071161 4.80512875 8.09519309 6.6875 12.5 C7.11611328 13.47582031 7.54472656 14.45164063 7.98632812 15.45703125 C8.38658203 16.38902344 8.78683594 17.32101563 9.19921875 18.28125 C9.56877686 19.13783203 9.93833496 19.99441406 10.3190918 20.87695312 C11 23 11 23 10 25 C9.34 24.34 8.68 23.68 8 23 C8 21.68 8 20.36 8 19 C7.34 19 6.68 19 6 19 C4.68 15.7 3.36 12.4 2 9 C1.67 9 1.34 9 1 9 C0.99191315 9.58580338 0.98382629 10.17160675 0.97549438 10.77516174 C0.88920438 16.8914196 0.78969092 23.00736245 0.68261719 29.12329102 C0.64441659 31.40351049 0.60954838 33.68378839 0.578125 35.96411133 C0.53228076 39.24842154 0.47431786 42.53233262 0.4140625 45.81640625 C0.39673569 47.33712486 0.39673569 47.33712486 0.37905884 48.88856506 C0.266606 54.32434585 -0.28566685 58.84419469 -2 64 C-2.36950465 66.32787927 -2.71352467 68.66045145 -3 71 C-3.33 71 -3.66 71 -4 71 C-3.61595458 54.08639008 -3.13670819 37.19440925 -2 20.3125 C-1.9170166 19.07419434 -1.8340332 17.83588867 -1.74853516 16.56005859 C-1.35476859 11.00013662 -0.90218553 5.50172071 0 0 Z " fill="#7547D7" transform="translate(103,178)"/>
<path d="M0 0 C4.31248609 -0.02886537 8.62494762 -0.04675255 12.9375 -0.0625 C14.78504883 -0.07506836 14.78504883 -0.07506836 16.66992188 -0.08789062 C17.83974609 -0.09111328 19.00957031 -0.09433594 20.21484375 -0.09765625 C21.84087524 -0.10551147 21.84087524 -0.10551147 23.49975586 -0.11352539 C26 0 26 0 27 1 C31.43522334 20.34353707 31.37709548 41.26533656 31 61 C30.67 61 30.34 61 30 61 C29.87939209 59.52744751 29.87939209 59.52744751 29.75634766 58.02514648 C29.45075467 54.30656269 29.14011885 50.58841308 28.828125 46.87036133 C28.69495978 45.27541967 28.56307802 43.68037022 28.43261719 42.08520508 C27.67830562 32.87390033 26.78811765 23.74803045 25.38037109 14.60961914 C24.90477047 10.09629748 25 5.53831118 25 1 C17.41 1.33 9.82 1.66 2 2 C0.68 4.64 -0.64 7.28 -2 10 C-2.33 10 -2.66 10 -3 10 C-3 8.35 -3 6.7 -3 5 C-2.34 5 -1.68 5 -1 5 C-0.67 3.35 -0.34 1.7 0 0 Z " fill="#7440D1" transform="translate(178,139)"/>
<path d="M0 0 C0.85053955 0.00045822 1.7010791 0.00091644 2.57739258 0.00138855 C4.35548314 0.0043849 6.13357171 0.01219146 7.91162109 0.0246582 C10.64560101 0.04310777 13.37924509 0.0451662 16.11328125 0.04492188 C17.84635712 0.04983084 19.57943069 0.05565643 21.3125 0.0625 C22.54202393 0.06416924 22.54202393 0.06416924 23.79638672 0.06587219 C29.50888776 0.11435651 29.50888776 0.11435651 30.625 1.23046875 C32.60096058 1.50465936 34.5810501 1.74926106 36.5625 1.98046875 C42.22391271 2.79546333 46.54982531 4.29398667 51.50390625 7.109375 C53.55578308 8.19388449 55.35957725 8.77327459 57.625 9.23046875 C57.625 9.89046875 57.625 10.55046875 57.625 11.23046875 C58.800625 11.63265625 58.800625 11.63265625 60 12.04296875 C62.625 13.23046875 62.625 13.23046875 64.625 16.23046875 C61.68915499 15.16288875 59.13896531 13.94456599 56.4375 12.35546875 C42.95504771 4.55594259 28.77988454 2.75189964 13.49536133 2.94921875 C11.06250525 2.98046868 8.63030318 2.9902198 6.19726562 2.99609375 C-2.36924754 3.03921214 -10.84814761 3.32481319 -19.375 4.23046875 C-18.375 2.23046875 -18.375 2.23046875 -16.63818359 1.60575867 C-11.02477471 0.38799802 -5.73549812 -0.05129196 0 0 Z " fill="#7842D0" transform="translate(261.375,136.76953125)"/>
<path d="M0 0 C3.82257648 4.81977035 4.1681125 8.70437135 4.203125 14.703125 C4.20882507 15.45914001 4.21452515 16.21515503 4.22039795 16.99407959 C4.22983965 18.59450892 4.23637864 20.19495762 4.24023438 21.79541016 C4.24990945 24.22724 4.28092679 26.65821328 4.3125 29.08984375 C4.3190337 30.64843251 4.32428273 32.20702728 4.328125 33.765625 C4.3404718 34.48566711 4.3528186 35.20570923 4.36553955 35.9475708 C4.34306037 41.11974289 3.20972742 44.44234995 1 49 C0.649375 50.0725 0.29875 51.145 -0.0625 52.25 C-1 55 -1 55 -3 58 C-3.66 58 -4.32 58 -5 58 C-5.33 58.99 -5.66 59.98 -6 61 C-6.33 60.34 -6.66 59.68 -7 59 C-6.443125 57.948125 -5.88625 56.89625 -5.3125 55.8125 C3.43973332 38.58249363 2.23367613 18.72245808 0 0 Z " fill="#8243CB" transform="translate(343,179)"/>
<path d="M0 0 C0 3.7185142 -0.85912168 4.31804606 -3.3125 7 C-3.92738281 7.680625 -4.54226563 8.36125 -5.17578125 9.0625 C-5.77777344 9.701875 -6.37976563 10.34125 -7 11 C-7.52980469 11.5775 -8.05960937 12.155 -8.60546875 12.75 C-10 14 -10 14 -12 14 C-12 14.66 -12 15.32 -12 16 C-31.08933415 25.71211737 -47.25817194 27.57741512 -68.5 27.25 C-70.78774465 27.22988938 -73.07550652 27.21164675 -75.36328125 27.1953125 C-80.90923657 27.15171384 -86.45453525 27.08516925 -92 27 C-92.33 26.34 -92.66 25.68 -93 25 C-91.71536865 25.01571045 -90.4307373 25.0314209 -89.10717773 25.04760742 C-84.27081755 25.10253977 -79.43448402 25.13657681 -74.59790039 25.16479492 C-72.51777485 25.17973905 -70.43768002 25.20010177 -68.35766602 25.22631836 C-47.12507539 25.486935 -26.38195161 23.73777171 -9 10 C-5.80324658 6.8172062 -2.84887229 3.49602352 0 0 Z " fill="#7F3BCC" transform="translate(335,240)"/>
<path d="M0 0 C2.01789102 2.01789102 2.74432991 3.36983444 3.87939453 5.94311523 C4.41972824 7.15964027 4.41972824 7.15964027 4.97097778 8.40074158 C5.54608597 9.7163784 5.54608597 9.7163784 6.1328125 11.05859375 C6.52951141 11.95868668 6.92621033 12.8587796 7.33493042 13.78614807 C8.1727354 15.69079328 9.00813187 17.59649947 9.84130859 19.50317383 C11.11971828 22.42542678 12.40894215 25.34273626 13.69921875 28.25976562 C14.51107543 30.10908594 15.32229488 31.95868616 16.1328125 33.80859375 C16.52026642 34.68366074 16.90772034 35.55872772 17.30691528 36.46031189 C17.66083344 37.27448074 18.01475159 38.0886496 18.37939453 38.92749023 C18.69313019 39.64315659 19.00686584 40.35882294 19.33010864 41.09617615 C20 43 20 43 20 46 C25.94 45.67 31.88 45.34 38 45 C39.32 42.03 40.64 39.06 42 36 C43.19491898 40.77967593 42.38305011 41.8754902 40 46 C39 47 39 47 37.05053711 47.11352539 C36.2178833 47.10828857 35.38522949 47.10305176 34.52734375 47.09765625 C33.62822266 47.09443359 32.72910156 47.09121094 31.80273438 47.08789062 C30.38444336 47.07532227 30.38444336 47.07532227 28.9375 47.0625 C27.98810547 47.05798828 27.03871094 47.05347656 26.06054688 47.04882812 C23.70696935 47.0370011 21.35351523 47.02052025 19 47 C17.5393715 44.35261084 17 43.10551666 17 40 C16.34 40 15.68 40 15 40 C14.81824219 39.32453125 14.63648438 38.6490625 14.44921875 37.953125 C14.19785156 37.06109375 13.94648437 36.1690625 13.6875 35.25 C13.44386719 34.36828125 13.20023438 33.4865625 12.94921875 32.578125 C11.97597093 29.93473587 10.69423506 28.22133041 9 26 C8.8125 23.25 8.8125 23.25 9 21 C8.34 21 7.68 21 7 21 C6.20788071 19.10435574 5.41632424 17.20847629 4.625 15.3125 C4.18414062 14.25675781 3.74328125 13.20101562 3.2890625 12.11328125 C2.65097656 10.57220703 2.65097656 10.57220703 2 9 C1.61585937 8.12730469 1.23171875 7.25460938 0.8359375 6.35546875 C0 4 0 4 0 0 Z " fill="#7342D0" transform="translate(114,203)"/>
<path d="M0 0 C2.4774013 3.71610195 2.71415058 6.97833386 3.125 11.3125 C3.20991699 12.18737061 3.29483398 13.06224121 3.38232422 13.96362305 C4.69710507 29.90633294 4.16077562 46.01766636 4 62 C3.67 62 3.34 62 3 62 C2.56698679 55.2600426 2.14047935 48.51969494 1.71826172 41.77905273 C1.57421352 39.49119995 1.42873553 37.20343668 1.28173828 34.91577148 C-0.28393445 10.52003417 -0.28393445 10.52003417 0 0 Z " fill="#7538D3" transform="translate(209,202)"/>
<path d="M0 0 C-3.22791555 2.1519437 -4.28400809 2.20086443 -8 2 C-8 2.66 -8 3.32 -8 4 C-8.95712891 4.19916016 -8.95712891 4.19916016 -9.93359375 4.40234375 C-11.17302734 4.66724609 -11.17302734 4.66724609 -12.4375 4.9375 C-13.67306641 5.19853516 -13.67306641 5.19853516 -14.93359375 5.46484375 C-16.97661204 5.80752994 -16.97661204 5.80752994 -18 7 C-19.42828582 7.37083283 -20.86821123 7.69743214 -22.3125 8 C-25.22400191 8.61598718 -28.11701446 9.26111126 -31 10 C-31 9.34 -31 8.68 -31 8 C-27.37 6.35 -23.74 4.7 -20 3 C-20 2.34 -20 1.68 -20 1 C-15.73906928 0.33718855 -11.47808753 -0.19029574 -7.1875 -0.625 C-5.78564453 -0.76808594 -5.78564453 -0.76808594 -4.35546875 -0.9140625 C-2 -1 -2 -1 0 0 Z " fill="#593FD5" transform="translate(104,18)"/>
<path d="M0 0 C3.42071161 3.42071161 4.80512875 8.09519309 6.6875 12.5 C7.11611328 13.47582031 7.54472656 14.45164063 7.98632812 15.45703125 C8.38658203 16.38902344 8.78683594 17.32101563 9.19921875 18.28125 C9.56877686 19.13783203 9.93833496 19.99441406 10.3190918 20.87695312 C11 23 11 23 10 25 C9.34 24.34 8.68 23.68 8 23 C8 21.68 8 20.36 8 19 C7.34 19 6.68 19 6 19 C4.68 15.7 3.36 12.4 2 9 C1.67 9 1.34 9 1 9 C0.67 15.27 0.34 21.54 0 28 C-0.66 28 -1.32 28 -2 28 C-1.8598002 24.64557336 -1.71181572 21.29153225 -1.5625 17.9375 C-1.52318359 16.99455078 -1.48386719 16.05160156 -1.44335938 15.08007812 C-1.21274604 9.98884522 -0.8300873 5.02935244 0 0 Z " fill="#7751CD" transform="translate(103,178)"/>
<path d="M0 0 C0.66 0 1.32 0 2 0 C0.59300254 4.45846032 -1.11629396 8.66943564 -3.0390625 12.9296875 C-3.32478119 13.56488312 -3.61049988 14.20007874 -3.90487671 14.85452271 C-4.80887107 16.86258462 -5.71686336 18.86880854 -6.625 20.875 C-7.2424537 22.24467169 -7.85964381 23.61446225 -8.4765625 24.984375 C-9.98133037 28.32429612 -11.48968672 31.66258221 -13 35 C-13.33 35 -13.66 35 -14 35 C-14.56561146 29.34388537 -12.71391278 25.77357872 -10 21 C-9.34 21 -8.68 21 -8 21 C-7.67 18.69 -7.34 16.38 -7 14 C-6.34 14 -5.68 14 -5 14 C-4.87625 12.9275 -4.7525 11.855 -4.625 10.75 C-4.10356064 7.62136385 -3.59911746 5.66519576 -2 3 C-1.34 3 -0.68 3 0 3 C0 2.01 0 1.02 0 0 Z " fill="#7140D4" transform="translate(163,170)"/>
<path d="M0 0 C0.85722656 0.29003906 1.71445313 0.58007812 2.59765625 0.87890625 C5.86322983 1.95493336 9.14340222 2.95282971 12.4375 3.9375 C15.95210901 5.00699075 19.36046644 6.06446283 22.6875 7.625 C27.02204449 9.42424488 31.38914007 10.21142235 36 11 C36 11.33 36 11.66 36 12 C29.94231152 12.25981057 25.12778111 11.46671769 19.375 9.625 C18.65054688 9.40328125 17.92609375 9.1815625 17.1796875 8.953125 C4.01639745 4.89921321 4.01639745 4.89921321 1 3 C0.67 2.01 0.34 1.02 0 0 Z " fill="#8548E0" transform="translate(69,373)"/>
<path d="M0 0 C2 3 2 3 1.375 6.25 C-2.24489796 16.12244898 -2.24489796 16.12244898 -6 18 C-6.33 18.99 -6.66 19.98 -7 21 C-7.66 21.33 -8.32 21.66 -9 22 C-9.33 22.66 -9.66 23.32 -10 24 C-11.64142963 25.0409066 -13.30712215 26.04504326 -15 27 C-13.2521498 23.19419715 -10.9306901 19.7932999 -8.625 16.3125 C-5.17625701 11.0433001 -2.32947107 5.87431835 0 0 Z " fill="#9C3EE1" transform="translate(383,331)"/>
<path d="M0 0 C0.33 0 0.66 0 1 0 C1.3781609 6.17662807 0.77783968 10.33748066 -2 16 C-2.350625 17.0725 -2.70125 18.145 -3.0625 19.25 C-4 22 -4 22 -6 25 C-6.66 25 -7.32 25 -8 25 C-8.33 25.99 -8.66 26.98 -9 28 C-9.33 27.34 -9.66 26.68 -10 26 C-9.06329115 24.23066106 -8.12553984 22.46186884 -7.18359375 20.6953125 C-5.41537649 16.66867915 -4.41990242 12.45565979 -3.39575195 8.19262695 C-2.60400625 4.9655063 -1.86878007 2.8031701 0 0 Z " fill="#8539DC" transform="translate(346,212)"/>
<path d="M0 0 C0.33 0 0.66 0 1 0 C1 7.92 1 15.84 1 24 C-2.1384993 25.04616643 -4.05038303 25.04169366 -7.32421875 24.87890625 C-8.35224609 24.83056641 -9.38027344 24.78222656 -10.43945312 24.73242188 C-11.51130859 24.67634766 -12.58316406 24.62027344 -13.6875 24.5625 C-14.77095703 24.51029297 -15.85441406 24.45808594 -16.97070312 24.40429688 C-19.64742591 24.27458784 -22.32377888 24.13962067 -25 24 C-25 23.67 -25 23.34 -25 23 C-17.08 23 -9.16 23 -1 23 C-1.03921206 18.04962411 -1.03921206 18.04962411 -1.09008789 13.09936523 C-1.10775494 8.62732176 -0.7362765 4.41186152 0 0 Z " fill="#6C3DC1" transform="translate(100,242)"/>
<path d="M0 0 C2.76733596 2.36537655 3.66162033 4.39201195 4.625 7.875 C4.86476563 8.71804687 5.10453125 9.56109375 5.3515625 10.4296875 C7.94413115 20.70625479 7.59358406 30.74144875 5 41 C4.67 41 4.34 41 4 41 C4.02094727 40.24493164 4.04189453 39.48986328 4.06347656 38.71191406 C4.14764582 35.22474993 4.19897679 31.73780056 4.25 28.25 C4.28351563 27.06277344 4.31703125 25.87554687 4.3515625 24.65234375 C4.43263011 17.23465757 3.52809976 11.25884522 0.86621094 4.31933594 C0 2 0 2 0 0 Z " fill="#8649D4" transform="translate(313,177)"/>
<path d="M0 0 C1.32 0.66 2.64 1.32 4 2 C1.03 2.99 -1.94 3.98 -5 5 C-5 5.66 -5 6.32 -5 7 C-6.25103516 7.18369141 -6.25103516 7.18369141 -7.52734375 7.37109375 C-11.94387714 8.17093838 -16.21410159 9.38584283 -20.52148438 10.62695312 C-24.10698814 11.62272375 -27.27650242 12.22155168 -31 12 C-30.67 11.34 -30.34 10.68 -30 10 C-27.41581058 9.33892829 -24.86241999 8.7728763 -22.25 8.25 C-15.05475461 6.72362077 -9.13044421 4.48533605 -2.63671875 0.9765625 C-1.76660156 0.65429688 -0.89648438 0.33203125 0 0 Z " fill="#A54EE9" transform="translate(348,373)"/>
<path d="M0 0 C8.58 0 17.16 0 26 0 C26.33 1.65 26.66 3.3 27 5 C26.34 5.66 25.68 6.32 25 7 C25 5.02 25 3.04 25 1 C17.41 1.33 9.82 1.66 2 2 C0.68 4.64 -0.64 7.28 -2 10 C-2.33 10 -2.66 10 -3 10 C-3 8.35 -3 6.7 -3 5 C-2.34 5 -1.68 5 -1 5 C-0.67 3.35 -0.34 1.7 0 0 Z " fill="#6A3CC8" transform="translate(178,139)"/>
<path d="M0 0 C0.33 0 0.66 0 1 0 C1.75475351 8.35619957 2.13605482 16.60995285 2 25 C1.67 25 1.34 25 1 25 C0.34 19.39 -0.32 13.78 -1 8 C-1.33 8.99 -1.66 9.98 -2 11 C-2.66 11 -3.32 11 -4 11 C-3.5247412 9.35303396 -3.04468109 7.70745272 -2.5625 6.0625 C-2.29566406 5.14597656 -2.02882812 4.22945312 -1.75390625 3.28515625 C-1 1 -1 1 0 0 Z " fill="#794FC6" transform="translate(183,178)"/>
<path d="M0 0 C2.475 0.99 2.475 0.99 5 2 C4.25 3.9375 4.25 3.9375 3 6 C2.3915625 6.144375 1.783125 6.28875 1.15625 6.4375 C-1.46895051 7.12233492 -2.74893223 8.25384259 -4.75 10.0625 C-5.36359375 10.61035156 -5.9771875 11.15820312 -6.609375 11.72265625 C-7.06828125 12.14417969 -7.5271875 12.56570313 -8 13 C-8.66 12.67 -9.32 12.34 -10 12 C-9.52949219 11.63648438 -9.05898438 11.27296875 -8.57421875 10.8984375 C-4.52807056 7.63136132 -1.99716574 4.93417419 0 0 Z " fill="#9330DF" transform="translate(363,358)"/>
<path d="M0 0 C5.04105044 0.48010004 7.95912956 1.99084116 12 5 C12.9075 5.639375 13.815 6.27875 14.75 6.9375 C17.19000435 9.17417065 18.04243963 10.86616606 19 14 C17.66102417 13.04956626 16.32894573 12.08940853 15 11.125 C14.2575 10.59132812 13.515 10.05765625 12.75 9.5078125 C12.1725 9.01023438 11.595 8.51265625 11 8 C11 7.34 11 6.68 11 6 C10.34 6 9.68 6 9 6 C9 5.34 9 4.68 9 4 C8.443125 3.87625 7.88625 3.7525 7.3125 3.625 C4.77885636 2.94023145 2.42078968 2.00866237 0 1 C0 0.67 0 0.34 0 0 Z " fill="#7C42D0" transform="translate(294,163)"/>
<path d="M0 0 C-3.36651805 2.24434537 -4.21596988 2.20138902 -8.10546875 1.9765625 C-9.57983398 1.89921875 -9.57983398 1.89921875 -11.08398438 1.8203125 C-12.10814453 1.75585938 -13.13230469 1.69140625 -14.1875 1.625 C-15.22326172 1.56828125 -16.25902344 1.5115625 -17.32617188 1.453125 C-19.88481271 1.31163334 -22.44247484 1.16022134 -25 1 C-25 0.67 -25 0.34 -25 0 C-21.58382503 -0.1972935 -18.16705407 -0.38112295 -14.75 -0.5625 C-13.29787109 -0.64661133 -13.29787109 -0.64661133 -11.81640625 -0.73242188 C-10.88183594 -0.78076172 -9.94726562 -0.82910156 -8.984375 -0.87890625 C-8.12553711 -0.9260376 -7.26669922 -0.97316895 -6.38183594 -1.02172852 C-4.07335735 -1.00066921 -2.20243733 -0.66206871 0 0 Z " fill="#EED2FC" transform="translate(289,245)"/>
<path d="M0 0 C0.33 0 0.66 0 1 0 C1.22786458 2.05078125 1.45572917 4.1015625 1.68359375 6.15234375 C1.81886614 8.01140229 1.81886614 8.01140229 3 9 C3.27314815 14.73611111 3.27314815 14.73611111 3 17 C2.34 17.66 1.68 18.32 1 19 C-0.65497356 15.69005287 -0.10084335 12.00877 -0.0625 8.375 C-0.05798828 7.57320312 -0.05347656 6.77140625 -0.04882812 5.9453125 C-0.03703168 3.96350994 -0.01909605 1.98174567 0 0 Z " fill="#7C45E0" transform="translate(183,195)"/>
<path d="M0 0 C3.15996703 4.73995055 3.13305776 9.41157419 3 15 C2.01 14.67 1.02 14.34 0 14 C-0.19456705 12.04235617 -0.38044247 10.08384679 -0.5625 8.125 C-0.66691406 7.03445312 -0.77132812 5.94390625 -0.87890625 4.8203125 C-1 2 -1 2 0 0 Z " fill="#7C4AE1" transform="translate(204,144)"/>
<path d="M0 0 C1.21386936 3.64160808 0.6674695 4.33165469 -0.9375 7.6875 C-1.31777344 8.49574219 -1.69804687 9.30398437 -2.08984375 10.13671875 C-2.39019531 10.75160156 -2.69054687 11.36648437 -3 12 C-3.66 12 -4.32 12 -5 12 C-6.4606285 9.35261084 -7 8.10551666 -7 5 C-6.34 5 -5.68 5 -5 5 C-4.67 5.66 -4.34 6.32 -4 7 C-3.67 6.01 -3.34 5.02 -3 4 C-2.34 4 -1.68 4 -1 4 C-0.67 2.68 -0.34 1.36 0 0 Z " fill="#7245CA" transform="translate(148,205)"/>
<path d="M0 0 C1.32 0.33 2.64 0.66 4 1 C-3.11389522 9.81548975 -3.11389522 9.81548975 -8 11 C-8 10.34 -8 9.68 -8 9 C-7.01 9 -6.02 9 -5 9 C-5 8.34 -5 7.68 -5 7 C-4.360625 6.54625 -3.72125 6.0925 -3.0625 5.625 C-0.7323843 3.78915127 -0.39598702 2.87090587 0 0 Z " fill="#7E3BD1" transform="translate(309,228)"/>
<path d="M0 0 C3.73678306 4.71159603 4.11284843 8.01903338 4 14 C1.3184721 10.92307254 0.57912193 8.80265337 0.3125 4.75 C0.24675781 3.85796875 0.18101562 2.9659375 0.11328125 2.046875 C0.07589844 1.37140625 0.03851563 0.6959375 0 0 Z " fill="#7F37DA" transform="translate(343,179)"/>
<path d="M0 0 C-4.455 1.485 -4.455 1.485 -9 3 C-9 3.66 -9 4.32 -9 5 C-9.99 4.67 -10.98 4.34 -12 4 C-12 3.34 -12 2.68 -12 2 C-10.76115681 1.27232997 -9.50831659 0.56845185 -8.25 -0.125 C-7.55390625 -0.51945312 -6.8578125 -0.91390625 -6.140625 -1.3203125 C-4 -2 -4 -2 0 0 Z " fill="#9C3FE4" transform="translate(352,375)"/>
<path d="M0 0 C4.55015893 1.51671964 6.50057264 5.16891053 9 9 C5.55862568 7.4705003 2.7777867 5.54630448 0 3 C0 2.01 0 1.02 0 0 Z " fill="#7137D4" transform="translate(51,356)"/>
<path d="M0 0 C0.66 0 1.32 0 2 0 C5.07692308 6.4 5.07692308 6.4 4.6875 9.4375 C4.460625 9.953125 4.23375 10.46875 4 11 C1 5.25 1 5.25 1 3 C0.34 2.67 -0.32 2.34 -1 2 C-0.67 1.34 -0.34 0.68 0 0 Z " fill="#6E37D6" transform="translate(36,331)"/>
<path d="M0 0 C0.33 0 0.66 0 1 0 C1.25 5.625 1.25 5.625 -1 9 C-1.66 9 -2.32 9 -3 9 C-2.44271087 5.65626525 -1.64826111 2.96687001 0 0 Z " fill="#7643D4" transform="translate(170,207)"/>
<path d="M0 0 C0.66 0 1.32 0 2 0 C0.84414715 3.91211733 -0.35534962 6.8745041 -3 10 C-3 8.35 -3 6.7 -3 5 C-2.34 5 -1.68 5 -1 5 C-0.67 3.35 -0.34 1.7 0 0 Z " fill="#6E3FD4" transform="translate(178,139)"/>
<path d="M0 0 C2.31 0.33 4.62 0.66 7 1 C7 1.33 7 1.66 7 2 C4.69 1.67 2.38 1.34 0 1 C0 0.67 0 0.34 0 0 Z " fill="#8547E1" transform="translate(86,383)"/>
<path d="M0 0 C0.33 0 0.66 0 1 0 C1 2.31 1 4.62 1 7 C0.67 7 0.34 7 0 7 C0 4.69 0 2.38 0 0 Z " fill="#8246F1" transform="translate(29,316)"/>
<path d="M0 0 C2.31 0 4.62 0 7 0 C7 0.33 7 0.66 7 1 C4.69 1 2.38 1 0 1 C0 0.67 0 0.34 0 0 Z " fill="#613EF1" transform="translate(95,16)"/>
<path d="M0 0 C0.33 0 0.66 0 1 0 C1 1.98 1 3.96 1 6 C0.67 6 0.34 6 0 6 C0 4.02 0 2.04 0 0 Z " fill="#923AD7" transform="translate(389,315)"/>
<path d="M0 0 C0.33 0 0.66 0 1 0 C1 1.98 1 3.96 1 6 C0.67 6 0.34 6 0 6 C0 4.02 0 2.04 0 0 Z " fill="#7839D2" transform="translate(389,83)"/>
<path d="M0 0 C0.33 0 0.66 0 1 0 C1 1.65 1 3.3 1 5 C0.67 5 0.34 5 0 5 C0 3.35 0 1.7 0 0 Z " fill="#7A3BD8" transform="translate(388,78)"/>
<path d="M0 0 C1.32 0.33 2.64 0.66 4 1 C3.01 1.33 2.02 1.66 1 2 C0.67 1.34 0.34 0.68 0 0 Z " fill="#583CDC" transform="translate(60,31)"/>
<path d="M0 0 C4 1 4 1 4 1 Z " fill="#9D4ADF" transform="translate(323,385)"/>
<path d="M0 0 C4 1 4 1 4 1 Z " fill="#8C52DE" transform="translate(93,385)"/>
<path d="M0 0 C4 1 4 1 4 1 Z " fill="#9841DF" transform="translate(330,383)"/>
<path d="M0 0 C0.33 0.66 0.66 1.32 1 2 C0.01 1.67 -0.98 1.34 -2 1 C-1.34 0.67 -0.68 0.34 0 0 Z " fill="#9132DE" transform="translate(355,371)"/>
<path d="M0 0 C0.66 0.33 1.32 0.66 2 1 C1.01 1 0.02 1 -1 1 C-0.67 0.67 -0.34 0.34 0 0 Z " fill="#8F2DDC" transform="translate(363,364)"/>
<path d="M0 0 C1 4 1 4 1 4 Z " fill="#973DDE" transform="translate(388,321)"/>
<path d="M0 0 C1 4 1 4 1 4 Z " fill="#5E3EEB" transform="translate(30,78)"/>
<path d="M0 0 C0.99 0.33 1.98 0.66 3 1 C2.01 1.33 1.02 1.66 0 2 C0 1.34 0 0.68 0 0 Z " fill="#593CDA" transform="translate(70,25)"/>
<path d="M0 0 C4 1 4 1 4 1 Z " fill="#733AE1" transform="translate(324,17)"/>
<path d="M0 0 C4 1 4 1 4 1 Z " fill="#6040E7" transform="translate(91,17)"/>
<path d="M0 0 C3 1 3 1 3 1 Z " fill="#9941E2" transform="translate(327,384)"/>
<path d="M0 0 C3 1 3 1 3 1 Z " fill="#9B43E2" transform="translate(334,382)"/>
<path d="M0 0 C3 1 3 1 3 1 Z " fill="#8042DF" transform="translate(83,382)"/>
<path d="M0 0 C3 1 3 1 3 1 Z " fill="#8245DE" transform="translate(80,381)"/>
<path d="M0 0 C0.33 0.66 0.66 1.32 1 2 C0.34 1.67 -0.32 1.34 -1 1 C-0.67 0.67 -0.34 0.34 0 0 Z " fill="#8E2CDC" transform="translate(369,358)"/>
<path d="M0 0 C0.33 0.66 0.66 1.32 1 2 C0.34 1.67 -0.32 1.34 -1 1 C-0.67 0.67 -0.34 0.34 0 0 Z " fill="#7A40E7" transform="translate(34,334)"/>
<path d="" fill="#953ADE" transform="translate(0,0)"/>
<path d="M0 0 C0.66 0 1.32 0 2 0 C1.67 0.66 1.34 1.32 1 2 C0.67 1.34 0.34 0.68 0 0 Z " fill="#5A3CDC" transform="translate(34,64)"/>
<path d="M0 0 C0.33 0.66 0.66 1.32 1 2 C0.34 1.67 -0.32 1.34 -1 1 C-0.67 0.67 -0.34 0.34 0 0 Z " fill="#7137DB" transform="translate(350,26)"/>
<path d="M0 0 C0.33 0.66 0.66 1.32 1 2 C0.34 1.67 -0.32 1.34 -1 1 C-0.67 0.67 -0.34 0.34 0 0 Z " fill="#7036DF" transform="translate(343,22)"/>
<path d="M0 0 C3 1 3 1 3 1 Z " fill="#5A3DD7" transform="translate(79,21)"/>
<path d="M0 0 C3 1 3 1 3 1 Z " fill="#6C38D1" transform="translate(331,19)"/>
<path d="M0 0 C2 1 2 1 2 1 Z " fill="#9B42E1" transform="translate(337,381)"/>
<path d="M0 0 C2 1 2 1 2 1 Z " fill="#973DDF" transform="translate(339,380)"/>
<path d="M0 0 C2 1 2 1 2 1 Z " fill="#8146DF" transform="translate(78,380)"/>
<path d="M0 0 C2 1 2 1 2 1 Z " fill="#7D41DD" transform="translate(76,379)"/>
<path d="M0 0 C2 1 2 1 2 1 Z " fill="#9539DF" transform="translate(343,378)"/>
<path d="M0 0 C2 1 2 1 2 1 Z " fill="#7C3DDC" transform="translate(74,378)"/>
<path d="M0 0 C2 1 2 1 2 1 Z " fill="#9436DF" transform="translate(345,377)"/>
<path d="M0 0 C2 1 2 1 2 1 Z " fill="#9336DE" transform="translate(347,376)"/>
<path d="M0 0 C2 1 2 1 2 1 Z " fill="#7B3FDC" transform="translate(67,374)"/>
<path d="M0 0 C2 1 2 1 2 1 Z " fill="#7E43DC" transform="translate(65,373)"/>
<path d="M0 0 C2 1 2 1 2 1 Z " fill="#9131DE" transform="translate(356,370)"/>
<path d="" fill="#9235DD" transform="translate(0,0)"/>
<path d="" fill="#762CEF" transform="translate(0,0)"/>
<path d="" fill="#5A3ED4" transform="translate(0,0)"/>
<path d="" fill="#772DF3" transform="translate(0,0)"/>
<path d="" fill="#563BD5" transform="translate(0,0)"/>
<path d="" fill="#563BCE" transform="translate(0,0)"/>
<path d="" fill="#583DD5" transform="translate(0,0)"/>
<path d="M0 0 C2 1 2 1 2 1 Z " fill="#573CD4" transform="translate(58,34)"/>
<path d="M0 0 C2 1 2 1 2 1 Z " fill="#6E36D5" transform="translate(355,31)"/>
<path d="M0 0 C2 1 2 1 2 1 Z " fill="#6F37D6" transform="translate(352,29)"/>
<path d="M0 0 C2 1 2 1 2 1 Z " fill="#563BD2" transform="translate(66,28)"/>
<path d="M0 0 C2 1 2 1 2 1 Z " fill="#703AD4" transform="translate(346,25)"/>
<path d="M0 0 C2 1 2 1 2 1 Z " fill="#6F38D7" transform="translate(344,24)"/>
<path d="M0 0 C2 1 2 1 2 1 Z " fill="#593DD7" transform="translate(73,24)"/>
<path d="M0 0 C2 1 2 1 2 1 Z " fill="#593ED2" transform="translate(75,23)"/>
<path d="M0 0 C2 1 2 1 2 1 Z " fill="#6F38D8" transform="translate(340,22)"/>
<path d="M0 0 C2 1 2 1 2 1 Z " fill="#5C40DC" transform="translate(77,22)"/>
<path d="M0 0 C2 1 2 1 2 1 Z " fill="#6E39D3" transform="translate(337,21)"/>
<path d="M0 0 C2 1 2 1 2 1 Z " fill="#6D36D9" transform="translate(335,20)"/>
<path d="M0 0 C2 1 2 1 2 1 Z " fill="#5E42E1" transform="translate(82,20)"/>
<path d="" fill="#8224EC" transform="translate(0,0)"/>
<path d="" fill="#7D22E2" transform="translate(0,0)"/>
<path d="" fill="#841DE2" transform="translate(0,0)"/>
<path d="" fill="#891EEC" transform="translate(0,0)"/>
<path d="" fill="#7D2DF5" transform="translate(0,0)"/>
<path d="" fill="#8E1FF6" transform="translate(0,0)"/>
<path d="" fill="#8E1FF6" transform="translate(0,0)"/>
<path d="" fill="#7E2FF8" transform="translate(0,0)"/>
<path d="" fill="#8C1EEF" transform="translate(0,0)"/>
<path d="" fill="#8F1EF4" transform="translate(0,0)"/>
<path d="" fill="#8E1EF3" transform="translate(0,0)"/>
<path d="" fill="#8237F9" transform="translate(0,0)"/>
<path d="" fill="#A039F9" transform="translate(0,0)"/>
<path d="" fill="#7B3EDC" transform="translate(0,0)"/>
<path d="" fill="#6F2BE1" transform="translate(0,0)"/>
<path d="" fill="#841CE2" transform="translate(0,0)"/>
<path d="" fill="#902FDE" transform="translate(0,0)"/>
<path d="" fill="#7F45DD" transform="translate(0,0)"/>
<path d="" fill="#9030DD" transform="translate(0,0)"/>
<path d="" fill="#8148DE" transform="translate(0,0)"/>
<path d="" fill="#902FDE" transform="translate(0,0)"/>
<path d="" fill="#8047DC" transform="translate(0,0)"/>
<path d="" fill="#9130DF" transform="translate(0,0)"/>
<path d="" fill="#6E2CE1" transform="translate(0,0)"/>
<path d="" fill="#912FDF" transform="translate(0,0)"/>
<path d="" fill="#793EDE" transform="translate(0,0)"/>
<path d="" fill="#742FF1" transform="translate(0,0)"/>
<path d="" fill="#6D2CE1" transform="translate(0,0)"/>
<path d="" fill="#9231DE" transform="translate(0,0)"/>
<path d="" fill="#9433DF" transform="translate(0,0)"/>
<path d="" fill="#7B44DB" transform="translate(0,0)"/>
<path d="" fill="#9332DF" transform="translate(0,0)"/>
<path d="" fill="#7A41DC" transform="translate(0,0)"/>
<path d="" fill="#9E43E4" transform="translate(0,0)"/>
<path d="" fill="#9230DE" transform="translate(0,0)"/>
<path d="" fill="#7943DC" transform="translate(0,0)"/>
<path d="" fill="#732FF0" transform="translate(0,0)"/>
<path d="" fill="#9638DF" transform="translate(0,0)"/>
<path d="" fill="#7F39F8" transform="translate(0,0)"/>
<path d="" fill="#7430F4" transform="translate(0,0)"/>
<path d="" fill="#7330F3" transform="translate(0,0)"/>
<path d="" fill="#9726F9" transform="translate(0,0)"/>
<path d="" fill="#8E1EF6" transform="translate(0,0)"/>
<path d="" fill="#6E30E9" transform="translate(0,0)"/>
<path d="" fill="#6A2EDF" transform="translate(0,0)"/>
<path d="" fill="#6B31DF" transform="translate(0,0)"/>
<path d="" fill="#7034E9" transform="translate(0,0)"/>
<path d="" fill="#7034E9" transform="translate(0,0)"/>
<path d="" fill="#6C34DF" transform="translate(0,0)"/>
<path d="" fill="#5D38F0" transform="translate(0,0)"/>
<path d="" fill="#5C38F2" transform="translate(0,0)"/>
<path d="" fill="#792DF5" transform="translate(0,0)"/>
<path d="" fill="#792DF5" transform="translate(0,0)"/>
<path d="" fill="#752CEF" transform="translate(0,0)"/>
<path d="" fill="#742BEB" transform="translate(0,0)"/>
<path d="" fill="#5937F0" transform="translate(0,0)"/>
<path d="" fill="#5A37F2" transform="translate(0,0)"/>
<path d="" fill="#7436D7" transform="translate(0,0)"/>
<path d="" fill="#5333DF" transform="translate(0,0)"/>
<path d="" fill="#772DF4" transform="translate(0,0)"/>
<path d="" fill="#573ED1" transform="translate(0,0)"/>
<path d="" fill="#583FD1" transform="translate(0,0)"/>
<path d="" fill="#7234D6" transform="translate(0,0)"/>
<path d="" fill="#563ECF" transform="translate(0,0)"/>
<path d="" fill="#5333E0" transform="translate(0,0)"/>
<path d="" fill="#583FD2" transform="translate(0,0)"/>
<path d="" fill="#5A37F2" transform="translate(0,0)"/>
<path d="" fill="#712CEB" transform="translate(0,0)"/>
<path d="" fill="#7136D6" transform="translate(0,0)"/>
<path d="" fill="#583FD1" transform="translate(0,0)"/>
<path d="" fill="#7136D5" transform="translate(0,0)"/>
<path d="" fill="#583ED0" transform="translate(0,0)"/>
<path d="" fill="#7035D5" transform="translate(0,0)"/>
<path d="" fill="#573DCF" transform="translate(0,0)"/>
<path d="" fill="#7035D6" transform="translate(0,0)"/>
<path d="" fill="#573DD0" transform="translate(0,0)"/>
<path d="" fill="#752EF5" transform="translate(0,0)"/>
<path d="" fill="#7034D6" transform="translate(0,0)"/>
<path d="" fill="#583FD0" transform="translate(0,0)"/>
<path d="" fill="#5A37F2" transform="translate(0,0)"/>
<path d="" fill="#593FD1" transform="translate(0,0)"/>
<path d="" fill="#5A36F4" transform="translate(0,0)"/>
<path d="" fill="#593FD3" transform="translate(0,0)"/>
<path d="" fill="#583ED4" transform="translate(0,0)"/>
<path d="" fill="#5A37F1" transform="translate(0,0)"/>
<path d="" fill="#5636E9" transform="translate(0,0)"/>
<path d="" fill="#6E35D6" transform="translate(0,0)"/>
<path d="" fill="#5636E9" transform="translate(0,0)"/>
<path d="" fill="#6E36D6" transform="translate(0,0)"/>
<path d="" fill="#563DD0" transform="translate(0,0)"/>
<path d="" fill="#6F37D6" transform="translate(0,0)"/>
<path d="" fill="#6E36D6" transform="translate(0,0)"/>
<path d="" fill="#573DD1" transform="translate(0,0)"/>
<path d="" fill="#583ED4" transform="translate(0,0)"/>
<path d="" fill="#6F37D4" transform="translate(0,0)"/>
<path d="" fill="#7433E9" transform="translate(0,0)"/>
<path d="" fill="#593ED4" transform="translate(0,0)"/>
<path d="" fill="#713BD6" transform="translate(0,0)"/>
<path d="" fill="#7230F3" transform="translate(0,0)"/>
<path d="" fill="#7130F2" transform="translate(0,0)"/>
<path d="" fill="#5333DF" transform="translate(0,0)"/>
<path d="" fill="#5A37F2" transform="translate(0,0)"/>
<path d="" fill="#7030F2" transform="translate(0,0)"/>
<path d="" fill="#5735E9" transform="translate(0,0)"/>
<path d="" fill="#7030F2" transform="translate(0,0)"/>
<path d="" fill="#7130F3" transform="translate(0,0)"/>
<path d="" fill="#5836ED" transform="translate(0,0)"/>
</svg>
