<?xml version="1.0" encoding="UTF-8"?>
<svg version="1.1" xmlns="http://www.w3.org/2000/svg" width="1058" height="1008">
<path d="M0 0 C349.14 0 698.28 0 1058 0 C1058 332.64 1058 665.28 1058 1008 C708.86 1008 359.72 1008 0 1008 C0 675.36 0 342.72 0 0 Z " fill="#FDFDFD" transform="translate(0,0)"/>
<path d="M0 0 C1.81589378 -0.01441132 1.81589378 -0.01441132 3.66847229 -0.02911377 C5.63069984 -0.03548859 5.63069984 -0.03548859 7.63256836 -0.04199219 C8.64894284 -0.04623325 8.64894284 -0.04623325 9.68585014 -0.05056 C13.29724384 -0.06555893 16.90859778 -0.07477426 20.52001953 -0.07910156 C23.44723415 -0.08342277 26.37414339 -0.09705981 29.30126953 -0.12011719 C82.58093286 -0.53129344 82.58093286 -0.53129344 107.22241211 7.59863281 C108.19791016 7.90510742 108.19791016 7.90510742 109.19311523 8.21777344 C113.55400031 9.6162191 117.71232403 11.33888575 121.90991211 13.16113281 C123.50599957 13.72616226 125.10922673 14.27194763 126.72241211 14.78613281 C128.89312359 15.48105938 130.87043619 16.14139485 132.90991211 17.16113281 C132.90991211 17.82113281 132.90991211 18.48113281 132.90991211 19.16113281 C133.75553711 19.24363281 134.60116211 19.32613281 135.47241211 19.41113281 C139.63104702 20.31847134 142.3057391 21.92654555 145.90991211 24.16113281 C145.90991211 24.82113281 145.90991211 25.48113281 145.90991211 26.16113281 C146.74522461 26.31582031 146.74522461 26.31582031 147.59741211 26.47363281 C150.38682221 27.3029169 152.52381851 28.50412337 154.90991211 30.16113281 C154.90991211 30.82113281 154.90991211 31.48113281 154.90991211 32.16113281 C155.63178711 32.42925781 156.35366211 32.69738281 157.09741211 32.97363281 C162.80534378 35.38364841 166.13819266 38.30364008 170.06616211 43.02832031 C171.94866637 45.25979428 171.94866637 45.25979428 174.32788086 47.56738281 C176.95001158 50.20141428 179.34812387 52.92753702 181.72241211 55.78613281 C182.51260742 56.72714844 183.30280273 57.66816406 184.11694336 58.63769531 C185.90991211 61.16113281 185.90991211 61.16113281 185.90991211 64.16113281 C186.56991211 64.16113281 187.22991211 64.16113281 187.90991211 64.16113281 C191.90991211 70.78613281 191.90991211 70.78613281 191.90991211 74.16113281 C192.56991211 74.16113281 193.22991211 74.16113281 193.90991211 74.16113281 C194.23991211 75.81113281 194.56991211 77.46113281 194.90991211 79.16113281 C195.56991211 79.16113281 196.22991211 79.16113281 196.90991211 79.16113281 C204.40031278 96.31472213 204.40031278 96.31472213 203.90991211 104.16113281 C204.89991211 104.49113281 205.88991211 104.82113281 206.90991211 105.16113281 C206.99031738 105.71986084 207.07072266 106.27858887 207.15356445 106.85424805 C207.52717771 109.43623011 207.90601856 112.01742053 208.28491211 114.59863281 C208.4744043 115.91637695 208.4744043 115.91637695 208.66772461 117.26074219 C208.86108398 118.57075195 208.86108398 118.57075195 209.05834961 119.90722656 C209.17355957 120.69798584 209.28876953 121.48874512 209.4074707 122.3034668 C209.68935774 123.90671641 209.99805785 125.50760216 210.39941406 127.08518982 C211.97545759 133.36198007 212.20094411 139.31255857 212.17553711 145.76660156 C212.17745056 146.84943924 212.17936401 147.93227692 212.18133545 149.04792786 C212.18268923 151.32288853 212.17904953 153.59785715 212.1706543 155.87280273 C212.15991207 159.34864628 212.17059338 162.8239767 212.18334961 166.29980469 C212.18202848 168.51790478 212.17946706 170.73600456 212.17553711 172.95410156 C212.17958557 173.98858932 212.18363403 175.02307709 212.18780518 176.08891296 C212.15460217 181.20570258 211.87172072 185.35470172 209.90991211 190.16113281 C209.77320105 191.67809971 209.69083192 193.20083196 209.65991211 194.72363281 C208.10352304 215.04006873 198.56292268 234.60064517 188.90991211 252.16113281 C188.24991211 252.16113281 187.58991211 252.16113281 186.90991211 252.16113281 C186.64823242 252.71929688 186.38655273 253.27746094 186.11694336 253.85253906 C176.635733 271.98650451 155.89502064 290.68215066 136.90991211 298.16113281 C135.15397211 299.06636896 133.40441781 299.98405264 131.65991211 300.91113281 C120.19830388 306.69140133 103.93649748 314.21734244 90.90991211 313.16113281 C90.90991211 313.82113281 90.90991211 314.48113281 90.90991211 315.16113281 C66.82470719 319.9526192 42.88506577 320.56323835 18.40820312 320.58666992 C14.95964786 320.59097219 11.51184113 320.61183286 8.06347656 320.64819336 C-39.82284083 321.14379771 -39.82284083 321.14379771 -58.09008789 313.16113281 C-59.09008789 312.16113281 -59.09008789 312.16113281 -59.21428639 310.08767742 C-59.21390667 309.1645773 -59.21352695 308.24147717 -59.21313572 307.29040432 C-59.21512677 306.22946102 -59.21711782 305.16851771 -59.2191692 304.07542461 C-59.21625636 302.89548917 -59.21334352 301.71555373 -59.21034241 300.49986267 C-59.21119683 299.25760833 -59.21205126 298.01535399 -59.21293157 296.73545557 C-59.21429983 293.27161565 -59.21115209 289.80783152 -59.20615351 286.34399831 C-59.20185253 282.61460135 -59.20329518 278.88520624 -59.20405579 275.1558075 C-59.20458125 268.6891482 -59.20143216 262.22249897 -59.19581795 255.75584221 C-59.18770591 246.40603431 -59.18508803 237.05623129 -59.18382996 227.70642025 C-59.18163897 212.53857103 -59.17497762 197.37072717 -59.16552734 182.20288086 C-59.15635443 167.4649254 -59.14927301 152.7269714 -59.14501953 137.98901367 C-59.14475681 137.08122974 -59.14449408 136.17344581 -59.1442234 135.23815327 C-59.1429184 130.68426625 -59.14165469 126.13037923 -59.1404115 121.57649219 C-59.13003743 83.77136861 -59.11241785 45.96625113 -59.09008789 8.16113281 C-57.52517272 7.49920192 -55.95645641 6.84625372 -54.38623047 6.19702148 C-53.51307693 5.83243332 -52.6399234 5.46784515 -51.74031067 5.09220886 C-47.75763148 3.69301434 -43.96550573 3.52746209 -39.77758789 3.47363281 C-38.23973663 3.43123591 -36.7019669 3.38574962 -35.16430664 3.33691406 C-34.45000488 3.31516113 -33.73570312 3.2934082 -32.99975586 3.27099609 C-30.635202 3.13496321 -28.40538975 2.64954593 -26.09008789 2.16113281 C-22.29003493 1.86373736 -18.48946195 1.65549776 -14.68383789 1.44238281 C-11.27877531 1.25708047 -11.27877531 1.25708047 -8.74610901 0.65362549 C-5.7815623 0.10392446 -3.01510422 0.01943721 0 0 Z " fill="#41107D" transform="translate(658.090087890625,350.8388671875)"/>
<path d="M0 0 C19.8 0 39.6 0 60 0 C62 4 62 4 62 7 C62.66 7 63.32 7 64 7 C64.84069415 8.60032137 65.67231505 10.20541171 66.5 11.8125 C67.19609375 13.15248047 67.19609375 13.15248047 67.90625 14.51953125 C69 17 69 17 69 20 C69.66 20 70.32 20 71 20 C71 20.99 71 21.98 71 23 C71.66 23 72.32 23 73 23 C73.34611328 23.78310547 73.34611328 23.78310547 73.69921875 24.58203125 C74.02535156 25.31808594 74.35148437 26.05414063 74.6875 26.8125 C75.22697266 28.03066406 75.22697266 28.03066406 75.77734375 29.2734375 C76.63229775 31.18001224 77.50060645 33.08062921 78.37890625 34.9765625 C78.83136719 35.95367187 79.28382813 36.93078125 79.75 37.9375 C80.17796875 38.85402344 80.6059375 39.77054687 81.046875 40.71484375 C82 43 82 43 82 45 C82.66 45 83.32 45 84 45 C84.31453125 45.7734375 84.6290625 46.546875 84.953125 47.34375 C85.38109375 48.3853125 85.8090625 49.426875 86.25 50.5 C86.66765625 51.5209375 87.0853125 52.541875 87.515625 53.59375 C89.79839466 58.83210565 92.4260163 63.88349031 95.03515625 68.96484375 C101.38978023 81.37727601 101.38978023 81.37727601 103.359375 87.98046875 C104.85131368 92.68371447 106.91563518 97.23790717 109.5 101.4375 C112.54529144 106.63987288 115 111.93822792 115 118 C115.66 118 116.32 118 117 118 C117.33 119.98 117.66 121.96 118 124 C118.66 124 119.32 124 120 124 C120.25394531 124.66386719 120.50789062 125.32773437 120.76953125 126.01171875 C122.85520763 131.43686954 122.85520763 131.43686954 125.5625 136.5625 C128.41740559 141.40342687 130 146.39038939 130 152 C130.66 152 131.32 152 132 152 C132 152.99 132 153.98 132 155 C132.66 155 133.32 155 134 155 C134.36351562 156.08796875 134.72703125 157.1759375 135.1015625 158.296875 C137.80608309 166.25150758 140.68666313 173.8161495 144.6171875 181.265625 C146.40181569 184.7945508 147.79032655 188.42339802 149.140625 192.13671875 C149.85020281 194.18547752 149.85020281 194.18547752 152 195 C153.32 192.03 154.64 189.06 156 186 C156.66 186 157.32 186 158 186 C158.061875 184.9275 158.12375 183.855 158.1875 182.75 C158.8982965 176.76207797 161.53981622 171.44690136 164 166 C164.66 166 165.32 166 166 166 C166.0825 165.175 166.165 164.35 166.25 163.5 C167.02147655 159.89977611 168.24884364 157.30497697 169.95703125 154.0859375 C171.28975846 151.42048309 172.25191162 148.68369425 173.19140625 145.859375 C174 144 174 144 175.46484375 142.06640625 C177.12162045 139.83629207 178.01977654 137.78100791 179 135.1875 C180.32103256 131.75780037 181.6993047 128.37592542 183.171875 125.0078125 C183.82132451 123.43320378 184.42700033 121.84052986 185.015625 120.2421875 C188.12227764 111.81280334 191.91002343 103.90521942 196.00878906 95.9296875 C199.01898095 90.06945187 201.75664871 84.27770633 204.0703125 78.1015625 C205 76 205 76 207 74 C207.73339605 72.13317369 208.45992412 70.26308349 209.13671875 68.375 C210.65116152 64.20856921 212.34067525 60.11040851 214 56 C214.66 56 215.32 56 216 56 C216.08765625 55.18144531 216.1753125 54.36289062 216.265625 53.51953125 C217.16621761 49.20339327 218.82621303 45.63242537 220.75 41.6875 C221.11053467 40.9356543 221.47106934 40.18380859 221.8425293 39.40917969 C224.82989934 33.22988931 228.01144467 27.21228168 231.625 21.375 C233.09806092 18.93981776 233.09806092 18.93981776 234.3125 15.9375 C236.6359248 10.51617547 239.36223343 5.27553315 242 0 C261.14 0 280.28 0 300 0 C300.66 5.61 301.32 11.22 302 17 C302.33 17.99 302.66 18.98 303 20 C303.27489848 22.0698344 303.50838189 24.14527115 303.71875 26.22265625 C303.90945068 28.10247192 303.90945068 28.10247192 304.10400391 30.02026367 C304.23628043 31.36764854 304.36827408 32.7150612 304.5 34.0625 C304.56725281 34.73729401 304.63450562 35.41208801 304.70379639 36.10733032 C305.58963104 45.0132696 306.36278284 53.91177818 306.70898438 62.85766602 C306.82956665 65.81891672 307.05497241 68.16491723 308 71 C308.62025688 75.4647941 309.03954036 79.95371729 309.5 84.4375 C309.63019531 85.63955078 309.76039063 86.84160156 309.89453125 88.08007812 C310.64199141 95.28665105 311.15019754 102.45535725 311.46875 109.69140625 C311.88820783 119.11045352 312.76317173 128.44824533 313.72756958 137.8248291 C315.2763201 153.0330145 316.34062098 168.13177296 316.59912109 183.41516113 C316.81315259 195.73378558 317.52496207 207.96829164 318.5 220.25 C318.56607452 221.08873657 318.63214905 221.92747314 318.70022583 222.79162598 C318.89008273 225.17912292 319.08418028 227.56621326 319.28125 229.953125 C319.33852768 230.65050781 319.39580536 231.34789062 319.45481873 232.06640625 C319.74029013 235.41078177 320.08571644 238.73705964 320.52734375 242.0637207 C320.96893564 245.74129613 321.18440932 249.32653586 321.28125 253.02734375 C321.31863281 254.31447266 321.35601563 255.60160156 321.39453125 256.92773438 C321.43012106 258.26431144 321.46527469 259.60090019 321.5 260.9375 C321.56949057 263.57170719 321.64232535 266.20582861 321.71875 268.83984375 C321.74904297 269.99863037 321.77933594 271.15741699 321.81054688 272.35131836 C322.0301391 276.5804496 322.53234143 280.79107291 323 285 C323 294.9 323 304.8 323 315 C302.87 315 282.74 315 262 315 C261.5625 294.8125 261.5625 294.8125 261.43188477 288.46411133 C261.39374217 286.79507659 261.35527138 285.12604932 261.31640625 283.45703125 C261.29993042 282.59734741 261.28345459 281.73766357 261.26647949 280.85192871 C261.24629761 280.02012085 261.22611572 279.18831299 261.20532227 278.33129883 C261.18200584 277.25541252 261.18200584 277.25541252 261.15821838 276.15779114 C261.04135184 273.93600659 261.04135184 273.93600659 260.49900818 271.53973389 C259.99627412 268.98103692 259.84935012 266.63762649 259.81054688 264.03295898 C259.79382935 263.07103134 259.77711182 262.1091037 259.7598877 261.11802673 C259.73952454 259.57266991 259.73952454 259.57266991 259.71875 257.99609375 C259.70034058 256.92182632 259.68193115 255.8475589 259.66296387 254.74073792 C259.60433057 251.30637996 259.55153031 247.8719714 259.5 244.4375 C259.44828641 241.02802779 259.39512123 237.61861374 259.33703613 234.20924377 C259.3009628 232.09108963 259.26841402 229.97287124 259.2401123 227.854599 C259.13822435 221.85748018 258.76341764 215.94050241 258.22836304 209.96748352 C257.85645121 205.13464272 257.80559258 200.30608857 257.75390625 195.4609375 C257.72099399 193.31249552 257.68778194 191.16405812 257.65429688 189.015625 C257.60686736 185.68720335 257.56230966 182.35880364 257.52319336 179.03027344 C257.48324341 175.77782096 257.43179688 172.52570185 257.37890625 169.2734375 C257.36628502 167.79960098 257.36628502 167.79960098 257.35340881 166.29598999 C257.25507689 160.73281322 256.65172472 155.59371226 255.45420837 150.16073608 C254.92831364 147.65897743 254.71715063 145.24946386 254.65625 142.6953125 C254.61359009 141.33998413 254.61359009 141.33998413 254.57006836 139.95727539 C254.53538452 138.55529907 254.53538452 138.55529907 254.5 137.125 C254.21689217 128.58237783 253.63514913 120.13867998 252.66015625 111.64697266 C252.10855552 106.72748809 251.91550125 101.95162679 252 97 C248.57180539 99.28546307 248.39778953 100.03794408 247.1875 103.8125 C244.9178786 110.43944799 241.98841711 116.67204628 239 123 C238.20418112 124.72725962 237.41236012 126.45636814 236.625 128.1875 C236.22796875 129.06019531 235.8309375 129.93289063 235.421875 130.83203125 C234.27501335 133.3872642 233.14169576 135.94730996 232.015625 138.51171875 C231.66290527 139.31262939 231.31018555 140.11354004 230.94677734 140.9387207 C230.24628116 142.53103311 229.54856888 144.1245739 228.85400391 145.71948242 C227.1185967 149.66128686 225.23374375 153.31142603 223 157 C222.42855473 158.46036013 221.90449032 159.94046245 221.4375 161.4375 C221.19257813 162.20835937 220.94765625 162.97921875 220.6953125 163.7734375 C220.46585938 164.50820313 220.23640625 165.24296875 220 166 C219.33333333 168 218.66666667 170 218 172 C217.34 172 216.68 172 216 172 C216 173.32 216 174.64 216 176 C215.34 176 214.68 176 214 176 C214 177.32 214 178.64 214 180 C213.34 180 212.68 180 212 180 C212.04125 180.721875 212.0825 181.44375 212.125 182.1875 C211.99078695 185.20729369 211.24829381 187.26935729 210 190 C209.34 190 208.68 190 208 190 C207.896875 190.825 207.79375 191.65 207.6875 192.5 C206.64784113 197.7928088 205.1406326 202.33541827 202.078125 206.8046875 C199.89348928 210.16377024 198.49485423 213.38738868 197.0625 217.125 C196.54506303 218.45864097 196.02682371 219.79197089 195.5078125 221.125 C195.25418945 221.78113281 195.00056641 222.43726563 194.73925781 223.11328125 C193.68510931 225.80365761 192.56286797 228.46375247 191.4375 231.125 C188.81955781 237.36386222 186.39783031 243.67380939 184 250 C183.34 250 182.68 250 182 250 C181.34 253.3 180.68 256.6 180 260 C179.34 260 178.68 260 178 260 C178 260.99 178 261.98 178 263 C177.34 263 176.68 263 176 263 C176.061875 263.763125 176.12375 264.52625 176.1875 265.3125 C175.96487909 268.50339968 175.31697562 268.96106145 173 271 C172.67 271.99 172.34 272.98 172 274 C165.77038023 274.05059881 159.5408132 274.08569062 153.31103516 274.10986328 C151.1905723 274.11993751 149.07012339 274.13359733 146.94970703 274.15087891 C143.90654057 274.17506489 140.86355734 274.18646869 137.8203125 274.1953125 C136.39212692 274.21079636 136.39212692 274.21079636 134.93508911 274.22659302 C134.05432709 274.22674408 133.17356506 274.22689514 132.26611328 274.22705078 C131.48889923 274.231492 130.71168518 274.23593323 129.91091919 274.24050903 C128 274 128 274 126 272 C125.14849068 269.63083461 124.36740919 267.27774832 123.625 264.875 C122.05851309 259.98774574 120.39453916 255.33509284 117.9609375 250.80859375 C116.50659595 248.07135742 115.30118616 245.23267034 114.05859375 242.39453125 C112.94404815 239.87343733 111.78457191 237.37567425 110.625 234.875 C108.54852376 230.31578044 106.6189671 225.70957009 104.75 221.0625 C104.4917041 220.4236084 104.2334082 219.7847168 103.96728516 219.12646484 C102.76969823 216.11773712 101.66804695 213.17322301 101 210 C100.34 210 99.68 210 99 210 C98.32532438 208.25307205 97.66055844 206.50231475 97 204.75 C96.62875 203.77546875 96.2575 202.8009375 95.875 201.796875 C95 199 95 199 95 195 C94.34 195 93.68 195 93 195 C93 194.01 93 193.02 93 192 C92.34 192 91.68 192 91 192 C90.608125 190.906875 90.21625 189.81375 89.8125 188.6875 C88.53974723 185.27748314 87.09843859 181.98692364 85.5625 178.6875 C83.41190613 174.04402556 81.62724426 169.35510467 79.9921875 164.5078125 C78.918626 161.79432241 77.50888512 159.49427948 76 157 C75.1738894 155.13991871 74.38351608 153.26365414 73.625 151.375 C71.94109344 147.23156932 70.16120957 143.16836822 68.25 139.125 C66.53626828 135.41280997 65.33430749 132.12312571 65 128 C64.34 128 63.68 128 63 128 C63 127.01 63 126.02 63 125 C62.34 125 61.68 125 61 125 C57.57142857 117.71428571 57.57142857 117.71428571 58 113 C56.515 112.505 56.515 112.505 55 112 C54.34 108.7 53.68 105.4 53 102 C52.34 102 51.68 102 51 102 C50.505 98.535 50.505 98.535 50 95 C49.34 95 48.68 95 48 95 C48.01160156 96.2065625 48.02320313 97.413125 48.03515625 98.65625 C48.04454335 100.27083177 48.05364256 101.88541524 48.0625 103.5 C48.07087891 104.29148437 48.07925781 105.08296875 48.08789062 105.8984375 C48.09111328 106.68476563 48.09433594 107.47109375 48.09765625 108.28125 C48.10289307 108.99345703 48.10812988 109.70566406 48.11352539 110.43945312 C47.98764903 113.27857405 47.6083133 116.05906374 47.23927307 118.87512207 C46.85160765 122.31780657 46.76595003 125.75735437 46.68359375 129.21875 C46.6524221 130.33376892 46.6524221 130.33376892 46.62062073 131.47131348 C46.55594872 133.81412748 46.49662908 136.15704024 46.4375 138.5 C46.39423616 140.10157216 46.35061956 141.70313482 46.30664062 143.3046875 C46.20035364 147.20302733 46.09886206 151.1014651 46 155 C45.34 155 44.68 155 44 155 C44.01160156 156.093125 44.02320313 157.18625 44.03515625 158.3125 C44.10296524 167.8234939 43.94635753 177.30856633 43.5625 186.8125 C43.52326416 187.83150391 43.48402832 188.85050781 43.44360352 189.90039062 C43.40162842 190.86783203 43.35965332 191.83527344 43.31640625 192.83203125 C43.27974854 193.68514893 43.24309082 194.5382666 43.20532227 195.41723633 C43 198 43 198 42.49780273 200.88232422 C41.95219179 204.29941681 41.80534441 207.59184117 41.71875 211.05078125 C41.70034058 211.7090239 41.68193115 212.36726654 41.66296387 213.04545593 C41.60471685 215.13438752 41.55173798 217.22339775 41.5 219.3125 C41.4314643 222.05873188 41.35771602 224.80476009 41.28125 227.55078125 C41.25095703 228.76419189 41.22066406 229.97760254 41.18945312 231.2277832 C41.05318801 233.94096922 40.83307393 236.53349632 40.5 239.2199707 C39.84837958 244.78365615 39.79044597 250.33309368 39.71875 255.9296875 C39.70034058 257.04183624 39.68193115 258.15398499 39.66296387 259.29983521 C39.58473681 264.02597024 39.51627862 268.75223132 39.44775391 273.47851562 C39.39610324 276.9414793 39.33886834 280.40431881 39.28125 283.8671875 C39.26767456 284.9390329 39.25409912 286.0108783 39.2401123 287.11520386 C39.21503601 288.60287766 39.21503601 288.60287766 39.18945312 290.12060547 C39.17066101 291.42890823 39.17066101 291.42890823 39.15148926 292.76364136 C39 295 39 295 38 298 C37.67 303.61 37.34 309.22 37 315 C17.2 315 -2.6 315 -23 315 C-22 286 -22 286 -21 274 C-20.87465424 270.58981996 -20.77359492 267.19188786 -20.71875 263.78125 C-20.68101175 261.92447872 -20.6432507 260.0677079 -20.60546875 258.2109375 C-20.55161225 255.33628481 -20.49931146 252.46160887 -20.44775391 249.58691406 C-20.39602751 246.77660477 -20.33885299 243.96644402 -20.28125 241.15625 C-20.26767456 240.29584106 -20.25409912 239.43543213 -20.2401123 238.5489502 C-20.22339478 237.74711304 -20.20667725 236.94527588 -20.18945312 236.11914062 C-20.17692505 235.41809204 -20.16439697 234.71704346 -20.15148926 233.99475098 C-19.99231141 231.89875973 -19.53631054 230.02881825 -19 228 C-18.8000287 226.05913273 -18.63723877 224.11427803 -18.5 222.16796875 C-18.4175 221.03939453 -18.335 219.91082031 -18.25 218.74804688 C-18.1675 217.57306641 -18.085 216.39808594 -18 215.1875 C-17.83553824 212.86833217 -17.66893134 210.54931529 -17.5 208.23046875 C-17.4278125 207.20332764 -17.355625 206.17618652 -17.28125 205.11791992 C-17.08198883 202.90892306 -16.80780833 200.70610261 -16.48193359 198.51220703 C-16.02212456 195.16123803 -15.84409509 191.95367406 -15.7890625 188.57421875 C-15.76263672 187.32253906 -15.73621094 186.07085938 -15.70898438 184.78125 C-15.69569092 184.11609375 -15.68239746 183.4509375 -15.66870117 182.765625 C-15.36474945 168.31178654 -14.55269763 153.91760678 -13.5 139.5 C-13.43419739 138.59172455 -13.36839478 137.6834491 -13.30059814 136.74765015 C-13.10985118 134.13359952 -12.91544823 131.51985912 -12.71875 128.90625 C-12.66145721 128.13867874 -12.60416443 127.37110748 -12.5451355 126.58027649 C-12.25303159 122.80056381 -11.90341869 119.03612115 -11.47265625 115.26953125 C-11.11102658 112.10505734 -10.8417268 108.96556423 -10.71875 105.78125 C-10.68136719 104.91242188 -10.64398438 104.04359375 -10.60546875 103.1484375 C-10.53391373 101.35161155 -10.46364362 99.55473406 -10.39453125 97.7578125 C-10.35714844 96.89929688 -10.31976563 96.04078125 -10.28125 95.15625 C-10.25095703 94.38087891 -10.22066406 93.60550781 -10.18945312 92.80664062 C-10 91 -10 91 -9 90 C-8.80199667 88.61074871 -8.6654749 87.21265053 -8.55493164 85.8137207 C-8.44428627 84.46953316 -8.44428627 84.46953316 -8.33140564 83.09819031 C-8.25426834 82.11317032 -8.17713104 81.12815033 -8.09765625 80.11328125 C-7.9230735 77.99942592 -7.74741204 75.88565947 -7.57080078 73.77197266 C-7.47841125 72.66082092 -7.38602173 71.54966919 -7.29083252 70.40484619 C-6.52662077 61.45803566 -5.63937978 52.52207669 -4.76782227 43.58520508 C-4.43071379 40.11769688 -4.0991939 36.64967793 -3.76757812 33.18164062 C-3.55242457 30.9687168 -3.33694295 28.75582483 -3.12109375 26.54296875 C-3.02316025 25.50988083 -2.92522675 24.47679291 -2.82432556 23.41239929 C-2.73075272 22.46572891 -2.63717987 21.51905853 -2.54077148 20.54370117 C-2.46020004 19.71150558 -2.3796286 18.87931 -2.2966156 18.02189636 C-2 16 -2 16 -1 14 C-0.67 9.38 -0.34 4.76 0 0 Z " fill="#41107D" transform="translate(211,353)"/>
<path d="M0 0 C0.78490814 0.0028299 1.56981628 0.00565979 2.37850952 0.00857544 C4.84365208 0.0196183 7.30840796 0.0446905 9.7734375 0.0703125 C11.46223427 0.08036293 13.15103684 0.08948513 14.83984375 0.09765625 C18.94285344 0.11950511 23.04558032 0.15392096 27.1484375 0.1953125 C27.1484375 0.8553125 27.1484375 1.5153125 27.1484375 2.1953125 C28.293125 2.1746875 29.4378125 2.1540625 30.6171875 2.1328125 C35.02345683 2.1328125 39.28832233 2.59781524 43.6484375 3.1953125 C44.37546875 3.29070312 45.1025 3.38609375 45.8515625 3.484375 C47.61779617 3.71677417 49.38321156 3.95537888 51.1484375 4.1953125 C51.1484375 4.8553125 51.1484375 5.5153125 51.1484375 6.1953125 C52.3859375 6.2778125 53.6234375 6.3603125 54.8984375 6.4453125 C65.68872935 7.63855172 75.27155699 12.15903376 84.1484375 18.1953125 C85.4814035 18.98759751 86.81475646 19.77923173 88.1484375 20.5703125 C92.08234704 23.01387554 95.07103319 25.73323265 98.1484375 29.1953125 C98.1484375 29.8553125 98.1484375 30.5153125 98.1484375 31.1953125 C99.04369141 31.57429688 99.04369141 31.57429688 99.95703125 31.9609375 C105.33050547 34.98770729 108.79080266 41.69416455 111.1484375 47.1953125 C111.1484375 47.8553125 111.1484375 48.5153125 111.1484375 49.1953125 C111.8084375 49.1953125 112.4684375 49.1953125 113.1484375 49.1953125 C113.5609375 50.1853125 113.9734375 51.1753125 114.3984375 52.1953125 C115.55729601 54.95106694 116.88328607 57.52217559 118.3359375 60.1328125 C120.48761586 64.31344993 120.48043035 67.54741264 120.1484375 72.1953125 C120.8084375 72.1953125 121.4684375 72.1953125 122.1484375 72.1953125 C124.4060571 85.00192847 125.44317006 97.57916745 125.3984375 110.5703125 C125.39739014 111.23862091 125.39634277 111.90692932 125.39526367 112.5954895 C125.33084018 132.01290982 125.33084018 132.01290982 123.1484375 134.1953125 C122.52197629 137.22195039 121.9592162 140.25208496 121.4296875 143.296875 C120.56744913 147.91994028 119.13916358 151.9032867 117.1484375 156.1953125 C116.78621094 157.00097656 116.42398438 157.80664062 116.05078125 158.63671875 C115.73238281 159.33667969 115.41398438 160.03664063 115.0859375 160.7578125 C113.55594412 164.18124597 112.25253668 167.60699017 111.1484375 171.1953125 C110.4884375 171.1953125 109.8284375 171.1953125 109.1484375 171.1953125 C109.1484375 172.1853125 109.1484375 173.1753125 109.1484375 174.1953125 C107.85822114 175.57041151 106.51743367 176.89862247 105.1484375 178.1953125 C103.96705898 179.72573467 102.8011551 181.26818836 101.6484375 182.8203125 C94.68194628 191.5996453 85.36369679 199.42689924 75.1484375 204.1953125 C74.1584375 204.1953125 73.1684375 204.1953125 72.1484375 204.1953125 C72.1484375 204.8553125 72.1484375 205.5153125 72.1484375 206.1953125 C69.8384375 206.5253125 67.5284375 206.8553125 65.1484375 207.1953125 C65.1484375 207.8553125 65.1484375 208.5153125 65.1484375 209.1953125 C61.92088936 209.86997996 58.69116815 210.53361819 55.4609375 211.1953125 C54.54892578 211.38609375 53.63691406 211.576875 52.69726562 211.7734375 C51.81103516 211.95390625 50.92480469 212.134375 50.01171875 212.3203125 C49.20001221 212.48789062 48.38830566 212.65546875 47.55200195 212.828125 C45.04781885 213.2106838 42.67768248 213.25829759 40.1484375 213.1953125 C40.1484375 213.8553125 40.1484375 214.5153125 40.1484375 215.1953125 C28.05939173 216.48864064 15.97682763 216.30839557 3.8359375 216.2578125 C1.72721461 216.25278671 -0.38150945 216.24822572 -2.49023438 216.24414062 C-7.61070621 216.23322223 -12.73112126 216.21601724 -17.8515625 216.1953125 C-19.46398691 212.97046368 -18.98441448 209.44871586 -18.97181702 205.90646362 C-18.97267144 205.03904167 -18.97352587 204.17161972 -18.97440618 203.27791226 C-18.97606095 200.35436229 -18.97053964 197.43086896 -18.96508789 194.50732422 C-18.96480599 192.41838584 -18.9649638 190.32944736 -18.9655304 188.24050903 C-18.96581827 182.55484976 -18.95992319 176.86921142 -18.95295644 171.18355703 C-18.94672119 165.24713846 -18.94611897 159.31071944 -18.94493103 153.3742981 C-18.94181822 142.12624884 -18.93360551 130.87820926 -18.92358154 119.63016427 C-18.91241885 106.8274607 -18.90690956 94.02475669 -18.90188611 81.22204947 C-18.89142286 54.87979844 -18.87382438 28.53755601 -18.8515625 2.1953125 C-17.2782468 1.86265313 -15.70386369 1.53504001 -14.12905884 1.20950317 C-13.2524441 1.02651232 -12.37582935 0.84352146 -11.47265053 0.65498543 C-7.62996665 -0.01892469 -3.89046186 -0.05457626 0 0 Z " fill="#FCFBFD" transform="translate(680.8515625,401.8046875)"/>
<path d="M0 0 C0.66 0 1.32 0 2 0 C2.33 100.32 2.66 200.64 3 304 C6.96 304.66 10.92 305.32 15 306 C15.33 306.33 15.66 306.66 16 307 C35.34653861 311.00009849 55.51314868 310.5371046 75.16595459 310.66955566 C79.22337258 310.69993592 83.28061027 310.74625915 87.33789062 310.79101562 C95.22516939 310.87578449 103.11246692 310.94367257 111 311 C111 311.33 111 311.66 111 312 C101.29647497 312.11746061 91.59320601 312.20548911 81.88911724 312.25906086 C77.37983736 312.28481286 72.87105445 312.31955344 68.36206055 312.37719727 C19.30838929 312.98767874 19.30838929 312.98767874 1 305 C0 304 0 304 -0.1241985 301.92654461 C-0.12381878 301.00344448 -0.12343906 300.08034436 -0.12304783 299.12927151 C-0.12503888 298.0683282 -0.12702993 297.0073849 -0.12908131 295.9142918 C-0.12616847 294.73435636 -0.12325563 293.55442092 -0.12025452 292.33872986 C-0.12110894 291.09647552 -0.12196337 289.85422117 -0.12284368 288.57432276 C-0.12421194 285.11048283 -0.1210642 281.64669871 -0.11606562 278.1828655 C-0.11176463 274.45346854 -0.11320729 270.72407343 -0.1139679 266.99467468 C-0.11449336 260.52801539 -0.11134427 254.06136616 -0.10573006 247.5947094 C-0.09761802 238.24490149 -0.09500014 228.89509848 -0.09374207 219.54528744 C-0.09155108 204.37743821 -0.08488973 189.20959436 -0.07543945 174.04174805 C-0.06626654 159.30379259 -0.05918512 144.56583859 -0.05493164 129.82788086 C-0.05466892 128.92009693 -0.05440619 128.012313 -0.05413551 127.07702046 C-0.05283051 122.52313344 -0.05156679 117.96924641 -0.05032361 113.41535938 C-0.03994954 75.6102358 -0.02232996 37.80511832 0 0 Z " fill="#8E73B0" transform="translate(599,359)"/>
<path d="M0 0 C0.33 0 0.66 0 1 0 C2.31431302 11.65017267 3.27979392 23.2300553 3.57006836 34.95532227 C3.5985083 35.85951904 3.62694824 36.76371582 3.65625 37.6953125 C3.67494141 38.47922363 3.69363281 39.26313477 3.71289062 40.07080078 C3.96883202 42.68201239 4.43420283 45.06997353 4.99780273 47.62695312 C6.14863717 53.19704854 6.33031899 58.59969012 6.37890625 64.2734375 C6.39590073 65.31843414 6.4128952 66.36343079 6.43040466 67.44009399 C6.48306964 70.75166923 6.52358074 74.06323714 6.5625 77.375 C6.60678339 80.67955707 6.65380444 83.98403005 6.70530701 87.28848267 C6.73664708 89.33429551 6.7637124 91.38018047 6.78553772 93.42611694 C6.87071765 99.41109626 7.2450383 105.31726142 7.77937317 111.27835083 C8.05058758 114.62404759 8.11348646 117.94086959 8.09765625 121.296875 C8.09443359 122.52148438 8.09121094 123.74609375 8.08789062 125.0078125 C8.07951172 126.24273438 8.07113281 127.47765625 8.0625 128.75 C8.05798828 130.03132812 8.05347656 131.31265625 8.04882812 132.6328125 C8.0371772 135.75525931 8.02082025 138.87760318 8 142 C7.67 142 7.34 142 7 142 C7 134.74 7 127.48 7 120 C6.34 120 5.68 120 5 120 C3.91603491 110.40875062 3.71242753 100.82714344 3.5 91.1875 C3.28775953 81.62180237 2.98025333 72.11326337 2.23632812 62.57104492 C1.72344123 54.82104835 1.62588431 47.04905591 1.44775391 39.28540039 C1.39567867 37.06646971 1.33865478 34.8477045 1.28125 32.62890625 C1.25095703 31.33025635 1.22066406 30.03160645 1.18945312 28.69360352 C1.00378042 25.0737035 0.52854453 21.58332585 0 18 C-0.07140175 16.46094689 -0.108902 14.91957371 -0.09765625 13.37890625 C-0.09443359 12.58935547 -0.09121094 11.79980469 -0.08789062 10.98632812 C-0.07951172 10.18646484 -0.07113281 9.38660156 -0.0625 8.5625 C-0.05798828 7.73556641 -0.05347656 6.90863281 -0.04882812 6.05664062 C-0.03715811 4.03772854 -0.01922718 2.01885426 0 0 Z " fill="#CEBDE2" transform="translate(463,458)"/>
<path d="M0 0 C0.33 0 0.66 0 1 0 C2.58665695 12.26193141 3.1877447 24.46265719 3.4375 36.8125 C3.71630759 50.33114459 4.43079394 63.77061107 5.5 77.25 C5.56589325 78.08665192 5.6317865 78.92330383 5.69967651 79.78530884 C5.88970598 82.17491242 6.083992 84.56410792 6.28125 86.953125 C6.33853775 87.65062363 6.3958255 88.34812225 6.45484924 89.0667572 C6.74030974 92.41101589 7.08573191 95.73717613 7.52734375 99.0637207 C7.96893564 102.74129613 8.18440932 106.32653586 8.28125 110.02734375 C8.31863281 111.31447266 8.35601563 112.60160156 8.39453125 113.92773438 C8.43012106 115.26431144 8.46527469 116.60090019 8.5 117.9375 C8.78049164 128.9256446 8.78049164 128.9256446 9.79052734 139.86108398 C10.20418411 144.08491489 10.10293544 148.32299936 10.0625 152.5625 C10.05798828 153.47580078 10.05347656 154.38910156 10.04882812 155.33007812 C10.0371874 157.55345738 10.02083851 159.77669121 10 162 C9.67 162 9.34 162 9 162 C9 157.71 9 153.42 9 149 C8.34 149 7.68 149 7 149 C6.97494385 148.02240723 6.9498877 147.04481445 6.92407227 146.03759766 C6.82898346 142.3659439 6.72902248 138.69443539 6.62768555 135.02294922 C6.58471615 133.44225493 6.54301955 131.86152545 6.50268555 130.28076172 C7.01967195 116.24641913 7.01967195 116.24641913 4 103 C3.91341431 100.44637396 3.88437484 97.9204558 3.90234375 95.3671875 C3.90446617 94.23943405 3.90446617 94.23943405 3.90663147 93.08889771 C3.91223535 90.6842249 3.92478843 88.27964473 3.9375 85.875 C3.9425145 84.24609509 3.9470775 82.61718873 3.95117188 80.98828125 C3.96220603 76.99215173 3.97947321 72.99609158 4 69 C3.34 69 2.68 69 2 69 C1.97494385 67.7632251 1.9498877 66.5264502 1.92407227 65.25219727 C1.83017747 60.68063287 1.72991371 56.10922682 1.62768555 51.5378418 C1.58426856 49.55610854 1.54259863 47.57433622 1.50268555 45.5925293 C1.44514617 42.7503683 1.38140555 39.90840517 1.31640625 37.06640625 C1.29969376 36.17474258 1.28298126 35.28307892 1.26576233 34.36439514 C1.563413 30.36051605 1.563413 30.36051605 0 27 C-0.08758003 25.00035018 -0.10696576 22.9976389 -0.09765625 20.99609375 C-0.09443359 19.78115234 -0.09121094 18.56621094 -0.08789062 17.31445312 C-0.07951172 16.03505859 -0.07113281 14.75566406 -0.0625 13.4375 C-0.05798828 12.15423828 -0.05347656 10.87097656 -0.04882812 9.54882812 C-0.03699545 6.36583978 -0.02051068 3.18294238 0 0 Z " fill="#64458E" transform="translate(524,496)"/>
<path d="M0 0 C2.15725042 4.31450083 3.12378067 6.8328383 3.11352539 11.73486328 C3.11344986 12.93595734 3.11337433 14.13705139 3.11329651 15.37454224 C3.10813522 16.67664642 3.10297394 17.97875061 3.09765625 19.3203125 C3.09579138 20.66266833 3.0943678 22.00502484 3.09336853 23.34738159 C3.08954878 26.88195675 3.07972312 30.41649087 3.06866455 33.9510498 C3.05843878 37.55720464 3.05386841 41.1633661 3.04882812 44.76953125 C3.03810038 51.84637096 3.02103045 58.9231828 3 66 C4.485 65.01 4.485 65.01 6 64 C8.41081238 63.75949097 8.41081238 63.75949097 11.29760742 63.77294922 C12.37850143 63.77310028 13.45939545 63.77325134 14.57304382 63.77340698 C16.32159416 63.78889084 16.32159416 63.78889084 18.10546875 63.8046875 C19.29981033 63.8075174 20.49415192 63.81034729 21.72468567 63.81326294 C25.54572497 63.82447323 29.36653134 63.84957963 33.1875 63.875 C35.77538724 63.88502869 38.36327816 63.89415473 40.95117188 63.90234375 C47.30087123 63.92441539 53.6503961 63.95895129 60 64 C60 59.38 60 54.76 60 50 C60.33 50 60.66 50 61 50 C63.17232578 56.24543661 63 59.82876967 63 67 C42.87 67 22.74 67 2 67 C1.5625 46.8125 1.5625 46.8125 1.43188477 40.46411133 C1.39374217 38.79507659 1.35527138 37.12604932 1.31640625 35.45703125 C1.2916925 34.16750549 1.2916925 34.16750549 1.26647949 32.85192871 C1.16725808 28.7624618 0.87522595 25.00705855 0 21 C-0.07700286 19.30742755 -0.10805067 17.61226001 -0.09765625 15.91796875 C-0.09443359 14.98662109 -0.09121094 14.05527344 -0.08789062 13.09570312 C-0.07951172 12.13599609 -0.07113281 11.17628906 -0.0625 10.1875 C-0.05798828 9.20845703 -0.05347656 8.22941406 -0.04882812 7.22070312 C-0.03708684 4.81373889 -0.02066419 2.40690143 0 0 Z " fill="#431D78" transform="translate(471,601)"/>
<path d="M0 0 C0.33 0 0.66 0 1 0 C1.02716824 2.54173977 1.04691969 5.08318415 1.0625 7.625 C1.07087891 8.33785156 1.07925781 9.05070313 1.08789062 9.78515625 C1.09111328 10.48769531 1.09433594 11.19023438 1.09765625 11.9140625 C1.10289307 12.5529541 1.10812988 13.1918457 1.11352539 13.85009766 C1 16 1 16 0.51147461 18.81469727 C-0.04127141 22.25702537 -0.19400705 25.565936 -0.28125 29.05078125 C-0.29965942 29.7090239 -0.31806885 30.36726654 -0.33703613 31.04545593 C-0.39528315 33.13438752 -0.44826202 35.22339775 -0.5 37.3125 C-0.5685357 40.05873188 -0.64228398 42.80476009 -0.71875 45.55078125 C-0.74904297 46.76419189 -0.77933594 47.97760254 -0.81054688 49.2277832 C-0.94681199 51.94096922 -1.16692607 54.53349632 -1.5 57.2199707 C-2.15162042 62.78365615 -2.20955403 68.33309368 -2.28125 73.9296875 C-2.29965942 75.04183624 -2.31806885 76.15398499 -2.33703613 77.29983521 C-2.41526319 82.02597024 -2.48372138 86.75223132 -2.55224609 91.47851562 C-2.60389676 94.9414793 -2.66113166 98.40431881 -2.71875 101.8671875 C-2.73232544 102.9390329 -2.74590088 104.0108783 -2.7598877 105.11520386 C-2.78496399 106.60287766 -2.78496399 106.60287766 -2.81054688 108.12060547 C-2.82933899 109.42890823 -2.82933899 109.42890823 -2.84851074 110.76364136 C-3 113 -3 113 -4 116 C-4.33 121.61 -4.66 127.22 -5 133 C-24.8 133 -44.6 133 -65 133 C-64.67 132.01 -64.34 131.02 -64 130 C-64 130.66 -64 131.32 -64 132 C-44.86 132 -25.72 132 -6 132 C-6 125.4 -6 118.8 -6 112 C-5.505 110.02 -5.505 110.02 -5 108 C-4.89201764 106.17837416 -4.83430563 104.35347744 -4.81054688 102.52880859 C-4.78547058 100.88723282 -4.78547058 100.88723282 -4.7598877 99.2124939 C-4.74631226 98.03635529 -4.73273682 96.86021667 -4.71875 95.6484375 C-4.70034058 94.43805817 -4.68193115 93.22767883 -4.66296387 91.98062134 C-4.58423078 86.79706711 -4.51639939 81.61338361 -4.44775391 76.4296875 C-4.39613021 72.64837007 -4.33885218 68.8671678 -4.28125 65.0859375 C-4.26767456 63.90575043 -4.25409912 62.72556335 -4.2401123 61.50961304 C-4.21503601 59.87749374 -4.21503601 59.87749374 -4.18945312 58.21240234 C-4.17066101 56.77155777 -4.17066101 56.77155777 -4.15148926 55.30160522 C-4 53 -4 53 -3 51 C-2.85511435 48.5513205 -2.76573111 46.12669285 -2.71875 43.67578125 C-2.70034058 42.93732468 -2.68193115 42.1988681 -2.66296387 41.43803406 C-2.60417428 39.06293806 -2.55155759 36.68776321 -2.5 34.3125 C-1.77258521 1.77258521 -1.77258521 1.77258521 0 0 Z " fill="#60438A" transform="translate(253,535)"/>
<path d="M0 0 C0.33 0 0.66 0 1 0 C0.88107168 6.57969338 0.75629247 13.15925828 0.62768555 19.73876953 C0.5847115 21.97116662 0.5430151 24.20358873 0.50268555 26.43603516 C0.30764085 37.18998086 0.11051116 47.90066052 -0.76586914 58.62304688 C-1.26339508 65.79904139 -1.34129167 72.99741956 -1.5 80.1875 C-1.78184336 92.81118502 -2.33598844 105.38378031 -3 118 C-23.13 118 -43.26 118 -64 118 C-64 117.67 -64 117.34 -64 117 C-44.53 117 -25.06 117 -5 117 C-5 111.39 -5 105.78 -5 100 C-4.505 98.515 -4.505 98.515 -4 97 C-3.88999357 95.37603124 -3.83392418 93.74812796 -3.81054688 92.12060547 C-3.78547058 90.63293167 -3.78547058 90.63293167 -3.7598877 89.11520386 C-3.74631226 88.04335846 -3.73273682 86.97151306 -3.71875 85.8671875 C-3.70034058 84.76077911 -3.68193115 83.65437073 -3.66296387 82.51443481 C-3.60416112 78.96801114 -3.55141999 75.42153792 -3.5 71.875 C-3.43199442 67.22646896 -3.35819492 62.57807811 -3.28125 57.9296875 C-3.26767456 56.86998749 -3.25409912 55.81028748 -3.2401123 54.71847534 C-3.15283362 49.44184777 -2.87986451 44.28384393 -2.23059082 39.04699707 C-1.87445639 35.8855263 -1.79811333 32.72974686 -1.71875 29.55078125 C-1.70034058 28.88966843 -1.68193115 28.2285556 -1.66296387 27.54740906 C-1.58552257 24.76603744 -1.51664192 21.98447565 -1.44775391 19.20288086 C-1.39566537 17.15207412 -1.33860205 15.1014465 -1.28125 13.05078125 C-1.25095703 11.84075439 -1.22066406 10.63072754 -1.18945312 9.3840332 C-1.01040296 6.1858188 -0.59284655 3.14514695 0 0 Z " fill="#C8B8DE" transform="translate(253,551)"/>
<path d="M0 0 C0.33 0 0.66 0 1 0 C1 10.89 1 21.78 1 33 C18.82 33 36.64 33 55 33 C55 27.39 55 21.78 55 16 C55.33 16 55.66 16 56 16 C56 22.27 56 28.54 56 35 C36.86 35 17.72 35 -2 35 C-2 7 -2 7 0 0 Z " fill="#330C6D" transform="translate(191,632)"/>
<path d="M0 0 C0.66 0 1.32 0 2 0 C1.53970694 4.60293063 1.14409985 7.89235608 -1 12 C-7.22961977 12.05059881 -13.4591868 12.08569062 -19.68896484 12.10986328 C-21.8094277 12.11993751 -23.92987661 12.13359733 -26.05029297 12.15087891 C-29.09345943 12.17506489 -32.13644266 12.18646869 -35.1796875 12.1953125 C-36.60787308 12.21079636 -36.60787308 12.21079636 -38.06491089 12.22659302 C-38.94567291 12.22674408 -39.82643494 12.22689514 -40.73388672 12.22705078 C-41.51110077 12.231492 -42.28831482 12.23593323 -43.08908081 12.24050903 C-45 12 -45 12 -47 10 C-47.56520003 7.34462628 -47.73788198 4.70855287 -48 2 C-47.34 2 -46.68 2 -46 2 C-44 5 -44 5 -44 8 C-30.14 8 -16.28 8 -2 8 C-2 6.68 -2 5.36 -2 4 C-1.34 4 -0.68 4 0 4 C0 2.68 0 1.36 0 0 Z " fill="#512D83" transform="translate(384,615)"/>
<path d="M0 0 C0 0.33 0 0.66 0 1 C-3.54193375 0.86024595 -7.08346999 0.71211066 -10.625 0.5625 C-12.12353516 0.50352539 -12.12353516 0.50352539 -13.65234375 0.44335938 C-14.62558594 0.40146484 -15.59882812 0.35957031 -16.6015625 0.31640625 C-17.93695068 0.26141968 -17.93695068 0.26141968 -19.29931641 0.20532227 C-22 0 -22 0 -24.758255 -0.50474548 C-28.08318559 -1.0127086 -31.20650653 -1.12701965 -34.56860352 -1.12939453 C-36.49573936 -1.13412277 -36.49573936 -1.13412277 -38.46180725 -1.13894653 C-39.8508406 -1.13715666 -41.23987364 -1.13510569 -42.62890625 -1.1328125 C-44.06566891 -1.13348687 -45.50243146 -1.134458 -46.93919373 -1.13571167 C-49.94246513 -1.13718192 -52.94570669 -1.13505545 -55.94897461 -1.13037109 C-59.79113161 -1.12466905 -63.63321882 -1.12796008 -67.47537327 -1.13394356 C-70.43939232 -1.13756296 -73.40339492 -1.13640433 -76.36741447 -1.13381577 C-77.78394517 -1.13315058 -79.20047738 -1.13396059 -80.6170063 -1.13629532 C-82.59826757 -1.13884503 -84.5795341 -1.13426751 -86.56079102 -1.12939453 C-88.24906761 -1.12820114 -88.24906761 -1.12820114 -89.97145081 -1.12698364 C-92.7731292 -1.00951244 -95.2688583 -0.59922345 -98 0 C-101.80005296 0.29739545 -105.60062594 0.50563505 -109.40625 0.71875 C-112.37562219 0.95113565 -115.09404825 1.4030218 -118 2 C-119.43628457 2.06266512 -120.8750555 2.08686347 -122.3125 2.0625 C-124.1378125 2.0315625 -124.1378125 2.0315625 -126 2 C-126 1.67 -126 1.34 -126 1 C-119.36025293 -0.81084011 -112.96112915 -1.36034073 -106.11743164 -1.65795898 C-103.06313441 -1.79559673 -100.09143138 -1.98461902 -97.07421875 -2.4921875 C-66.57760085 -7.52974827 -30.24589624 -5.8863649 0 0 Z " fill="#B8A5D1" transform="translate(745,353)"/>
<path d="M0 0 C2.497966 2.497966 2.25245217 3.27401073 2.25878906 6.72167969 C2.26509338 7.70320007 2.27139771 8.68472046 2.27789307 9.69598389 C2.2738446 10.76052795 2.26979614 11.82507202 2.265625 12.921875 C2.26753845 14.01461731 2.2694519 15.10735962 2.27142334 16.23321533 C2.27278657 18.55001047 2.26908054 20.86681321 2.26074219 23.18359375 C2.25008575 26.72153046 2.2606118 30.2589546 2.2734375 33.796875 C2.27211512 36.04687612 2.26955112 38.29687692 2.265625 40.546875 C2.26967346 41.60332214 2.27372192 42.65976929 2.27789307 43.74822998 C2.24507203 48.92378192 1.99345432 53.14186718 0 58 C-0.18198998 59.64050968 -0.30726106 61.28831723 -0.375 62.9375 C-0.90719964 70.20754787 -2.97766929 77.03001369 -5 84 C-5.33 82.68 -5.66 81.36 -6 80 C-6.66 80 -7.32 80 -8 80 C-8 78.68 -8 77.36 -8 76 C-6.02 75.505 -6.02 75.505 -4 75 C-4 72.69 -4 70.38 -4 68 C-3.34 68 -2.68 68 -2 68 C-2 60.08 -2 52.16 -2 44 C-1.67 44 -1.34 44 -1 44 C-0.67 29.48 -0.34 14.96 0 0 Z " fill="#5D3E88" transform="translate(868,483)"/>
<path d="M0 0 C0.33 0 0.66 0 1 0 C1.88842221 12.33108224 2.28829635 24.64187232 2.5625 37 C2.706875 43.27 2.85125 49.54 3 56 C21.48 56.33 39.96 56.66 59 57 C59 57.33 59 57.66 59 58 C39.53 58 20.06 58 0 58 C0 38.86 0 19.72 0 0 Z " fill="#2E0666" transform="translate(474,609)"/>
<path d="M0 0 C19.47 0 38.94 0 59 0 C62 6 62 6 61.6875 8.375 C61.460625 8.91125 61.23375 9.4475 61 10 C60.59620117 8.86361084 60.19240234 7.72722168 59.77636719 6.55639648 C58.72929293 4.54515648 58.72929293 4.54515648 57 3 C52.8890603 1.9040145 48.81161553 2.04661711 44.578125 2.09765625 C42.75544098 2.07921913 42.75544098 2.07921913 40.89593506 2.06040955 C37.01334738 2.02860628 33.13264821 2.04498032 29.25 2.0625 C26.61847188 2.04939575 23.98695735 2.03315832 21.35546875 2.01367188 C14.90336318 1.97275267 8.45215156 1.97138767 2 2 C2.04125 3.258125 2.0825 4.51625 2.125 5.8125 C2.2390374 9.29064073 2.05925681 9.91111478 0 13 C0 8.71 0 4.42 0 0 Z " fill="#2A0763" transform="translate(212,354)"/>
<path d="M0 0 C1.22669947 3.68465653 0.91139813 6.89845264 0.58984375 10.73828125 C0.01434246 18.18645883 -0.21902518 25.62616822 -0.38842773 33.09362793 C-0.67816549 45.45649292 -1.32639911 57.68403268 -2.78125 69.97070312 C-3.22895606 74.12397632 -3.43674466 78.29814845 -3.65625 82.46875 C-4.00939232 85.06916163 -4.7811274 86.70579469 -6 89 C-6.21199095 78.89100154 -5.63641219 68.99161398 -4.77511597 58.92919922 C-3.5524464 44.60043148 -2.6153566 30.32990423 -2.37915039 15.94702148 C-2.2572544 10.26177579 -1.92132015 5.37043704 0 0 Z " fill="#C2AED9" transform="translate(197,496)"/>
<path d="M0 0 C2.31317961 0.30742903 4.62553352 0.62107702 6.9375 0.9375 C8.22527344 1.11152344 9.51304687 1.28554688 10.83984375 1.46484375 C14 2 14 2 15 3 C34.34653861 7.00009849 54.51314868 6.5371046 74.16595459 6.66955566 C78.22337258 6.69993592 82.28061027 6.74625915 86.33789062 6.79101562 C94.22516939 6.87578449 102.11246692 6.94367257 110 7 C110 7.33 110 7.66 110 8 C100.29647497 8.11746061 90.59320601 8.20548911 80.88911724 8.25906086 C76.37983736 8.28481286 71.87105445 8.31955344 67.36206055 8.37719727 C18.98926695 8.9792051 18.98926695 8.9792051 0 1 C0 0.67 0 0.34 0 0 Z " fill="#967FB6" transform="translate(600,663)"/>
<path d="M0 0 C18.48 0 36.96 0 56 0 C56 3.3 56 6.6 56 10 C55.34 9.34 54.68 8.68 54 8 C54 6.02 54 4.04 54 2 C36.18 2 18.36 2 0 2 C0 1.34 0 0.68 0 0 Z " fill="#290863" transform="translate(454,354)"/>
<path d="M0 0 C4.03755063 6.05632595 3.18518886 13.91822888 3.28125 20.98046875 C3.29965942 22.02971024 3.31806885 23.07895172 3.33703613 24.1599884 C3.39549623 27.50243801 3.44838673 30.84493811 3.5 34.1875 C3.56832022 38.57691442 3.64208766 42.96619305 3.71875 47.35546875 C3.73232544 48.34338913 3.74590088 49.33130951 3.7598877 50.34916687 C3.86481722 56.359132 4.24540143 62.2956401 4.78060913 68.28205872 C5.05056748 71.6264592 5.11347993 74.94225542 5.09765625 78.296875 C5.09443359 79.52148438 5.09121094 80.74609375 5.08789062 82.0078125 C5.07951172 83.24273438 5.07113281 84.47765625 5.0625 85.75 C5.05798828 87.03132812 5.05347656 88.31265625 5.04882812 89.6328125 C5.0371772 92.75525931 5.02082025 95.87760318 5 99 C4.67 99 4.34 99 4 99 C3.97494385 98.23445801 3.9498877 97.46891602 3.92407227 96.68017578 C3.80696546 93.16166069 3.68476595 89.64333945 3.5625 86.125 C3.52318359 84.92101562 3.48386719 83.71703125 3.44335938 82.4765625 C3.40146484 81.290625 3.35957031 80.1046875 3.31640625 78.8828125 C3.27974854 77.80402832 3.24309082 76.72524414 3.20532227 75.61376953 C3.04425364 72.77888514 2.80057393 69.99675052 2.49780273 67.17602539 C1.98342422 62.2127537 1.80098439 57.28770506 1.71875 52.30078125 C1.69113586 50.98185127 1.69113586 50.98185127 1.66296387 49.63627625 C1.58525963 45.92290864 1.51663642 42.20938981 1.44775391 38.49584961 C1.39572926 35.76407818 1.33862951 33.03244463 1.28125 30.30078125 C1.26767456 29.47145584 1.25409912 28.64213043 1.2401123 27.78767395 C1.14090259 23.11104162 0.71765671 18.63159356 0 14 C-0.06460929 11.5215878 -0.08611087 9.04164177 -0.0625 6.5625 C-0.05347656 5.32628906 -0.04445313 4.09007812 -0.03515625 2.81640625 C-0.02355469 1.88699219 -0.01195312 0.95757812 0 0 Z " fill="#A48CC3" transform="translate(466,501)"/>
<path d="M0 0 C0.33 0 0.66 0 1 0 C2.84908245 8.10905846 3.76926634 16.22852724 4.5625 24.5 C4.69382995 25.83309094 4.82517775 27.16618012 4.95654297 28.49926758 C5.74310353 36.60993135 6.39341119 44.71586511 6.70922852 52.859375 C6.82952682 55.82011115 7.05514297 58.16542892 8 61 C8.06740865 62.56118428 8.08514456 64.1250252 8.0625 65.6875 C8.05347656 66.49574219 8.04445313 67.30398438 8.03515625 68.13671875 C8.02355469 68.75160156 8.01195312 69.36648438 8 70 C7.67 70 7.34 70 7 70 C5.12737819 63.68911704 4.75103922 58.06038603 4.875 51.5 C4.88402344 50.5821875 4.89304687 49.664375 4.90234375 48.71875 C4.92567568 46.47888444 4.95840765 44.23958817 5 42 C3.68 41.34 2.36 40.68 1 40 C1.00523682 39.13197754 1.01047363 38.26395508 1.01586914 37.36962891 C1.03289862 34.15299727 1.04544408 30.93638859 1.05493164 27.71972656 C1.0599643 26.32681523 1.06679098 24.9339092 1.07543945 23.54101562 C1.08755152 21.54038754 1.09270412 19.53972112 1.09765625 17.5390625 C1.10289307 16.33459473 1.10812988 15.13012695 1.11352539 13.88916016 C1.20087891 11.0586323 1.20087891 11.0586323 0 9 C-0.06950541 7.45976004 -0.08452357 5.91665012 -0.0625 4.375 C-0.05347656 3.55773437 -0.04445313 2.74046875 -0.03515625 1.8984375 C-0.02355469 1.27195312 -0.01195312 0.64546875 0 0 Z " fill="#6A4B92" transform="translate(511,363)"/>
<path d="M0 0 C0.67724121 -0.00499512 1.35448242 -0.00999023 2.05224609 -0.01513672 C11.54075016 -0.07242061 20.53053776 0.65038256 29.875 2.25 C29.875 2.58 29.875 2.91 29.875 3.25 C9.415 3.25 -11.045 3.25 -32.125 3.25 C-32.125 2.92 -32.125 2.59 -32.125 2.25 C-21.45286965 0.28408125 -10.81731181 0.02751224 0 0 Z " fill="#310869" transform="translate(694.125,399.75)"/>
<path d="M0 0 C0.33 0 0.66 0 1 0 C2.61204583 9.36904597 3.29515162 18.34708444 3.20581055 27.86132812 C3.18732126 29.89465707 3.18530353 31.92753232 3.18554688 33.9609375 C3.12658241 47.27380407 3.12658241 47.27380407 2 53 C1.01 53.495 1.01 53.495 0 54 C-0.02705308 51.58325776 -0.04686438 49.1668206 -0.0625 46.75 C-0.07087891 46.06808594 -0.07925781 45.38617187 -0.08789062 44.68359375 C-0.10446822 41.26860821 0.09888465 38.28313345 1 35 C1.09037274 33.29354998 1.130101 31.58383377 1.125 29.875 C1.12757813 29.00617188 1.13015625 28.13734375 1.1328125 27.2421875 C1.14537934 24.96280551 1.14537934 24.96280551 0 23 C-0.08449628 21.2595583 -0.10723024 19.51590278 -0.09765625 17.7734375 C-0.09443359 16.7421875 -0.09121094 15.7109375 -0.08789062 14.6484375 C-0.07951172 13.56820313 -0.07113281 12.48796875 -0.0625 11.375 C-0.05798828 10.28703125 -0.05347656 9.1990625 -0.04882812 8.078125 C-0.03701776 5.38536211 -0.02054778 2.69270812 0 0 Z " fill="#BFAAD4" transform="translate(803,482)"/>
<path d="M0 0 C2.1753405 4.35068101 3.12370225 6.88070882 3.11352539 11.82666016 C3.11341209 13.65833237 3.11341209 13.65833237 3.11329651 15.52700806 C3.10818952 16.86435995 3.10297352 18.20171143 3.09765625 19.5390625 C3.0957914 20.90383859 3.09436781 22.26861534 3.09336853 23.63339233 C3.08954863 27.22715093 3.07972283 30.82086917 3.06866455 34.41461182 C3.05843911 38.08108982 3.05386848 41.74757435 3.04882812 45.4140625 C3.0381001 52.60939341 3.02102999 59.80469105 3 67 C2.67 67 2.34 67 2 67 C1.97494385 65.78417236 1.9498877 64.56834473 1.92407227 63.31567383 C1.82975811 58.79620183 1.72959631 54.27687492 1.62768555 49.75756836 C1.58442742 47.80317585 1.54274602 45.84874778 1.50268555 43.89428711 C1.44476164 41.08175955 1.38113127 38.26940952 1.31640625 35.45703125 C1.29969376 34.58601273 1.28298126 33.7149942 1.26576233 32.81758118 C1.16664382 28.74020967 0.87265154 24.99527211 0 21 C-0.07700286 19.30742755 -0.10805067 17.61226001 -0.09765625 15.91796875 C-0.09443359 14.98662109 -0.09121094 14.05527344 -0.08789062 13.09570312 C-0.07951172 12.13599609 -0.07113281 11.17628906 -0.0625 10.1875 C-0.05798828 9.20845703 -0.05347656 8.22941406 -0.04882812 7.22070312 C-0.03708684 4.81373889 -0.02066419 2.40690143 0 0 Z " fill="#7A5C9E" transform="translate(471,601)"/>
<path d="M0 0 C1.30097122 0.00007553 2.60194244 0.00015106 3.94233704 0.00022888 C5.35242756 0.00533477 6.76251769 0.01055075 8.17260742 0.01586914 C9.62277681 0.0177356 11.07294682 0.01915843 12.52311707 0.02015686 C16.32890583 0.02396409 20.13465608 0.03377897 23.94042969 0.04486084 C27.82836384 0.05511362 31.71630425 0.05966275 35.60424805 0.06469727 C43.22470826 0.07540293 50.84513681 0.09245769 58.46557617 0.11352539 C58.46557617 0.44352539 58.46557617 0.77352539 58.46557617 1.11352539 C39.32557617 1.11352539 20.18557617 1.11352539 0.46557617 1.11352539 C0.46557617 1.77352539 0.46557617 2.43352539 0.46557617 3.11352539 C-8.44442383 3.11352539 -17.35442383 3.11352539 -26.53442383 3.11352539 C-26.53442383 2.78352539 -26.53442383 2.45352539 -26.53442383 2.11352539 C-24.9972168 2.02264648 -24.9972168 2.02264648 -23.42895508 1.92993164 C-22.06826688 1.84547513 -20.70759039 1.76082973 -19.34692383 1.67602539 C-18.67338867 1.63670898 -17.99985352 1.59739258 -17.3059082 1.55688477 C-14.56097449 1.3828158 -11.89691008 1.19338098 -9.20722961 0.60084534 C-6.08897601 0.03230901 -3.17019796 -0.00615572 0 0 Z " fill="#442472" transform="translate(658.534423828125,350.886474609375)"/>
<path d="M0 0 C2.30039124 3.45058686 2.4738275 5.94095502 3 10 C3.33 10.33 3.66 10.66 4 11 C5.13196408 18.40994925 5.18620894 25.79048704 5.18530273 33.27661133 C5.18751445 35.32588738 5.20580505 37.37464504 5.22460938 39.42382812 C5.22750977 41.37385742 5.22750977 41.37385742 5.23046875 43.36328125 C5.23457764 44.54188721 5.23868652 45.72049316 5.24291992 46.93481445 C5.0101676 49.87170428 4.53744661 51.52721308 3 54 C2.98018066 52.91058105 2.96036133 51.82116211 2.93994141 50.69873047 C2.86360942 46.63942167 2.77493539 42.58045847 2.68261719 38.52148438 C2.64444112 36.76797329 2.60956876 35.01438692 2.578125 33.26074219 C2.53222641 30.73345114 2.4742743 28.20667322 2.4140625 25.6796875 C2.39673569 24.51214432 2.39673569 24.51214432 2.37905884 23.3210144 C2.25855141 18.83108981 1.58616947 15.25281874 0 11 C-0.1953125 8.0078125 -0.1953125 8.0078125 -0.125 5.125 C-0.10695313 4.15820312 -0.08890625 3.19140625 -0.0703125 2.1953125 C-0.04710937 1.47085937 -0.02390625 0.74640625 0 0 Z " fill="#350A6B" transform="translate(804,475)"/>
<path d="M0 0 C6.77279188 -0.07723088 13.54546687 -0.12908418 20.31860352 -0.16479492 C22.61389406 -0.17971086 24.909157 -0.20005081 27.2043457 -0.22631836 C41.46038794 -0.38516873 55.00206283 0.18942799 69 3 C69 3.33 69 3.66 69 4 C65.45806625 3.86024595 61.91653001 3.71211066 58.375 3.5625 C56.87646484 3.50352539 56.87646484 3.50352539 55.34765625 3.44335938 C53.88779297 3.38051758 53.88779297 3.38051758 52.3984375 3.31640625 C51.50817871 3.27974854 50.61791992 3.24309082 49.70068359 3.20532227 C47 3 47 3 44.25976562 2.5 C39.98251529 1.84393284 35.76678958 1.76700549 31.4453125 1.68359375 C30.09299026 1.6524221 30.09299026 1.6524221 28.71334839 1.62062073 C25.8506386 1.5555542 22.98784181 1.49644086 20.125 1.4375 C18.17707456 1.39427393 16.22915771 1.35065836 14.28125 1.30664062 C9.52092111 1.19991711 4.76050524 1.09853036 0 1 C0 0.67 0 0.34 0 0 Z " fill="#A38EC0" transform="translate(676,350)"/>
<path d="M0 0 C0.33 0 0.66 0 1 0 C1.02968644 3.2499799 1.04702345 6.49992383 1.0625 9.75 C1.07087891 10.65105469 1.07925781 11.55210937 1.08789062 12.48046875 C1.10859525 18.31917437 0.78665967 24.0453484 0.25610352 29.85839844 C-0.20219038 35.48025338 -0.36804172 41.1138976 -0.5625 46.75 C-0.60568359 47.9359375 -0.64886719 49.121875 -0.69335938 50.34375 C-0.79806918 53.22908676 -0.90024521 56.11448842 -1 59 C-1.33 59 -1.66 59 -2 59 C-2.05036807 53.65129894 -2.08616419 48.30274325 -2.10986328 42.95385742 C-2.11976843 41.14361154 -2.13329622 39.33338095 -2.15087891 37.52319336 C-2.27047536 24.87059209 -1.59389821 12.5544192 0 0 Z " fill="#AD95CA" transform="translate(190,606)"/>
<path d="M0 0 C0.33 0 0.66 0 1 0 C1.02689216 1.47906892 1.04634621 2.95827483 1.0625 4.4375 C1.07410156 5.26121094 1.08570313 6.08492188 1.09765625 6.93359375 C1 9 1 9 0 10 C-0.19427474 12.837028 -0.33187587 15.65922405 -0.4375 18.5 C-0.96003924 30.69333472 -1.96871765 42.84077578 -3 55 C-3.33 55 -3.66 55 -4 55 C-4.02892385 50.87501462 -4.04677267 46.75005515 -4.0625 42.625 C-4.07087891 41.449375 -4.07925781 40.27375 -4.08789062 39.0625 C-4.09111328 37.94101562 -4.09433594 36.81953125 -4.09765625 35.6640625 C-4.10289307 34.62717285 -4.10812988 33.5902832 -4.11352539 32.52197266 C-4 30 -4 30 -3 28 C-2.84655791 26.11527141 -2.75040429 24.22572126 -2.68359375 22.3359375 C-2.62075195 20.65371094 -2.62075195 20.65371094 -2.55664062 18.9375 C-2.51732422 17.761875 -2.47800781 16.58625 -2.4375 15.375 C-2.39431641 14.19164062 -2.35113281 13.00828125 -2.30664062 11.7890625 C-2.20032574 8.85949672 -2.09829358 5.92984412 -2 3 C-1.34 3 -0.68 3 0 3 C0 2.01 0 1.02 0 0 Z " fill="#D0BDE6" transform="translate(202,434)"/>
<path d="M0 0 C1 2 1 2 0.3125 4.8125 C-1.05398683 8.13111088 -2.54663223 10.39329675 -5 13 C-5.66 13 -6.32 13 -7 13 C-7.226875 13.61875 -7.45375 14.2375 -7.6875 14.875 C-9.37929835 17.61410209 -10.99244161 18.05024472 -14 19 C-13.67 19.66 -13.34 20.32 -13 21 C-13.66 21 -14.32 21 -15 21 C-15 21.66 -15 22.32 -15 23 C-15.99 23.33 -16.98 23.66 -18 24 C-18.99 23.34 -19.98 22.68 -21 22 C-19.948125 21.19949219 -19.948125 21.19949219 -18.875 20.3828125 C-11.26261601 14.40460877 -5.36147878 8.04221817 0 0 Z " fill="#422072" transform="translate(788,576)"/>
<path d="M0 0 C0.33 0 0.66 0 1 0 C1.02505615 0.64026123 1.0501123 1.28052246 1.07592773 1.94018555 C1.1923546 4.85613726 1.31486867 7.7718029 1.4375 10.6875 C1.47681641 11.69490234 1.51613281 12.70230469 1.55664062 13.74023438 C1.59853516 14.71669922 1.64042969 15.69316406 1.68359375 16.69921875 C1.73858032 18.04246216 1.73858032 18.04246216 1.79467773 19.4128418 C1.94659591 22.00034022 1.94659591 22.00034022 2.51367188 24.5 C3.03186474 27.16380267 3.11351414 29.5890823 3.09765625 32.30078125 C3.09282227 33.76547852 3.09282227 33.76547852 3.08789062 35.25976562 C3.07951172 36.26716797 3.07113281 37.27457031 3.0625 38.3125 C3.05798828 39.33923828 3.05347656 40.36597656 3.04882812 41.42382812 C3.03708184 43.94927882 3.02065565 46.47460905 3 49 C2.67 49 2.34 49 2 49 C0.31317293 37.76462869 -0.25890307 26.851443 -0.125 15.5 C-0.11492835 13.98307897 -0.10581005 12.4661513 -0.09765625 10.94921875 C-0.07602408 7.29933692 -0.0417367 3.6497141 0 0 Z " fill="#DDCDEE" transform="translate(470,600)"/>
<path d="M0 0 C0.33 0 0.66 0 1 0 C0.90739778 6.7080101 0.80004989 13.41567 0.68261719 20.12329102 C0.64441659 22.40351049 0.60954838 24.68378839 0.578125 26.96411133 C0.53228076 30.24842154 0.47431786 33.53233262 0.4140625 36.81640625 C0.40251129 37.83021866 0.39096008 38.84403107 0.37905884 39.88856506 C0.26722877 45.2942425 -0.22094363 49.88443266 -2 55 C-2.33 55 -2.66 55 -3 55 C-3.06943069 50.6258666 -3.06335958 46.51420753 -2.52734375 42.1640625 C-1.63657346 34.54951505 -1.6374049 26.8607044 -1.44775391 19.20288086 C-1.39566537 17.15207412 -1.33860205 15.1014465 -1.28125 13.05078125 C-1.25095703 11.84075439 -1.22066406 10.63072754 -1.18945312 9.3840332 C-1.01040296 6.1858188 -0.59284655 3.14514695 0 0 Z " fill="#BDAAD4" transform="translate(253,551)"/>
<path d="M0 0 C1.33332095 2.6666419 0.67102033 4.16680303 0 7 C-0.66 7 -1.32 7 -2 7 C-2 8.32 -2 9.64 -2 11 C-2.66 11 -3.32 11 -4 11 C-4.04898437 11.66386719 -4.09796875 12.32773437 -4.1484375 13.01171875 C-4.94910748 22.46790733 -4.94910748 22.46790733 -7 26 C-7.99 26.33 -8.98 26.66 -10 27 C-11.01754868 28.8653245 -11.01754868 28.8653245 -11.6875 31.0625 C-11.93886719 31.79597656 -12.19023437 32.52945313 -12.44921875 33.28515625 C-12.63097656 33.85105469 -12.81273437 34.41695312 -13 35 C-13.66 34.67 -14.32 34.34 -15 34 C-13.02 28.555 -13.02 28.555 -11 23 C-10.34 23 -9.68 23 -9 23 C-8.9175 22.175 -8.835 21.35 -8.75 20.5 C-7.97959633 16.90478289 -6.75446953 14.31298068 -5.05078125 11.09765625 C-3.97828379 8.95664831 -3.12949479 6.81225413 -2.3125 4.5625 C-1 1 -1 1 0 0 Z " fill="#5F4088" transform="translate(386,496)"/>
<path d="M0 0 C0.66 0 1.32 0 2 0 C1.05066101 3.35433109 0.10251165 6.69246505 -1 10 C-1.66 10 -2.32 10 -3 10 C-3 10.66 -3 11.32 -3 12 C-17.85 12 -32.7 12 -48 12 C-48 11.67 -48 11.34 -48 11 C-33.48 11 -18.96 11 -4 11 C-3.67 9.68 -3.34 8.36 -3 7 C-2.34 6.34 -1.68 5.68 -1 5 C-0.35232207 2.42938689 -0.35232207 2.42938689 0 0 Z " fill="#CDBDE0" transform="translate(387,616)"/>
<path d="M0 0 C0.33 0 0.66 0 1 0 C1.02718316 2.85423192 1.04692705 5.70820015 1.0625 8.5625 C1.07087891 9.36236328 1.07925781 10.16222656 1.08789062 10.98632812 C1.10210832 14.46966285 1.03414581 17.76553213 0.53125 21.21875 C-0.29512806 27.10061735 -0.37275134 33.00552137 -0.5625 38.9375 C-0.60568359 40.19369141 -0.64886719 41.44988281 -0.69335938 42.74414062 C-0.79893619 45.82932968 -0.90104551 48.91459263 -1 52 C-1.33 52 -1.66 52 -2 52 C-2.02474682 47.08870815 -2.04288223 42.17745273 -2.05493164 37.26611328 C-2.05995569 35.59585945 -2.06677605 33.92561001 -2.07543945 32.25537109 C-2.08758946 29.85252804 -2.09324763 27.44974321 -2.09765625 25.046875 C-2.10281754 24.30193787 -2.10797882 23.55700073 -2.11329651 22.78948975 C-2.11366607 19.36242262 -1.9933217 16.28589308 -1 13 C-0.7801777 10.75292759 -0.59516013 8.50228762 -0.4375 6.25 C-0.35371094 5.07953125 -0.26992187 3.9090625 -0.18359375 2.703125 C-0.12300781 1.81109375 -0.06242188 0.9190625 0 0 Z " fill="#705297" transform="translate(193,568)"/>
<path d="M0 0 C4.3888853 6.58332795 3.11886895 15.31034756 3.0625 22.9375 C3.05798828 24.09830078 3.05347656 25.25910156 3.04882812 26.45507812 C3.03710647 29.30343934 3.0206976 32.15169222 3 35 C2.67 35 2.34 35 2 35 C0.74059296 23.30024254 -0.35640731 11.7812416 0 0 Z " fill="#74549B" transform="translate(466,501)"/>
<path d="M0 0 C0.33 0 0.66 0 1 0 C3.38776806 21.60739583 3.38776806 21.60739583 3 31 C-0.13217778 27.60409791 -0.35738037 25.25487922 -0.29296875 20.703125 C-0.28330078 19.49785156 -0.27363281 18.29257812 -0.26367188 17.05078125 C-0.23853516 15.79652344 -0.21339844 14.54226563 -0.1875 13.25 C-0.17396484 11.98027344 -0.16042969 10.71054687 -0.14648438 9.40234375 C-0.1111324 6.26780156 -0.06178248 3.13411455 0 0 Z " fill="#9E89BB" transform="translate(524,496)"/>
<path d="M0 0 C0.33 0 0.66 0 1 0 C2.30618118 10.39113779 3.33358056 20.51074452 3 31 C2.67 31 2.34 31 2 31 C-0.36096509 24.52128871 -0.23053565 18.40202165 -0.125 11.5625 C-0.11597656 10.44939453 -0.10695313 9.33628906 -0.09765625 8.18945312 C-0.0742224 5.45940977 -0.041414 2.7298199 0 0 Z " fill="#8368A7" transform="translate(519,435)"/>
<path d="M0 0 C8.2691636 1.06698885 12.8604722 4.48852411 19 10 C18.67 11.32 18.34 12.64 18 14 C17.55269531 13.60167969 17.10539063 13.20335937 16.64453125 12.79296875 C13.24047894 9.80988666 9.95557672 7.23135097 6 5 C3.97681922 3.70211044 1.97133986 2.37535339 0 1 C0 0.67 0 0.34 0 0 Z " fill="#512E7E" transform="translate(758,415)"/>
<path d="M0 0 C0.33 0 0.66 0 1 0 C1.13852709 7.79311062 0.73633492 15.43110717 0 23.1875 C-0.09539062 24.23486328 -0.19078125 25.28222656 -0.2890625 26.36132812 C-0.52163461 28.90799269 -0.75866925 31.45415315 -1 34 C-1.33 34 -1.66 34 -2 34 C-2.33 26.08 -2.66 18.16 -3 10 C-2.34 10 -1.68 10 -1 10 C-0.67 6.7 -0.34 3.4 0 0 Z " fill="#61438B" transform="translate(258,455)"/>
<path d="M0 0 C1.8253125 0.0309375 1.8253125 0.0309375 3.6875 0.0625 C3.3575 1.0525 3.0275 2.0425 2.6875 3.0625 C-6.2225 3.0625 -15.1325 3.0625 -24.3125 3.0625 C-24.3125 2.7325 -24.3125 2.4025 -24.3125 2.0625 C-22.77529297 1.97162109 -22.77529297 1.97162109 -21.20703125 1.87890625 C-19.84634305 1.79444974 -18.48566657 1.70980433 -17.125 1.625 C-16.45146484 1.58568359 -15.77792969 1.54636719 -15.08398438 1.50585938 C-9.99841971 1.18336015 -5.08764256 -0.08623123 0 0 Z " fill="#51327F" transform="translate(656.3125,350.9375)"/>
<path d="M0 0 C0.33 0 0.66 0 1 0 C1.5988915 7.01558615 2.13810221 13.95678743 2 21 C1.67 21 1.34 21 1 21 C1 18.69 1 16.38 1 14 C0.01 14.33 -0.98 14.66 -2 15 C-2.3690205 4.44191344 -2.3690205 4.44191344 0 0 Z " fill="#5A338D" transform="translate(211,364)"/>
<path d="M0 0 C0.33 0.99 0.66 1.98 1 3 C2.33076989 3.34342449 3.66431979 3.67619874 5 4 C7.56687367 7.8503105 6.83288724 9.58569763 6 14 C6.66 14 7.32 14 8 14 C8.33 16.31 8.66 18.62 9 21 C8.34 20.67 7.68 20.34 7 20 C7 18.35 7 16.7 7 15 C6.01 14.67 5.02 14.34 4 14 C3.34 10.7 2.68 7.4 2 4 C1.34 4 0.68 4 0 4 C0 2.68 0 1.36 0 0 Z " fill="#6F4F98" transform="translate(262,451)"/>
<path d="M0 0 C0.33 0 0.66 0 1 0 C1.33947025 3.49943267 1.67044773 6.99962052 2 10.5 C2.09539063 11.48226562 2.19078125 12.46453125 2.2890625 13.4765625 C2.80588848 19.01398367 3.10592737 24.43881298 3 30 C2.67 30 2.34 30 2 30 C-0.66641331 24.01631659 -0.22314726 18.03477075 -0.125 11.625 C-0.11597656 10.50738281 -0.10695313 9.38976562 -0.09765625 8.23828125 C-0.07418346 5.49196538 -0.04134728 2.74609528 0 0 Z " fill="#8367A9" transform="translate(529,577)"/>
<path d="M0 0 C1.65 0 3.3 0 5 0 C4.67 0.99 4.34 1.98 4 3 C-2.46794133 4.51233701 -8.35590042 5.21432579 -15 5 C-10.12206417 1.74804278 -5.77608621 1.88674341 0 2 C0 1.34 0 0.68 0 0 Z " fill="#310B67" transform="translate(741,612)"/>
<path d="M0 0 C1.67641098 4.09086452 0.2409319 7.71511018 -0.9375 11.75 C-1.13279297 12.44738281 -1.32808594 13.14476562 -1.52929688 13.86328125 C-2.0108246 15.57798973 -2.50425157 17.28934877 -3 19 C-3.33 17.68 -3.66 16.36 -4 15 C-4.66 15 -5.32 15 -6 15 C-6 13.68 -6 12.36 -6 11 C-4.68 10.67 -3.36 10.34 -2 10 C-2 7.69 -2 5.38 -2 3 C-1.34 3 -0.68 3 0 3 C0 2.01 0 1.02 0 0 Z " fill="#5C3989" transform="translate(866,548)"/>
<path d="M0 0 C0.33 0 0.66 0 1 0 C1.21824777 6.0018137 0.5056904 11.19233704 -1 17 C-1.66 17 -2.32 17 -3 17 C-2.88597936 14.72858891 -2.75841495 12.45785448 -2.625 10.1875 C-2.55539062 8.92292969 -2.48578125 7.65835938 -2.4140625 6.35546875 C-2 3 -2 3 0 0 Z " fill="#411C73" transform="translate(805,533)"/>
<path d="M0 0 C0.33 0 0.66 0 1 0 C1.02689216 1.47906892 1.04634621 2.95827483 1.0625 4.4375 C1.07410156 5.26121094 1.08570313 6.08492188 1.09765625 6.93359375 C1 9 1 9 0 10 C-0.23678716 12.69235776 -0.42198025 15.36498156 -0.5625 18.0625 C-0.60568359 18.82111328 -0.64886719 19.57972656 -0.69335938 20.36132812 C-0.79973633 22.24065438 -0.90039934 24.12030244 -1 26 C-1.33 26 -1.66 26 -2 26 C-2 18.41 -2 10.82 -2 3 C-1.34 3 -0.68 3 0 3 C0 2.01 0 1.02 0 0 Z " fill="#DFCDF2" transform="translate(202,434)"/>
<path d="M0 0 C6.57315478 -0.36517527 11.79485526 0.86380263 18 3 C18 3.66 18 4.32 18 5 C11.25 5.125 11.25 5.125 9 4 C9 3.34 9 2.68 9 2 C6.03 2 3.06 2 0 2 C0 1.34 0 0.68 0 0 Z " fill="#320B69" transform="translate(725,403)"/>
<path d="M0 0 C0.99 0.33 1.98 0.66 3 1 C1.68 3.64 0.36 6.28 -1 9 C-1.66 9 -2.32 9 -3 9 C-3.28875 9.61875 -3.5775 10.2375 -3.875 10.875 C-5 13 -5 13 -7 15 C-7.33 13.68 -7.66 12.36 -8 11 C-6.68 10.67 -5.36 10.34 -4 10 C-3.8453125 8.9171875 -3.8453125 8.9171875 -3.6875 7.8125 C-2.94013068 4.75508007 -1.71954811 2.61670365 0 0 Z " fill="#452375" transform="translate(848,594)"/>
<path d="M0 0 C0.33 0 0.66 0 1 0 C1.06058594 1.26457031 1.12117187 2.52914063 1.18359375 3.83203125 C1.26800904 5.49219871 1.35265655 7.15235437 1.4375 8.8125 C1.47681641 9.64587891 1.51613281 10.47925781 1.55664062 11.33789062 C1.59853516 12.14033203 1.64042969 12.94277344 1.68359375 13.76953125 C1.72025146 14.50792236 1.75690918 15.24631348 1.79467773 16.00708008 C1.94842141 18.207495 1.94842141 18.207495 3 21 C3.06740865 22.56118428 3.08514456 24.1250252 3.0625 25.6875 C3.05347656 26.49574219 3.04445313 27.30398438 3.03515625 28.13671875 C3.02355469 28.75160156 3.01195312 29.36648438 3 30 C2.67 30 2.34 30 2 30 C-0.00060017 23.38384194 -0.24246007 17.38496734 -0.125 10.5 C-0.11597656 9.48679687 -0.10695313 8.47359375 -0.09765625 7.4296875 C-0.07429007 4.95287199 -0.04153168 2.47656621 0 0 Z " fill="#715398" transform="translate(516,403)"/>
<path d="M0 0 C0.33 0 0.66 0 1 0 C0.03644647 16.8929385 0.03644647 16.8929385 -1 24 C-1.33 24 -1.66 24 -2 24 C-2.05425013 21.12474331 -2.09379277 18.25052354 -2.125 15.375 C-2.14175781 14.56675781 -2.15851563 13.75851562 -2.17578125 12.92578125 C-2.21420986 8.19906185 -1.82737094 4.44612298 0 0 Z " fill="#C7B3DB" transform="translate(205,404)"/>
<path d="M0 0 C1.8871875 0.0309375 1.8871875 0.0309375 3.8125 0.0625 C3.8125 0.3925 3.8125 0.7225 3.8125 1.0625 C6.4525 1.3925 9.0925 1.7225 11.8125 2.0625 C11.8125 2.3925 11.8125 2.7225 11.8125 3.0625 C4.63199816 3.77398265 -2.05778851 4.32068438 -9.1875 3.0625 C-6.30623588 0.18123588 -3.90053134 -0.06394314 0 0 Z " fill="#664795" transform="translate(613.1875,354.9375)"/>
<path d="M0 0 C1.72862632 3.45725264 0.04226213 6.84313597 -0.96484375 10.421875 C-2 13 -2 13 -4.6875 15.1875 C-5.450625 15.455625 -6.21375 15.72375 -7 16 C-5.60668753 10.04675579 -3.11464243 5.24258516 0 0 Z " fill="#6A4D90" transform="translate(434,391)"/>
<path d="M0 0 C4 1.33333333 8 2.66666667 12 4 C12 4.66 12 5.32 12 6 C3.42857143 5 3.42857143 5 0 4 C0 2.68 0 1.36 0 0 Z " fill="#411F6F" transform="translate(765,359)"/>
<path d="M0 0 C0.33 0.66 0.66 1.32 1 2 C0.34 2 -0.32 2 -1 2 C-1 2.66 -1 3.32 -1 4 C-1.99 4 -2.98 4 -4 4 C-4 5.32 -4 6.64 -4 8 C-7.87493656 9.07637127 -9.52452927 8.94566951 -13 7 C-12.31292969 6.66226563 -11.62585938 6.32453125 -10.91796875 5.9765625 C-10.01691406 5.53054688 -9.11585938 5.08453125 -8.1875 4.625 C-7.29417969 4.18414063 -6.40085937 3.74328125 -5.48046875 3.2890625 C-2.85443619 1.98133095 -2.85443619 1.98133095 0 0 Z " fill="#5B3B86" transform="translate(766,599)"/>
<path d="M0 0 C0.66 0 1.32 0 2 0 C5.36561591 6.0605925 7.61330541 11.03949747 8 18 C3.60225719 12.7645919 1.72276601 6.49350266 0 0 Z " fill="#340E67" transform="translate(346,519)"/>
<path d="M0 0 C2.54344286 2.27301934 3.87616437 4.45086481 5.25 7.5625 C5.60578125 8.34753906 5.9615625 9.13257813 6.328125 9.94140625 C7 12 7 12 6 14 C3 13 3 13 1.3125 10.375 C-0.12813149 6.67051902 -0.23634374 3.93906235 0 0 Z " fill="#5B3D84" transform="translate(314,443)"/>
<path d="M0 0 C0.82242188 0.05220703 1.64484375 0.10441406 2.4921875 0.15820312 C4.49522899 0.28630462 6.49768871 0.42345061 8.5 0.5625 C8.5 0.8925 8.5 1.2225 8.5 1.5625 C-0.27387981 2.27007095 -8.7478303 2.93002652 -17.5 1.5625 C-17.5 1.2325 -17.5 0.9025 -17.5 0.5625 C-11.52842601 -0.36199827 -6.01758541 -0.4263273 0 0 Z " fill="#462278" transform="translate(728.5,352.4375)"/>
<path d="M0 0 C0.66 0 1.32 0 2 0 C1.33300065 4.40219569 -0.08103484 8.00855246 -2 12 C-2.99 12.495 -2.99 12.495 -4 13 C-3.67 10.36 -3.34 7.72 -3 5 C-2.01 4.67 -1.02 4.34 0 4 C0 2.68 0 1.36 0 0 Z " fill="#340A69" transform="translate(397,474)"/>
<path d="M0 0 C2 1 2 1 3.125 3.0625 C4.2583306 6.86725273 4.13434296 10.0368828 4 14 C4.66 14 5.32 14 6 14 C6 16.31 6 18.62 6 21 C3.43302748 18.02231187 2.62845548 16.09900741 2.4375 12.1875 C2.1287082 7.84511537 1.34738396 4.13197748 0 0 Z " fill="#A288BF" transform="translate(797,460)"/>
<path d="M0 0 C1.32 0.33 2.64 0.66 4 1 C-0.40198437 4.77312946 -4.36996824 6.74888183 -10 8 C-9.34 7.67 -8.68 7.34 -8 7 C-7.67 6.01 -7.34 5.02 -7 4 C-6.01 4 -5.02 4 -4 4 C-4 3.34 -4 2.68 -4 2 C-2.68 2 -1.36 2 0 2 C0 1.34 0 0.68 0 0 Z " fill="#604187" transform="translate(801,642)"/>
<path d="M0 0 C1.34391145 3.72507 0.65810293 6.41088861 -0.3125 10.1875 C-0.70888672 11.78658203 -0.70888672 11.78658203 -1.11328125 13.41796875 C-2 16 -2 16 -4 17 C-3.67373505 10.67721029 -3.38495108 5.44535609 0 0 Z " fill="#C7B4DC" transform="translate(802,539)"/>
<path d="M0 0 C0.66 0.33 1.32 0.66 2 1 C2.4140625 3.28515625 2.4140625 3.28515625 2.625 6.0625 C2.69976563 6.98160156 2.77453125 7.90070313 2.8515625 8.84765625 C2.92503906 9.91306641 2.92503906 9.91306641 3 11 C2.01 11 1.02 11 0 11 C-0.33 12.32 -0.66 13.64 -1 15 C-0.67 10.05 -0.34 5.1 0 0 Z " fill="#705098" transform="translate(863,455)"/>
<path d="M0 0 C0.33 0 0.66 0 1 0 C1.05425013 2.87525669 1.09379277 5.74947646 1.125 8.625 C1.14175781 9.43324219 1.15851563 10.24148438 1.17578125 11.07421875 C1.21420986 15.80093815 0.82737094 19.55387702 -1 24 C-1.33 24 -1.66 24 -2 24 C-2.09765625 17.84765625 -2.09765625 17.84765625 -2 16 C-1.67 15.67 -1.34 15.34 -1 15 C-0.76346477 12.47403741 -0.57826308 9.96892793 -0.4375 7.4375 C-0.39431641 6.72658203 -0.35113281 6.01566406 -0.30664062 5.28320312 C-0.20028223 3.52238088 -0.09961154 1.7612168 0 0 Z " fill="#7B5D9F" transform="translate(203,428)"/>
<path d="M0 0 C2.80561393 1.40280696 3.00680507 3.0509005 4.125 5.9375 C4.47820312 6.83339844 4.83140625 7.72929687 5.1953125 8.65234375 C6 11 6 11 6 13 C5.34 13 4.68 13 4 13 C3.67 13.99 3.34 14.98 3 16 C2.86722656 15.26394531 2.73445313 14.52789062 2.59765625 13.76953125 C2.42105469 12.79371094 2.24445313 11.81789063 2.0625 10.8125 C1.80146484 9.36810547 1.80146484 9.36810547 1.53515625 7.89453125 C1.0476265 5.25760028 0.53328895 2.6280095 0 0 Z " fill="#65478E" transform="translate(303,418)"/>
<path d="M0 0 C0.99 0.33 1.98 0.66 3 1 C-0.15221101 5.41309542 -3.55463907 8.00793014 -8 11 C-7.67 9.35 -7.34 7.7 -7 6 C-5.35 5.67 -3.7 5.34 -2 5 C-2 4.01 -2 3.02 -2 2 C-1.34 2 -0.68 2 0 2 C0 1.34 0 0.68 0 0 Z " fill="#553480" transform="translate(823,625)"/>
<path d="M0 0 C0.66 0 1.32 0 2 0 C2.38281159 5.23175837 1.21854707 8.37802694 -1 13 C-1.33 13 -1.66 13 -2 13 C-2.19294408 8.17639811 -1.75747614 4.50353262 0 0 Z " fill="#4B2A79" transform="translate(857,573)"/>
<path d="M0 0 C0.99 0 1.98 0 3 0 C2.42415568 2.38564077 1.77772405 4.66682784 1 7 C0.01 7 -0.98 7 -2 7 C-2.66 8.32 -3.32 9.64 -4 11 C-3.47731534 8.23723823 -2.89130413 5.6739124 -2 3 C-1.34 3 -0.68 3 0 3 C0 2.01 0 1.02 0 0 Z " fill="#38126B" transform="translate(792,570)"/>
<path d="M0 0 C0.66 0 1.32 0 2 0 C2 1.32 2 2.64 2 4 C2.99 4.33 3.98 4.66 5 5 C6.17755913 7.94389782 6.03348696 8.89953913 5 12 C5.66 12 6.32 12 7 12 C6.67 13.32 6.34 14.64 6 16 C6 15.01 6 14.02 6 13 C5.34 13 4.68 13 4 13 C3.32942113 11.2097939 2.6636531 9.41778511 2 7.625 C1.62875 6.62726562 1.2575 5.62953125 0.875 4.6015625 C0 2 0 2 0 0 Z " fill="#4B277A" transform="translate(306,550)"/>
<path d="M0 0 C0.33 0 0.66 0 1 0 C1.33 3.96 1.66 7.92 2 12 C2.33 12 2.66 12 3 12 C3 14.31 3 16.62 3 19 C2.01 18.67 1.02 18.34 0 18 C0 12.06 0 6.12 0 0 Z " fill="#371070" transform="translate(251,516)"/>
<path d="M0 0 C1 2 1 2 0.4375 4.9375 C-1.36597611 8.77968824 -3.12874784 9.4851622 -7 11 C-5.22054913 6.95579349 -2.60470327 3.53921513 0 0 Z " fill="#66488F" transform="translate(788,576)"/>
<path d="M0 0 C0.99 0.495 0.99 0.495 2 1 C2 1.66 2 2.32 2 3 C2.99 3 3.98 3 5 3 C5.33 2.01 5.66 1.02 6 0 C6.66 0.33 7.32 0.66 8 1 C7.01 3.31 6.02 5.62 5 8 C2.21611025 6.29374499 1.14615794 5.52373261 0.25 2.3125 C0.1675 1.549375 0.085 0.78625 0 0 Z " fill="#D2BEE5" transform="translate(358,541)"/>
<path d="M0 0 C1.33332095 2.6666419 0.67102033 4.16680303 0 7 C-0.66 7 -1.32 7 -2 7 C-2 8.32 -2 9.64 -2 11 C-2.66 11 -3.32 11 -4 11 C-4.12375 11.639375 -4.2475 12.27875 -4.375 12.9375 C-4.58125 13.618125 -4.7875 14.29875 -5 15 C-5.99 15.495 -5.99 15.495 -7 16 C-5.35433477 10.31497465 -2.70967216 5.23318364 0 0 Z " fill="#745897" transform="translate(386,496)"/>
<path d="M0 0 C0.66 0 1.32 0 2 0 C2 2.64 2 5.28 2 8 C1.34 7.34 0.68 6.68 0 6 C-0.99 6.99 -1.98 7.98 -3 9 C-2.25 2.25 -2.25 2.25 0 0 Z " fill="#C9AFE1" transform="translate(461,450)"/>
<path d="M0 0 C0.66 0 1.32 0 2 0 C2 0.66 2 1.32 2 2 C2.66 2 3.32 2 4 2 C4.99 3.98 5.98 5.96 7 8 C6.34 8.66 5.68 9.32 5 10 C0 4.5 0 4.5 0 0 Z " fill="#441F74" transform="translate(783,433)"/>
<path d="M0 0 C-1.65 0.66 -3.3 1.32 -5 2 C-5 2.33 -5 2.66 -5 3 C-8.3 3 -11.6 3 -15 3 C-12.74829688 0.74829688 -11.67012422 0.48526 -8.625 -0.1875 C-7.85414063 -0.36667969 -7.08328125 -0.54585937 -6.2890625 -0.73046875 C-3.88917728 -1.01304909 -2.28329465 -0.73503321 0 0 Z " fill="#441C78" transform="translate(716,667)"/>
<path d="M0 0 C-5.71735105 2.45029331 -9.79029227 3.33266291 -16 3 C-13.06473313 1.04315542 -11.38453435 0.48235576 -8 -0.1875 C-7.13375 -0.36667969 -6.2675 -0.54585937 -5.375 -0.73046875 C-3 -1 -3 -1 0 0 Z " fill="#4A2777" transform="translate(785,654)"/>
<path d="M0 0 C0.66 0.33 1.32 0.66 2 1 C1.67 3.97 1.34 6.94 1 10 C0.34 10 -0.32 10 -1 10 C-1 10.66 -1 11.32 -1 12 C-1.66 12 -2.32 12 -3 12 C-3 11.01 -3 10.02 -3 9 C-2.34 9 -1.68 9 -1 9 C-0.67 6.03 -0.34 3.06 0 0 Z " fill="#320C6C" transform="translate(432,504)"/>
<path d="M0 0 C0.66 0 1.32 0 2 0 C1.731875 0.66 1.46375 1.32 1.1875 2 C-0.25705047 5.64939067 -1.62871178 9.32245433 -3 13 C-4.1875 11.4375 -4.1875 11.4375 -5 9 C-3.75242879 5.38204349 -2.71982714 2.71982714 0 0 Z " fill="#4A277A" transform="translate(447,477)"/>
<path d="M0 0 C0.66 0 1.32 0 2 0 C1.67 1.65 1.34 3.3 1 5 C0.34 5 -0.32 5 -1 5 C-1 6.32 -1 7.64 -1 9 C-1.66 9 -2.32 9 -3 9 C-3.33 9.99 -3.66 10.98 -4 12 C-3.53680089 7.27536912 -2.90108294 3.82942948 0 0 Z " fill="#330B68" transform="translate(437,388)"/>
<path d="M0 0 C1 2 1 2 0.375 4.125 C-1.45301146 7.94720578 -3.69305616 11.45153294 -6 15 C-6.33 14.34 -6.66 13.68 -7 13 C-6.328125 11.23046875 -6.328125 11.23046875 -5.25 9.1875 C-4.87875 8.47980469 -4.5075 7.77210938 -4.125 7.04296875 C-2.81061168 4.65607607 -1.44421011 2.31073617 0 0 Z " fill="#D0BFE2" transform="translate(416,553)"/>
<path d="M0 0 C1.32 0 2.64 0 4 0 C4 2.64 4 5.28 4 8 C4.66 8 5.32 8 6 8 C6 9.65 6 11.3 6 13 C2.57068046 9.2440786 1.43570917 4.76533255 0 0 Z " fill="#563584" transform="translate(291,517)"/>
<path d="M0 0 C0.99 0.33 1.98 0.66 3 1 C4.10228696 5.40914783 4.07654536 9.48382401 4 14 C2.30566082 10.9530371 1.50532888 8.17178534 0.875 4.75 C0.70742188 3.85796875 0.53984375 2.9659375 0.3671875 2.046875 C0.18542969 1.03367187 0.18542969 1.03367187 0 0 Z " fill="#37106A" transform="translate(859,449)"/>
<path d="M0 0 C0.66 0 1.32 0 2 0 C2 0.99 2 1.98 2 3 C1.34 3 0.68 3 0 3 C-0.33 5.64 -0.66 8.28 -1 11 C-1.66 11 -2.32 11 -3 11 C-2.25 3.375 -2.25 3.375 0 0 Z " fill="#330967" transform="translate(368,540)"/>
<path d="M0 0 C1.1875 1.625 1.1875 1.625 2 4 C0.625 7.25 0.625 7.25 -1 10 C-1.66 10 -2.32 10 -3 10 C-2.39009109 6.44219804 -1.4216319 3.3171411 0 0 Z " fill="#492677" transform="translate(392,483)"/>
<path d="M0 0 C0.33 0.66 0.66 1.32 1 2 C1.66 2.33 2.32 2.66 3 3 C2.01 5.31 1.02 7.62 0 10 C-0.33 9.34 -0.66 8.68 -1 8 C-1.66 8 -2.32 8 -3 8 C-1.125 2.25 -1.125 2.25 0 0 Z " fill="#522C81" transform="translate(408,447)"/>
<path d="M0 0 C2.96404505 2.80804268 5.44499019 5.18315774 7 9 C6.01 9.495 6.01 9.495 5 10 C0 4.5 0 4.5 0 0 Z " fill="#4B2977" transform="translate(835,402)"/>
<path d="M0 0 C0.66 0 1.32 0 2 0 C2.33 1.65 2.66 3.3 3 5 C2.01 4.67 1.02 4.34 0 4 C-0.33 5.65 -0.66 7.3 -1 9 C-1.66 9 -2.32 9 -3 9 C-2.44271087 5.65626525 -1.64826111 2.96687001 0 0 Z " fill="#360F68" transform="translate(452,357)"/>
<path d="M0 0 C4.87685861 1.35468295 6.48592381 3.71675909 9 8 C8.01 8.33 7.02 8.66 6 9 C6 8.34 6 7.68 6 7 C5.01 6.67 4.02 6.34 3 6 C3.33 5.01 3.66 4.02 4 3 C2.68 3 1.36 3 0 3 C0 2.01 0 1.02 0 0 Z " fill="#52307E" transform="translate(818,386)"/>
<path d="M0 0 C0.66 0 1.32 0 2 0 C1.67 2.64 1.34 5.28 1 8 C0.01 8 -0.98 8 -2 8 C-2 6.68 -2 5.36 -2 4 C-1.34 4 -0.68 4 0 4 C0 2.68 0 1.36 0 0 Z " fill="#39126C" transform="translate(384,615)"/>
<path d="M0 0 C0.33 0.66 0.66 1.32 1 2 C0.71125 2.556875 0.4225 3.11375 0.125 3.6875 C-1.35485704 6.72942835 -1.61470012 9.66073437 -2 13 C-2.99 13.33 -3.98 13.66 -5 14 C-4.03603575 8.79459302 -3.12319499 4.40086567 0 0 Z " fill="#B8A3D0" transform="translate(436,505)"/>
<path d="M0 0 C0.33 0 0.66 0 1 0 C1.36552803 1.41377782 1.71695495 2.83120576 2.0625 4.25 C2.25972656 5.03890625 2.45695313 5.8278125 2.66015625 6.640625 C3.01497267 9.10394822 2.76877544 10.65604132 2 13 C1.34 12.67 0.68 12.34 0 12 C0 8.04 0 4.08 0 0 Z " fill="#67468E" transform="translate(866,470)"/>
<path d="M0 0 C0.66 1.32 1.32 2.64 2 4 C1.34 4 0.68 4 0 4 C0 4.66 0 5.32 0 6 C-0.99 6.33 -1.98 6.66 -3 7 C-3.99 6.34 -4.98 5.68 -6 5 C-4.02 3.35 -2.04 1.7 0 0 Z " fill="#5B3A85" transform="translate(773,593)"/>
<path d="M0 0 C1.90401138 1.90401138 2.93520439 3.33425686 3.19921875 6.046875 C3.1886578 8.03233273 3.09915043 10.0169914 3 12 C2.67 10.68 2.34 9.36 2 8 C1.34 8 0.68 8 0 8 C0 5.36 0 2.72 0 0 Z " fill="#593786" transform="translate(526,557)"/>
<path d="M0 0 C0.99 0 1.98 0 3 0 C4 3 4 3 3 6 C3.99 6.33 4.98 6.66 6 7 C5.67 7.99 5.34 8.98 5 10 C4.34 10 3.68 10 3 10 C2.01 6.7 1.02 3.4 0 0 Z " fill="#553382" transform="translate(299,535)"/>
<path d="M0 0 C0.33 0.66 0.66 1.32 1 2 C1.66 2.33 2.32 2.66 3 3 C2.01 5.64 1.02 8.28 0 11 C-0.33 11 -0.66 11 -1 11 C-1.125 3.375 -1.125 3.375 0 0 Z " fill="#4C297E" transform="translate(451,464)"/>
<path d="M0 0 C0.99 0.33 1.98 0.66 3 1 C1.8125 3 1.8125 3 0 5 C-2.6875 5.25 -2.6875 5.25 -5 5 C-4.34 4.67 -3.68 4.34 -3 4 C-3 3.34 -3 2.68 -3 2 C-2.01 2 -1.02 2 0 2 C0 1.34 0 0.68 0 0 Z " fill="#3E186B" transform="translate(813,633)"/>
<path d="M0 0 C0.99 0.33 1.98 0.66 3 1 C1.68 3.64 0.36 6.28 -1 9 C-1.33 9 -1.66 9 -2 9 C-2.25 3.375 -2.25 3.375 0 0 Z " fill="#65468E" transform="translate(848,594)"/>
<path d="M0 0 C0.66 0 1.32 0 2 0 C0.95902388 3.86648272 -0.03698408 7.49461443 -2 11 C-3.33332095 8.3333581 -2.67102033 6.83319697 -2 4 C-1.34 4 -0.68 4 0 4 C0 2.68 0 1.36 0 0 Z " fill="#6F5395" transform="translate(416,547)"/>
<path d="M0 0 C0.95904856 3.83619425 0.91892116 5.32431536 0 9 C-0.99 9 -1.98 9 -3 9 C-2.01 6.03 -1.02 3.06 0 0 Z " fill="#573783" transform="translate(414,433)"/>
<path d="M0 0 C3.80984844 2.77079887 4.06840752 6.62868145 5 11 C4.34 11 3.68 11 3 11 C0 4.5 0 4.5 0 0 Z " fill="#300C63" transform="translate(287,388)"/>
<path d="M0 0 C2.7972908 2.06756277 3.02692273 3.14440371 3.6875 6.6875 C3.790625 7.780625 3.89375 8.87375 4 10 C1.28312788 7.65361044 0.05484124 5.42823404 -1 2 C-0.67 1.34 -0.34 0.68 0 0 Z " fill="#341265" transform="translate(270,354)"/>
<path d="M0 0 C1.41377341 2.63904371 2.37240135 5.07120629 3 8 C1.68 7.34 0.36 6.68 -1 6 C-1.042721 4.33388095 -1.04063832 2.66617115 -1 1 C-0.67 0.67 -0.34 0.34 0 0 Z " fill="#38106F" transform="translate(317,569)"/>
<path d="M0 0 C0.66 0.33 1.32 0.66 2 1 C2 3.64 2 6.28 2 9 C1.01 8.34 0.02 7.68 -1 7 C-0.67 4.69 -0.34 2.38 0 0 Z " fill="#442175" transform="translate(524,523)"/>
<path d="M0 0 C0.99 0 1.98 0 3 0 C1.87548273 2.9719385 0.77706209 5.33440687 -1 8 C-1.33 5.69 -1.66 3.38 -2 1 C-1.34 1 -0.68 1 0 1 C0 0.67 0 0.34 0 0 Z " fill="#432077" transform="translate(435,501)"/>
<path d="M0 0 C2.50298434 2.93828597 3.46930939 5.17902761 4 9 C2.68 8.67 1.36 8.34 0 8 C0 5.36 0 2.72 0 0 Z " fill="#715694" transform="translate(856,435)"/>
<path d="M0 0 C0.66 0 1.32 0 2 0 C4 3 4 3 4 6 C3.01 6 2.02 6 1 6 C0.67 4.02 0.34 2.04 0 0 Z " fill="#3E1970" transform="translate(284,499)"/>
<path d="M0 0 C0.99 0 1.98 0 3 0 C3 3.63 3 7.26 3 11 C2.67 11 2.34 11 2 11 C2 8.36 2 5.72 2 3 C1.34 3 0.68 3 0 3 C0 2.01 0 1.02 0 0 Z " fill="#684298" transform="translate(461,447)"/>
</svg>
