<svg version="1.1" id="Layer_1" xmlns="http://www.w3.org/2000/svg" xmlns:xlink="http://www.w3.org/1999/xlink" x="0px" y="0px"
	 width="100%" viewBox="0 0 420 400" enable-background="new 0 0 420 400" xml:space="preserve">
<path fill="#FFFFFF" opacity="1.000000" stroke="none" 
	d="
M1.000000,95.000000 
	C1.000000,63.689148 1.000000,32.378300 1.000000,1.033723 
	C140.877060,1.033723 280.754120,1.033723 421.000000,1.033723 
	C421.000000,32.686607 421.000000,64.374641 420.643066,96.491249 
	C419.473694,96.162735 418.455475,95.535767 417.881500,94.627899 
	C413.481934,87.668999 409.501617,80.420151 404.757385,73.709366 
	C395.693542,60.888268 384.942657,49.651329 371.239990,41.667671 
	C368.346588,39.981880 364.869659,39.297550 361.355011,38.039364 
	C353.407135,33.439663 345.765869,28.952379 337.816101,24.276649 
	C324.339386,19.688692 310.806885,18.287088 296.533386,19.097160 
	C277.378815,19.074160 258.688171,19.120089 239.533539,19.097454 
	C218.379150,19.074524 197.688736,19.120157 176.534164,19.097361 
	C155.379868,19.074409 134.689728,19.119888 113.540421,19.096249 
	C107.301117,19.504742 101.441711,19.536348 95.756287,20.546808 
	C80.975952,23.173695 68.385628,30.413303 56.648769,40.009575 
	C53.201481,41.181675 49.710369,41.760670 47.169231,43.630615 
	C30.025093,56.246494 15.948368,71.642250 5.695471,90.432961 
	C4.696312,92.264137 2.591558,93.492058 1.000000,95.000000 
z"/>
<path fill="#FDFDFE" opacity="1.000000" stroke="none" 
	d="
M361.661621,38.151779 
	C364.869659,39.297550 368.346588,39.981880 371.239990,41.667671 
	C384.942657,49.651329 395.693542,60.888268 404.757385,73.709366 
	C409.501617,80.420151 413.481934,87.668999 417.881500,94.627899 
	C418.455475,95.535767 419.473694,96.162735 420.643066,96.959908 
	C421.000000,198.333344 421.000000,299.666687 421.000000,401.000000 
	C413.250214,401.000000 405.593811,401.000000 397.505463,400.639465 
	C401.057465,390.455383 406.703827,380.949463 408.654816,370.737549 
	C411.989532,353.283142 414.396423,335.412109 414.726868,317.670135 
	C415.554291,273.244141 415.147919,228.791611 414.909271,184.351486 
	C414.838226,171.118652 413.912415,157.875305 412.972443,144.665649 
	C411.408569,122.687767 404.687286,102.143784 394.259308,82.867645 
	C391.694092,78.125916 387.502441,74.264069 383.837006,69.720032 
	C379.766907,62.915359 375.918274,56.388374 371.968292,49.540390 
	C368.465179,45.530186 365.063416,41.840981 361.661621,38.151779 
z"/>
<path fill="#FDFDFD" opacity="1.000000" stroke="none" 
	d="
M1.000000,95.468658 
	C2.591558,93.492058 4.696312,92.264137 5.695471,90.432961 
	C15.948368,71.642250 30.025093,56.246494 47.169231,43.630615 
	C49.710369,41.760670 53.201481,41.181675 56.505257,40.311920 
	C47.372341,49.471191 40.855843,60.236954 35.493954,72.043243 
	C34.014641,73.226524 32.626911,74.204323 31.767204,75.525673 
	C14.602633,101.907280 7.299453,131.538223 7.308832,162.323456 
	C7.327672,224.163971 4.520735,286.066071 9.189956,347.842438 
	C9.977793,358.265991 12.782527,368.631378 15.548664,378.780182 
	C17.622604,386.389343 21.130520,393.607666 23.999998,401.000000 
	C16.343538,401.000000 8.687077,401.000000 1.000000,401.000000 
	C1.000000,299.312439 1.000000,197.624878 1.000000,95.468658 
z"/>
<path fill="#FBFBFB" opacity="1.000000" stroke="none" 
	d="
M24.463181,401.000000 
	C21.130520,393.607666 17.622604,386.389343 15.548664,378.780182 
	C12.782527,368.631378 9.977793,358.265991 9.189956,347.842438 
	C4.520735,286.066071 7.327672,224.163971 7.308832,162.323456 
	C7.299453,131.538223 14.602633,101.907280 31.767204,75.525673 
	C32.626911,74.204323 34.014641,73.226524 35.532696,72.433517 
	C34.572292,78.518326 33.235703,84.258377 31.554771,90.042320 
	C25.452169,95.526154 23.118448,102.680008 20.957224,110.012062 
	C15.809833,127.474831 16.568296,145.561951 16.274405,163.324936 
	C15.475310,211.622528 15.874607,259.942596 16.091213,308.252472 
	C16.143122,319.829498 16.873165,331.451050 18.116207,342.963074 
	C19.646925,357.139313 22.247520,371.175049 28.578793,384.184845 
	C31.321701,389.821136 34.189133,395.396790 37.000000,401.000000 
	C32.975456,401.000000 28.950911,401.000000 24.463181,401.000000 
z"/>
<path fill="#F9F9F9" opacity="1.000000" stroke="none" 
	d="
M37.460636,401.000000 
	C34.189133,395.396790 31.321701,389.821136 28.578793,384.184845 
	C22.247520,371.175049 19.646925,357.139313 18.116207,342.963074 
	C16.873165,331.451050 16.143122,319.829498 16.091213,308.252472 
	C15.874607,259.942596 15.475310,211.622528 16.274405,163.324936 
	C16.568296,145.561951 15.809833,127.474831 20.957224,110.012062 
	C23.118448,102.680008 25.452169,95.526154 31.608465,90.507370 
	C32.058968,96.285141 32.111435,101.641777 32.094452,107.431595 
	C31.960941,109.908722 31.896879,111.952652 31.480328,114.049789 
	C30.069475,115.851440 28.285368,117.514923 28.069166,119.361946 
	C26.533020,132.485291 24.479422,145.626968 24.177259,158.799194 
	C23.577620,184.939377 23.658499,211.108521 24.082592,237.255569 
	C24.670225,273.485413 22.011511,309.768707 25.962439,345.948334 
	C27.761240,362.420410 32.493904,377.694702 42.546631,391.107269 
	C44.902916,394.251068 46.859516,397.694458 49.000000,401.000000 
	C45.307091,401.000000 41.614182,401.000000 37.460636,401.000000 
z"/>
<path fill="#FCFCFC" opacity="1.000000" stroke="none" 
	d="
M384.058472,69.997726 
	C387.502441,74.264069 391.694092,78.125916 394.259308,82.867645 
	C404.687286,102.143784 411.408569,122.687767 412.972443,144.665649 
	C413.912415,157.875305 414.838226,171.118652 414.909271,184.351486 
	C415.147919,228.791611 415.554291,273.244141 414.726868,317.670135 
	C414.396423,335.412109 411.989532,353.283142 408.654816,370.737549 
	C406.703827,380.949463 401.057465,390.455383 397.036774,400.639465 
	C393.969391,401.000000 390.938812,401.000000 387.489502,400.643677 
	C388.657196,397.577820 390.366119,394.931824 391.810455,392.148560 
	C403.087067,370.418243 406.635437,346.652130 406.707581,322.850891 
	C406.905670,257.514923 408.989868,192.123764 404.738159,126.853760 
	C403.864166,113.436844 400.455078,99.950188 392.019897,88.634018 
	C391.150177,87.467239 389.526123,86.862770 388.138062,85.609543 
	C386.702179,80.147049 385.380310,75.072388 384.058472,69.997726 
z"/>
<path fill="#F6F6F6" opacity="1.000000" stroke="none" 
	d="
M49.463184,401.000000 
	C46.859516,397.694458 44.902916,394.251068 42.546631,391.107269 
	C32.493904,377.694702 27.761240,362.420410 25.962439,345.948334 
	C22.011511,309.768707 24.670225,273.485413 24.082592,237.255569 
	C23.658499,211.108521 23.577620,184.939377 24.177259,158.799194 
	C24.479422,145.626968 26.533020,132.485291 28.069166,119.361946 
	C28.285368,117.514923 30.069475,115.851440 31.550926,114.514046 
	C32.036987,131.616150 32.099968,148.307220 32.092789,165.462326 
	C32.069180,186.950027 32.115726,207.973663 32.092499,229.461639 
	C32.069061,246.283356 32.115387,262.640747 32.092659,279.462341 
	C31.960445,290.282440 31.897289,300.638306 31.474312,311.080841 
	C30.409929,313.447021 29.025618,315.757843 29.129009,318.000092 
	C29.432051,324.572174 30.199797,331.132874 31.014921,337.669403 
	C33.182472,355.051086 39.166817,370.981720 49.634026,385.102997 
	C53.630711,390.494873 57.870827,395.706329 62.000000,401.000000 
	C57.975456,401.000000 53.950912,401.000000 49.463184,401.000000 
z"/>
<path fill="#E4E4E4" opacity="1.000000" stroke="none" 
	d="
M313.000000,401.000000 
	C244.979111,401.000000 176.958206,401.000000 108.404633,400.638031 
	C106.782829,399.634521 105.763237,398.630188 104.594101,398.406128 
	C88.247467,395.273132 75.566643,386.126404 64.702629,374.082001 
	C63.413498,372.652802 62.992386,370.440674 62.490952,368.732483 
	C71.605202,373.391113 80.397408,377.908691 89.163666,382.819275 
	C91.687981,384.833252 94.068581,386.861908 96.817383,388.005768 
	C109.820816,393.416992 123.831161,393.693665 137.428726,393.755890 
	C191.875000,394.005188 246.330887,393.640198 300.769257,392.696594 
	C310.091492,392.535034 319.375763,388.554291 328.596954,386.041992 
	C329.895874,385.688141 330.733032,383.639343 332.093597,382.222778 
	C341.554443,377.260437 350.705658,372.450378 359.874451,368.011047 
	C350.157013,383.858307 336.022797,393.176697 318.637085,398.053223 
	C316.639709,398.613495 314.873413,399.997772 313.000000,401.000000 
z"/>
<path fill="#F8F8F8" opacity="1.000000" stroke="none" 
	d="
M377.000000,401.000000 
	C374.957672,401.000000 372.915375,401.000000 370.471893,400.650635 
	C371.241333,398.508606 372.445038,396.736572 373.576599,394.919556 
	C377.681030,388.328949 382.776459,382.133545 385.643646,375.039581 
	C392.019470,359.264618 394.904175,342.372864 394.789978,325.521942 
	C394.347229,260.186890 397.186707,194.812958 392.861755,129.526047 
	C392.646851,126.282333 390.444275,123.170288 389.100586,119.546997 
	C388.967773,116.064529 388.901581,113.031990 388.903107,109.565857 
	C389.036499,107.087547 389.102173,105.042839 389.515503,103.049217 
	C390.935913,104.671211 392.418610,106.100471 393.018005,107.834969 
	C398.899353,124.853668 401.834381,142.461578 401.924164,160.404770 
	C402.152313,206.004303 402.071320,251.605927 401.954132,297.206299 
	C401.921326,309.978424 401.746674,322.776825 400.892822,335.513306 
	C399.878052,350.650879 396.246704,365.245605 389.083405,378.772461 
	C385.136993,386.224731 381.032959,393.593567 377.000000,401.000000 
z"/>
<path fill="#FAFAFA" opacity="1.000000" stroke="none" 
	d="
M377.454102,401.000000 
	C381.032959,393.593567 385.136993,386.224731 389.083405,378.772461 
	C396.246704,365.245605 399.878052,350.650879 400.892822,335.513306 
	C401.746674,322.776825 401.921326,309.978424 401.954132,297.206299 
	C402.071320,251.605927 402.152313,206.004303 401.924164,160.404770 
	C401.834381,142.461578 398.899353,124.853668 393.018005,107.834969 
	C392.418610,106.100471 390.935913,104.671211 389.447784,102.587860 
	C388.772339,96.716072 388.512207,91.356720 388.252075,85.997375 
	C389.526123,86.862770 391.150177,87.467239 392.019897,88.634018 
	C400.455078,99.950188 403.864166,113.436844 404.738159,126.853760 
	C408.989868,192.123764 406.905670,257.514923 406.707581,322.850891 
	C406.635437,346.652130 403.087067,370.418243 391.810455,392.148560 
	C390.366119,394.931824 388.657196,397.577820 387.035400,400.643677 
	C383.969391,401.000000 380.938812,401.000000 377.454102,401.000000 
z"/>
<path fill="#F5F5F5" opacity="1.000000" stroke="none" 
	d="
M389.167206,119.996933 
	C390.444275,123.170288 392.646851,126.282333 392.861755,129.526047 
	C397.186707,194.812958 394.347229,260.186890 394.789978,325.521942 
	C394.904175,342.372864 392.019470,359.264618 385.643646,375.039581 
	C382.776459,382.133545 377.681030,388.328949 373.576599,394.919556 
	C372.445038,396.736572 371.241333,398.508606 370.035370,400.650635 
	C367.958344,401.000000 365.916656,401.000000 363.441528,400.633942 
	C363.454987,399.234650 363.676331,398.004395 364.381653,397.196899 
	C383.373993,375.454376 391.842926,349.817474 391.948730,321.313354 
	C392.132996,271.668152 392.035706,222.021713 391.955353,172.375961 
	C391.945190,166.087692 391.391876,159.795441 390.915253,153.518341 
	C390.848480,152.638977 389.775116,151.836060 389.100769,150.533401 
	C389.078308,140.045013 389.122742,130.020981 389.167206,119.996933 
z"/>
<path fill="#F3F3F4" opacity="1.000000" stroke="none" 
	d="
M389.167664,150.997757 
	C389.775116,151.836060 390.848480,152.638977 390.915253,153.518341 
	C391.391876,159.795441 391.945190,166.087692 391.955353,172.375961 
	C392.035706,222.021713 392.132996,271.668152 391.948730,321.313354 
	C391.842926,349.817474 383.373993,375.454376 364.381653,397.196899 
	C363.676331,398.004395 363.454987,399.234650 363.004028,400.633942 
	C359.638702,401.000000 356.277435,401.000000 352.493164,400.653198 
	C352.611816,399.494141 352.993286,398.483398 353.718323,397.898529 
	C373.811523,381.689148 383.755890,360.120697 386.865387,334.996155 
	C387.019348,333.752197 385.777832,332.335510 385.201935,330.602722 
	C386.423126,320.804718 387.628510,311.403198 388.902344,301.537292 
	C388.924469,290.048706 388.878113,279.024567 388.900360,267.536285 
	C388.923737,257.714844 388.878510,248.357513 388.901489,238.536011 
	C388.924286,219.382126 388.878815,200.692444 388.901794,181.538422 
	C389.036041,171.048645 389.101868,161.023193 389.167664,150.997757 
z"/>
<path fill="#F1F0F2" opacity="1.000000" stroke="none" 
	d="
M62.466118,401.000000 
	C57.870827,395.706329 53.630711,390.494873 49.634026,385.102997 
	C39.166817,370.981720 33.182472,355.051086 31.014921,337.669403 
	C30.199797,331.132874 29.432051,324.572174 29.129009,318.000092 
	C29.025618,315.757843 30.409929,313.447021 31.545559,311.501709 
	C33.359142,318.222900 34.741653,324.609894 36.126820,331.362427 
	C38.786003,337.412842 41.442535,343.097717 44.068790,349.221130 
	C44.059753,350.989960 43.755615,352.426758 44.151192,353.634430 
	C49.816944,370.931549 57.077007,387.145142 73.746399,396.983093 
	C75.136856,397.803711 75.929581,399.637115 77.000000,401.000000 
	C72.310745,401.000000 67.621490,401.000000 62.466118,401.000000 
z"/>
<path fill="#EBEAEC" opacity="1.000000" stroke="none" 
	d="
M77.468658,401.000000 
	C75.929581,399.637115 75.136856,397.803711 73.746399,396.983093 
	C57.077007,387.145142 49.816944,370.931549 44.151192,353.634430 
	C43.755615,352.426758 44.059753,350.989960 44.344482,349.421906 
	C50.101055,355.120422 55.551651,361.056702 61.102921,367.222870 
	C61.525368,367.832306 61.847141,368.211884 62.168907,368.591461 
	C62.992386,370.440674 63.413498,372.652802 64.702629,374.082001 
	C75.566643,386.126404 88.247467,395.273132 104.594101,398.406128 
	C105.763237,398.630188 106.782829,399.634521 107.935974,400.638031 
	C97.979103,401.000000 87.958214,401.000000 77.468658,401.000000 
z"/>
<path fill="#EBEAEC" opacity="1.000000" stroke="none" 
	d="
M313.468658,401.000000 
	C314.873413,399.997772 316.639709,398.613495 318.637085,398.053223 
	C336.022797,393.176697 350.157013,383.858307 360.049133,367.742920 
	C365.076996,361.946777 369.947876,356.789520 374.868713,352.077637 
	C374.842255,354.166412 375.141998,355.938416 374.630768,357.433075 
	C369.904449,371.250427 363.125580,383.704376 351.031769,392.634033 
	C347.535126,395.215851 344.335663,398.200165 341.000000,401.000000 
	C331.979095,401.000000 322.958221,401.000000 313.468658,401.000000 
z"/>
<path fill="#EFEEF0" opacity="1.000000" stroke="none" 
	d="
M341.458069,401.000000 
	C344.335663,398.200165 347.535126,395.215851 351.031769,392.634033 
	C363.125580,383.704376 369.904449,371.250427 374.630768,357.433075 
	C375.141998,355.938416 374.842255,354.166412 374.965668,351.758636 
	C378.403809,344.329224 381.794952,337.664246 385.186127,330.999268 
	C385.777832,332.335510 387.019348,333.752197 386.865387,334.996155 
	C383.755890,360.120697 373.811523,381.689148 353.718323,397.898529 
	C352.993286,398.483398 352.611816,399.494141 352.035095,400.653198 
	C348.638702,401.000000 345.277435,401.000000 341.458069,401.000000 
z"/>
<path fill="#6434F7" opacity="1.000000" stroke="none" 
	d="
M32.162270,228.997314 
	C32.115726,207.973663 32.069180,186.950027 32.462578,165.461685 
	C34.331726,164.085876 35.934082,163.361511 37.156837,162.227753 
	C40.489460,159.137680 43.706131,155.918076 46.884872,152.667786 
	C49.978096,149.504913 52.954060,146.227722 56.006542,143.024597 
	C58.485104,140.423721 60.993187,137.850830 63.501678,135.278687 
	C67.490761,131.188400 71.496132,127.113983 75.484268,123.022774 
	C77.189156,121.273834 78.812004,119.441368 80.569870,117.748329 
	C84.693314,113.776939 88.878883,109.870117 93.033081,105.930580 
	C95.620979,103.476410 98.250168,101.062691 100.766403,98.536766 
	C104.236641,95.053185 107.613251,91.476456 111.038582,87.947975 
	C113.541641,85.369553 116.060829,82.806793 118.568802,80.233131 
	C122.556053,76.141457 126.540466,72.047020 130.525024,67.952721 
	C132.228333,66.202507 133.872894,64.390671 135.642120,62.709957 
	C139.679016,58.875011 143.797226,55.125740 147.841858,51.298824 
	C150.546860,48.739437 153.182022,46.106232 155.848755,43.506409 
	C159.028641,40.406303 162.274139,37.370064 165.369781,34.188026 
	C168.209198,31.269356 171.025757,28.305628 173.581741,25.143021 
	C175.005737,23.381056 175.877625,21.172878 176.998322,19.165792 
	C197.688736,19.120157 218.379150,19.074524 239.534332,19.511999 
	C239.266052,22.586815 239.256104,25.783304 237.678940,27.669008 
	C229.379471,37.592072 220.853195,47.346741 209.643005,54.261147 
	C207.843857,55.370861 206.346375,57.061047 204.921402,58.670555 
	C198.013580,66.472923 191.118332,74.288071 184.335342,82.198761 
	C178.651871,88.827118 170.452271,92.295906 165.106033,99.846298 
	C157.399582,110.730034 148.019073,120.603951 136.169800,127.553253 
	C134.636505,128.452484 133.412003,129.962357 132.216049,131.338501 
	C126.269104,138.181442 120.379616,145.074310 114.263741,151.633408 
	C112.733788,148.833740 111.528885,146.275467 110.034309,143.899399 
	C109.323929,142.770020 108.087059,141.208237 107.044907,141.173965 
	C99.812881,140.936172 92.569351,141.048523 85.316658,141.048523 
	C84.819450,144.815002 84.347275,147.923859 84.007767,151.047150 
	C82.738892,162.720032 81.513474,174.397644 79.909866,186.076172 
	C78.699699,186.554703 77.757866,186.916656 77.018028,187.524475 
	C71.405472,192.135498 65.823692,196.784195 60.257446,201.451126 
	C59.503372,202.083374 58.869995,202.865417 58.212959,203.606674 
	C51.302872,211.402420 44.486748,219.285004 37.406258,226.922592 
	C36.253532,228.166016 33.939522,228.332870 32.162270,228.997314 
z"/>
<path fill="#6B32F8" opacity="1.000000" stroke="none" 
	d="
M114.469887,151.949585 
	C120.379616,145.074310 126.269104,138.181442 132.216049,131.338501 
	C133.412003,129.962357 134.636505,128.452484 136.169800,127.553253 
	C148.019073,120.603951 157.399582,110.730034 165.106033,99.846298 
	C170.452271,92.295906 178.651871,88.827118 184.335342,82.198761 
	C191.118332,74.288071 198.013580,66.472923 204.921402,58.670555 
	C206.346375,57.061047 207.843857,55.370861 209.643005,54.261147 
	C220.853195,47.346741 229.379471,37.592072 237.678940,27.669008 
	C239.256104,25.783304 239.266052,22.586815 239.998322,19.580563 
	C258.688171,19.120089 277.378815,19.074160 296.492126,19.438015 
	C291.699005,25.960890 286.580261,32.160583 281.230804,38.154388 
	C278.053467,41.714455 274.511383,44.948868 271.135773,48.332203 
	C268.584808,50.889019 266.040283,53.452324 263.488434,56.008251 
	C259.994598,59.507607 256.494843,63.001007 253.000854,66.500175 
	C250.212891,69.292290 247.430939,72.090393 244.644150,74.883667 
	C241.034637,78.501534 237.422119,82.116371 233.812576,85.734200 
	C231.495560,88.056564 229.209824,90.410934 226.861252,92.700890 
	C217.656097,101.676224 208.419724,110.619560 199.219666,119.600105 
	C195.235580,123.489143 191.182343,127.320076 187.402924,131.401855 
	C184.613022,134.414932 179.780746,136.057434 180.256775,141.703766 
	C179.898224,142.667664 179.489365,143.334946 178.709290,144.005096 
	C176.708282,145.022507 174.820511,145.776047 173.488998,147.092300 
	C161.425095,159.017853 149.511749,171.096085 137.405457,182.977936 
	C135.602051,184.747894 133.024918,185.729492 130.513336,186.874634 
	C124.970589,175.098831 119.720238,163.524216 114.469887,151.949585 
z"/>
<path fill="#752FF8" opacity="1.000000" stroke="none" 
	d="
M361.355011,38.039360 
	C365.063416,41.840981 368.465179,45.530186 371.820740,49.854294 
	C368.778229,54.488628 364.927521,56.919178 359.987152,58.191254 
	C358.047852,58.690590 355.576111,61.072697 355.191589,62.971046 
	C353.583282,70.911057 348.505371,75.051308 341.195770,76.672394 
	C338.159912,77.345673 337.122681,78.654770 336.652710,81.466759 
	C335.430267,88.780464 331.158478,93.426720 323.724518,94.530632 
	C320.339569,95.033287 319.177216,96.746185 318.455597,99.873962 
	C316.834595,106.899704 312.602539,111.371193 305.262726,113.187294 
	C303.158539,113.707939 300.726227,116.487518 300.095032,118.701859 
	C298.221924,125.273155 294.433777,129.803879 287.847595,131.029968 
	C282.368347,132.049973 281.294830,135.053574 281.534180,139.796616 
	C267.053131,139.770233 253.063644,139.970108 238.951263,143.250656 
	C238.951263,154.481628 238.951263,165.240799 238.607941,176.036652 
	C236.050415,177.771194 233.728546,179.347733 231.647232,181.195251 
	C228.512283,183.978073 225.404251,186.818069 222.541733,189.874405 
	C218.673004,194.005096 216.150650,199.798950 209.195587,199.552277 
	C208.010223,185.407730 206.925873,171.705170 206.197510,157.972748 
	C210.363998,154.630722 214.186066,151.331757 217.980530,148.001373 
	C220.176300,146.074173 222.709091,144.383789 224.435226,142.093262 
	C233.559311,129.985764 244.013428,119.278076 256.284332,110.327759 
	C258.350525,108.820717 259.939728,106.633255 261.654999,104.677467 
	C264.694000,101.212334 267.046875,96.621628 270.810699,94.446732 
	C275.669403,91.639160 278.809143,87.862190 282.096283,83.645935 
	C284.857788,80.103920 288.760864,77.450554 292.166351,74.412567 
	C294.005890,72.771568 296.048523,71.315392 297.676941,69.488319 
	C303.719391,62.708717 309.321869,55.507858 315.687866,49.055489 
	C320.386658,44.292976 326.427826,40.848488 331.084320,36.052963 
	C334.153687,32.891972 335.826477,28.374926 338.124603,24.465084 
	C345.765869,28.952379 353.407135,33.439663 361.355011,38.039360 
z"/>
<path fill="#5D37F7" opacity="1.000000" stroke="none" 
	d="
M176.534164,19.097363 
	C175.877625,21.172878 175.005737,23.381056 173.581741,25.143021 
	C171.025757,28.305628 168.209198,31.269356 165.369781,34.188026 
	C162.274139,37.370064 159.028641,40.406303 155.848755,43.506409 
	C153.182022,46.106232 150.546860,48.739437 147.841858,51.298824 
	C143.797226,55.125740 139.679016,58.875011 135.642120,62.709957 
	C133.872894,64.390671 132.228333,66.202507 130.525024,67.952721 
	C126.540466,72.047020 122.556053,76.141457 118.568802,80.233131 
	C116.060829,82.806793 113.541641,85.369553 111.038582,87.947975 
	C107.613251,91.476456 104.236641,95.053185 100.766403,98.536766 
	C98.250168,101.062691 95.620979,103.476410 93.033081,105.930580 
	C88.878883,109.870117 84.693314,113.776939 80.569870,117.748329 
	C78.812004,119.441368 77.189156,121.273834 75.484268,123.022774 
	C71.496132,127.113983 67.490761,131.188400 63.501678,135.278687 
	C60.993187,137.850830 58.485104,140.423721 56.006542,143.024597 
	C52.954060,146.227722 49.978096,149.504913 46.884872,152.667786 
	C43.706131,155.918076 40.489460,159.137680 37.156837,162.227753 
	C35.934082,163.361511 34.331726,164.085876 32.532738,164.997635 
	C32.099968,148.307220 32.036987,131.616150 31.903414,114.460838 
	C31.896879,111.952652 31.960941,109.908722 32.434433,107.387924 
	C35.404755,104.243141 37.928497,101.538231 40.537098,98.917809 
	C43.089977,96.353355 45.328442,93.043427 48.423523,91.551285 
	C53.216927,89.240356 56.269020,86.130844 58.583527,81.353500 
	C60.080093,78.264465 63.023399,75.271286 66.072205,73.673759 
	C71.328606,70.919502 75.388840,67.866951 77.380547,61.885818 
	C78.249947,59.275017 81.092979,56.296501 83.670959,55.481380 
	C90.113701,53.444286 93.244614,48.984676 95.952217,43.348431 
	C97.183739,40.784859 99.631050,38.102009 102.185036,37.003639 
	C111.313057,33.078041 113.993622,29.496864 113.999596,19.165367 
	C134.689728,19.119888 155.379868,19.074409 176.534164,19.097363 
z"/>
<path fill="#7030F8" opacity="1.000000" stroke="none" 
	d="
M337.816101,24.276642 
	C335.826477,28.374926 334.153687,32.891972 331.084320,36.052963 
	C326.427826,40.848488 320.386658,44.292976 315.687866,49.055489 
	C309.321869,55.507858 303.719391,62.708717 297.676941,69.488319 
	C296.048523,71.315392 294.005890,72.771568 292.166351,74.412567 
	C288.760864,77.450554 284.857788,80.103920 282.096283,83.645935 
	C278.809143,87.862190 275.669403,91.639160 270.810699,94.446732 
	C267.046875,96.621628 264.694000,101.212334 261.654999,104.677467 
	C259.939728,106.633255 258.350525,108.820717 256.284332,110.327759 
	C244.013428,119.278076 233.559311,129.985764 224.435226,142.093262 
	C222.709091,144.383789 220.176300,146.074173 217.980530,148.001373 
	C214.186066,151.331757 210.363998,154.630722 206.042419,157.594574 
	C204.800705,151.914017 204.070068,146.581772 203.361038,141.407135 
	C195.335693,141.407135 187.771103,141.407135 180.206497,141.407135 
	C179.780746,136.057434 184.613022,134.414932 187.402924,131.401855 
	C191.182343,127.320076 195.235580,123.489143 199.219666,119.600105 
	C208.419724,110.619560 217.656097,101.676224 226.861252,92.700890 
	C229.209824,90.410934 231.495560,88.056564 233.812576,85.734200 
	C237.422119,82.116371 241.034637,78.501534 244.644150,74.883667 
	C247.430939,72.090393 250.212891,69.292290 253.000854,66.500175 
	C256.494843,63.001007 259.994598,59.507607 263.488434,56.008251 
	C266.040283,53.452324 268.584808,50.889019 271.135773,48.332203 
	C274.511383,44.948868 278.053467,41.714455 281.230804,38.154388 
	C286.580261,32.160583 291.699005,25.960890 296.956055,19.506945 
	C310.806885,18.287088 324.339386,19.688692 337.816101,24.276642 
z"/>
<path fill="#5839F7" opacity="1.000000" stroke="none" 
	d="
M113.540421,19.096249 
	C113.993622,29.496864 111.313057,33.078041 102.185036,37.003639 
	C99.631050,38.102009 97.183739,40.784859 95.952217,43.348431 
	C93.244614,48.984676 90.113701,53.444286 83.670959,55.481380 
	C81.092979,56.296501 78.249947,59.275017 77.380547,61.885818 
	C75.388840,67.866951 71.328606,70.919502 66.072205,73.673759 
	C63.023399,75.271286 60.080093,78.264465 58.583527,81.353500 
	C56.269020,86.130844 53.216927,89.240356 48.423523,91.551285 
	C45.328442,93.043427 43.089977,96.353355 40.537098,98.917809 
	C37.928497,101.538231 35.404755,104.243141 32.503883,106.954735 
	C32.111435,101.641777 32.058968,96.285141 31.952808,90.463470 
	C33.235703,84.258377 34.572292,78.518326 35.870136,72.388000 
	C40.855843,60.236954 47.372341,49.471191 56.900940,40.316071 
	C68.385628,30.413303 80.975952,23.173695 95.756287,20.546808 
	C101.441711,19.536348 107.301117,19.504742 113.540421,19.096249 
z"/>
<path fill="#7B2CF9" opacity="1.000000" stroke="none" 
	d="
M281.999054,139.734741 
	C281.294830,135.053574 282.368347,132.049973 287.847595,131.029968 
	C294.433777,129.803879 298.221924,125.273155 300.095032,118.701859 
	C300.726227,116.487518 303.158539,113.707939 305.262726,113.187294 
	C312.602539,111.371193 316.834595,106.899704 318.455597,99.873962 
	C319.177216,96.746185 320.339569,95.033287 323.724518,94.530632 
	C331.158478,93.426720 335.430267,88.780464 336.652710,81.466759 
	C337.122681,78.654770 338.159912,77.345673 341.195770,76.672394 
	C348.505371,75.051308 353.583282,70.911057 355.191589,62.971046 
	C355.576111,61.072697 358.047852,58.690590 359.987152,58.191254 
	C364.927521,56.919178 368.778229,54.488628 371.922058,50.175297 
	C375.918274,56.388374 379.766907,62.915359 383.836975,69.720032 
	C385.380310,75.072388 386.702179,80.147049 388.138062,85.609543 
	C388.512207,91.356720 388.772339,96.716072 389.100159,102.536774 
	C389.102173,105.042839 389.036499,107.087547 388.517212,109.575241 
	C379.978119,111.034309 374.190460,114.478706 370.778168,122.634323 
	C369.292236,126.185844 364.582214,128.733932 360.849274,130.897049 
	C357.501312,132.837051 355.159515,134.938492 353.814789,138.671494 
	C352.913177,141.174423 351.236359,144.021835 349.070068,145.327194 
	C342.855438,149.071945 336.322845,152.224319 333.570923,159.648056 
	C333.487061,159.874374 333.006317,159.953568 332.423828,159.952484 
	C325.951599,153.009079 318.536346,147.753006 309.773682,145.311295 
	C300.701874,142.783463 291.272186,141.539978 281.999054,139.734741 
z"/>
<path fill="#7031F8" opacity="1.000000" stroke="none" 
	d="
M36.124161,330.996857 
	C34.741653,324.609894 33.359142,318.222900 31.905380,311.415039 
	C31.897289,300.638306 31.960445,290.282440 32.459541,279.412048 
	C41.593204,276.743713 48.907055,273.103180 52.338661,263.812958 
	C53.225040,261.413300 56.366035,259.359772 58.943810,258.176697 
	C63.755394,255.968445 66.764877,252.609039 69.246635,247.979736 
	C70.774467,245.129822 74.188843,243.291275 76.816711,241.425278 
	C76.279594,249.801254 75.681953,257.750580 75.056168,266.074219 
	C83.459602,266.074219 91.230858,266.074219 98.963898,266.414062 
	C96.462463,269.403992 94.007187,272.061493 91.534172,274.702362 
	C87.708656,278.787537 83.884430,282.874054 80.035744,286.937347 
	C71.919235,295.506439 63.787590,304.061157 55.657585,312.617432 
	C55.547241,312.733551 55.352154,312.768066 55.238438,312.882263 
	C50.743515,317.396881 46.302322,321.966522 41.737686,326.409363 
	C40.012516,328.088501 38.003681,329.476257 36.124161,330.996857 
z"/>
<path fill="#6B33F8" opacity="1.000000" stroke="none" 
	d="
M76.756180,240.998627 
	C74.188843,243.291275 70.774467,245.129822 69.246635,247.979736 
	C66.764877,252.609039 63.755394,255.968445 58.943810,258.176697 
	C56.366035,259.359772 53.225040,261.413300 52.338661,263.812958 
	C48.907055,273.103180 41.593204,276.743713 32.528595,278.947815 
	C32.115387,262.640747 32.069061,246.283356 32.092503,229.461639 
	C33.939522,228.332870 36.253532,228.166016 37.406258,226.922592 
	C44.486748,219.285004 51.302872,211.402420 58.212959,203.606674 
	C58.869995,202.865417 59.503372,202.083374 60.257446,201.451126 
	C65.823692,196.784195 71.405472,192.135498 77.018028,187.524475 
	C77.757866,186.916656 78.699699,186.554703 79.957565,186.534317 
	C79.163498,204.992722 77.959839,222.995667 76.756180,240.998627 
z"/>
<path fill="#7B2CF9" opacity="1.000000" stroke="none" 
	d="
M62.490955,368.732483 
	C61.847141,368.211884 61.525368,367.832306 61.136292,366.878693 
	C61.954399,365.128082 62.713028,363.824860 63.743534,362.793213 
	C103.424492,323.069153 143.119110,283.358643 182.882919,243.717590 
	C184.172531,242.431992 186.202377,241.888901 187.975006,241.451584 
	C188.467468,249.816589 188.872070,257.729675 189.276947,265.647858 
	C197.386765,265.647858 205.090836,265.647858 213.132248,265.647858 
	C212.475113,253.183563 211.837631,241.091949 211.530518,228.956635 
	C219.311935,221.703964 226.731125,214.461502 234.242950,207.316406 
	C235.618561,206.007965 237.371109,205.095825 239.033081,204.463104 
	C239.060333,222.616959 239.004135,240.308487 238.574554,258.005707 
	C232.834778,259.367493 228.910034,262.037750 226.058136,267.269073 
	C223.901627,271.224854 219.617950,274.015900 216.302155,277.346405 
	C213.579773,280.080841 210.904175,282.861847 208.179718,285.594177 
	C204.621964,289.162231 201.034256,292.700409 197.463715,296.255707 
	C194.729523,298.978241 192.006195,301.711700 189.270340,304.432556 
	C185.938034,307.746613 182.596893,311.051788 179.261002,314.362274 
	C176.646667,316.956696 174.018265,319.537170 171.425400,322.152893 
	C168.116714,325.490723 165.184830,329.332184 161.442841,332.071899 
	C158.051697,334.554718 155.224197,336.996094 152.886459,340.667358 
	C150.328064,344.685120 146.614517,348.389740 142.582642,350.922852 
	C138.876495,353.251312 136.519562,356.157318 134.029160,359.525177 
	C131.271240,363.254822 127.921410,367.065552 123.955383,369.265198 
	C117.512421,372.838531 115.061241,378.209137 113.563446,384.902740 
	C110.774529,385.035950 108.423103,385.101746 105.633209,385.100647 
	C99.859703,384.164551 94.524651,383.295410 89.189606,382.426270 
	C80.397408,377.908691 71.605202,373.391113 62.490955,368.732483 
z"/>
<path fill="#931AFA" opacity="1.000000" stroke="none" 
	d="
M385.201935,330.602722 
	C381.794952,337.664246 378.403809,344.329224 374.915710,351.313232 
	C369.947876,356.789520 365.076996,361.946777 360.031494,367.372192 
	C350.705658,372.450378 341.554443,377.260437 331.681519,382.298492 
	C325.616669,383.408600 320.273529,384.290710 314.489563,385.108826 
	C311.366180,384.975403 308.683685,384.905975 306.008026,384.465820 
	C307.490356,381.416290 308.451019,378.228149 310.520203,376.136749 
	C333.657684,352.750793 356.909698,329.476807 380.322296,306.366577 
	C382.486725,304.230072 385.965454,303.425018 388.833893,302.001709 
	C387.628510,311.403198 386.423126,320.804718 385.201935,330.602722 
z"/>
<path fill="#DFDFE0" opacity="1.000000" stroke="none" 
	d="
M314.930420,385.172791 
	C320.273529,384.290710 325.616669,383.408600 331.371857,382.450806 
	C330.733032,383.639343 329.895874,385.688141 328.596954,386.041992 
	C319.375763,388.554291 310.091492,392.535034 300.769257,392.696594 
	C246.330887,393.640198 191.875000,394.005188 137.428726,393.755890 
	C123.831161,393.693665 109.820816,393.416992 96.817383,388.005768 
	C94.068581,386.861908 91.687981,384.833252 89.163666,382.819275 
	C94.524651,383.295410 99.859703,384.164551 105.944214,385.364044 
	C107.677742,385.795380 108.661812,385.984497 109.645905,385.984711 
	C176.654037,385.998688 243.662186,386.002594 310.670288,385.963135 
	C312.090515,385.962311 313.510376,385.447693 314.930420,385.172791 
z"/>
<path fill="#8228F9" opacity="1.000000" stroke="none" 
	d="
M332.710632,160.101364 
	C333.006317,159.953568 333.487061,159.874374 333.570923,159.648056 
	C336.322845,152.224319 342.855438,149.071945 349.070068,145.327194 
	C351.236359,144.021835 352.913177,141.174423 353.814789,138.671494 
	C355.159515,134.938492 357.501312,132.837051 360.849274,130.897049 
	C364.582214,128.733932 369.292236,126.185844 370.778168,122.634323 
	C374.190460,114.478706 379.978119,111.034309 388.449524,110.008835 
	C388.901581,113.031990 388.967773,116.064529 389.100586,119.547005 
	C389.122742,130.020981 389.078308,140.045013 389.100769,150.533401 
	C389.101868,161.023193 389.036041,171.048645 388.525818,181.591858 
	C387.136200,182.395676 386.207977,182.773560 385.242920,182.953003 
	C378.666412,184.175842 373.342926,186.346985 370.783264,193.725510 
	C369.542114,197.303345 365.670044,201.281113 362.127380,202.437149 
	C356.945404,204.128082 354.555115,207.071487 352.910828,211.676544 
	C351.605835,215.331268 349.716156,218.636505 345.145294,218.582764 
	C347.854919,197.340836 346.549774,177.382370 332.710632,160.101364 
z"/>
<path fill="#8923F9" opacity="1.000000" stroke="none" 
	d="
M345.176941,219.001846 
	C349.716156,218.636505 351.605835,215.331268 352.910828,211.676544 
	C354.555115,207.071487 356.945404,204.128082 362.127380,202.437149 
	C365.670044,201.281113 369.542114,197.303345 370.783264,193.725510 
	C373.342926,186.346985 378.666412,184.175842 385.242920,182.953003 
	C386.207977,182.773560 387.136200,182.395676 388.457397,182.056183 
	C388.878815,200.692444 388.924286,219.382126 388.509583,238.535980 
	C386.016754,239.556519 383.453339,239.522263 382.052032,240.781342 
	C378.034729,244.391037 374.557281,248.593185 370.742401,252.438187 
	C362.941864,260.300262 355.059418,268.081024 347.210815,275.895386 
	C342.791504,280.295410 338.363983,284.687286 333.955261,289.097900 
	C326.364716,296.691772 318.810944,304.322632 311.192352,311.888184 
	C306.994110,316.057159 302.612610,320.043304 298.459564,324.255646 
	C290.573425,332.254395 282.858856,340.422852 274.940033,348.388580 
	C270.773407,352.579895 266.260071,356.424286 262.021637,360.546997 
	C256.695129,365.728088 251.272675,370.840271 246.336563,376.378693 
	C244.296555,378.667664 243.411652,381.986084 241.536926,384.904480 
	C222.715454,384.927002 204.358490,384.881348 186.001862,384.447327 
	C186.989090,380.921204 187.503220,377.511658 189.104218,374.727020 
	C190.524994,372.255798 192.795059,369.619720 195.319794,368.568634 
	C201.066696,366.176178 204.785797,362.554962 207.149399,356.741089 
	C208.239944,354.058624 210.989883,351.268768 213.662292,350.172119 
	C219.446960,347.798370 223.678085,344.368347 225.308594,338.309448 
	C226.294464,334.646088 228.528503,332.822662 232.035660,331.816650 
	C238.014420,330.101593 242.065079,326.119171 243.770065,320.148926 
	C244.838608,316.407288 246.862717,314.183350 250.657501,313.165405 
	C256.362122,311.635101 260.174866,307.803192 261.760681,302.165710 
	C262.933075,297.997711 265.822479,296.423431 269.378143,294.484833 
	C273.345490,292.321777 277.751007,289.018524 279.441071,285.117676 
	C281.524200,280.309631 284.068390,277.739929 288.821533,276.025604 
	C293.710968,274.262177 297.769043,271.053802 298.340210,264.872284 
	C323.391663,258.843903 339.856598,244.591690 345.176941,219.001846 
z"/>
<path fill="#8D1FFA" opacity="1.000000" stroke="none" 
	d="
M242.001404,384.836304 
	C243.411652,381.986084 244.296555,378.667664 246.336563,376.378693 
	C251.272675,370.840271 256.695129,365.728088 262.021637,360.546997 
	C266.260071,356.424286 270.773407,352.579895 274.940033,348.388580 
	C282.858856,340.422852 290.573425,332.254395 298.459564,324.255646 
	C302.612610,320.043304 306.994110,316.057159 311.192352,311.888184 
	C318.810944,304.322632 326.364716,296.691772 333.955261,289.097900 
	C338.363983,284.687286 342.791504,280.295410 347.210815,275.895386 
	C355.059418,268.081024 362.941864,260.300262 370.742401,252.438187 
	C374.557281,248.593185 378.034729,244.391037 382.052032,240.781342 
	C383.453339,239.522263 386.016754,239.556519 388.441345,239.000168 
	C388.878510,248.357513 388.923737,257.714844 388.529816,267.536682 
	C386.268890,268.959106 384.088806,269.551941 382.682129,270.932678 
	C371.523315,281.885681 360.372803,292.854706 349.519470,304.107849 
	C344.846191,308.953278 340.966614,314.555786 336.550995,319.662598 
	C334.955353,321.508026 332.910065,322.992218 330.955566,324.492218 
	C328.859955,326.100555 326.351807,327.253052 324.501678,329.086761 
	C307.724640,345.714905 291.013885,362.410797 274.421906,379.223206 
	C273.088654,380.574158 272.783875,382.940094 271.536774,384.903015 
	C261.382050,384.926514 251.691727,384.881409 242.001404,384.836304 
z"/>
<path fill="#8F1DFA" opacity="1.000000" stroke="none" 
	d="
M272.001160,384.834381 
	C272.783875,382.940094 273.088654,380.574158 274.421906,379.223206 
	C291.013885,362.410797 307.724640,345.714905 324.501678,329.086761 
	C326.351807,327.253052 328.859955,326.100555 330.955566,324.492218 
	C332.910065,322.992218 334.955353,321.508026 336.550995,319.662598 
	C340.966614,314.555786 344.846191,308.953278 349.519470,304.107849 
	C360.372803,292.854706 371.523315,281.885681 382.682129,270.932678 
	C384.088806,269.551941 386.268890,268.959106 388.461182,268.000793 
	C388.878113,279.024567 388.924469,290.048706 388.902344,301.537292 
	C385.965454,303.425018 382.486725,304.230072 380.322296,306.366577 
	C356.909698,329.476807 333.657684,352.750793 310.520203,376.136749 
	C308.451019,378.228149 307.490356,381.416290 305.543640,384.534241 
	C294.048615,384.927094 283.024902,384.880737 272.001160,384.834381 
z"/>
<path fill="#752FF8" opacity="1.000000" stroke="none" 
	d="
M187.887146,240.999664 
	C186.202377,241.888901 184.172531,242.431992 182.882919,243.717590 
	C143.119110,283.358643 103.424492,323.069153 63.743534,362.793213 
	C62.713028,363.824860 61.954399,365.128082 61.035622,366.648834 
	C55.551651,361.056702 50.101055,355.120422 44.374763,348.983337 
	C41.442535,343.097717 38.786003,337.412842 36.126816,331.362427 
	C38.003681,329.476257 40.012516,328.088501 41.737686,326.409363 
	C46.302322,321.966522 50.743515,317.396881 55.238438,312.882263 
	C55.352154,312.768066 55.547241,312.733551 55.657585,312.617432 
	C63.787590,304.061157 71.919235,295.506439 80.035744,286.937347 
	C83.884430,282.874054 87.708656,278.787537 91.534172,274.702362 
	C94.007187,272.061493 96.462463,269.403992 99.194077,266.142639 
	C99.644440,264.354248 99.826431,263.177124 100.358078,261.963989 
	C106.921417,257.975616 113.091568,254.283005 117.268059,247.609390 
	C120.079575,243.116867 123.668526,238.170670 130.441177,238.166626 
	C135.547760,249.747818 135.547760,249.747818 148.087601,249.716202 
	C148.253891,249.715790 148.424744,249.690918 148.585815,249.719894 
	C151.900742,250.316452 153.555389,248.874252 154.901016,245.761063 
	C163.791824,225.191513 172.903412,204.717377 181.963242,184.221039 
	C182.461456,183.093979 183.139923,182.046600 183.734482,180.962128 
	C184.196335,181.003769 184.658173,181.045410 185.120010,181.087067 
	C186.042389,201.057922 186.964767,221.028793 187.887146,240.999664 
z"/>
<path fill="#FDFDFF" opacity="1.000000" stroke="none" 
	d="
M187.975006,241.451584 
	C186.964767,221.028793 186.042389,201.057922 185.120010,181.087067 
	C184.658173,181.045410 184.196335,181.003769 183.734482,180.962128 
	C183.139923,182.046600 182.461456,183.093979 181.963242,184.221039 
	C172.903412,204.717377 163.791824,225.191513 154.901016,245.761063 
	C153.555389,248.874252 151.900742,250.316452 148.585815,249.719894 
	C148.424744,249.690918 148.253891,249.715790 148.087601,249.716202 
	C135.547760,249.747818 135.547760,249.747818 130.393097,237.797638 
	C121.706291,218.097580 113.324661,199.000687 104.943031,179.903793 
	C103.545616,187.127319 102.821022,194.156952 102.501442,201.204956 
	C101.582703,221.466003 100.827728,241.734451 100.008408,262.000000 
	C99.826431,263.177124 99.644440,264.354248 99.232285,265.802795 
	C91.230858,266.074219 83.459602,266.074219 75.056168,266.074219 
	C75.681953,257.750580 76.279594,249.801254 76.816711,241.425278 
	C77.959839,222.995667 79.163498,204.992722 80.319450,186.531616 
	C81.513474,174.397644 82.738892,162.720032 84.007767,151.047150 
	C84.347275,147.923859 84.819450,144.815002 85.316658,141.048523 
	C92.569351,141.048523 99.812881,140.936172 107.044907,141.173965 
	C108.087059,141.208237 109.323929,142.770020 110.034309,143.899399 
	C111.528885,146.275467 112.733788,148.833740 114.263733,151.633408 
	C119.720238,163.524216 124.970589,175.098831 130.605255,187.226929 
	C135.476532,197.893814 139.963501,208.007202 144.785172,218.875046 
	C145.638870,217.351517 146.157013,216.558517 146.549347,215.707489 
	C157.341934,192.297913 168.123886,168.883392 178.886505,145.460007 
	C179.082138,145.034241 179.021561,144.490768 179.080521,144.002213 
	C179.489365,143.334946 179.898224,142.667664 180.256775,141.703766 
	C187.771103,141.407135 195.335693,141.407135 203.361038,141.407135 
	C204.070068,146.581772 204.800705,151.914017 205.686432,157.624451 
	C206.925873,171.705170 208.010223,185.407730 209.136322,199.973145 
	C209.852097,210.224106 210.526123,219.612228 211.200150,229.000336 
	C211.837631,241.091949 212.475113,253.183563 213.132248,265.647858 
	C205.090836,265.647858 197.386765,265.647858 189.276947,265.647858 
	C188.872070,257.729675 188.467468,249.816589 187.975006,241.451584 
z"/>
<path fill="#7133F8" opacity="1.000000" stroke="none" 
	d="
M178.709290,144.005096 
	C179.021561,144.490768 179.082138,145.034241 178.886505,145.460007 
	C168.123886,168.883392 157.341934,192.297913 146.549347,215.707489 
	C146.157013,216.558517 145.638870,217.351517 144.785172,218.875046 
	C139.963501,208.007202 135.476532,197.893814 130.897644,187.428116 
	C133.024918,185.729492 135.602051,184.747894 137.405457,182.977936 
	C149.511749,171.096085 161.425095,159.017853 173.488998,147.092300 
	C174.820511,145.776047 176.708282,145.022507 178.709290,144.005096 
z"/>
<path fill="#FEFDFF" opacity="1.000000" stroke="none" 
	d="
M345.145294,218.582764 
	C339.856598,244.591690 323.391663,258.843903 297.925323,264.842224 
	C280.362305,267.792969 263.498749,267.635071 246.592133,266.037964 
	C241.570343,265.563599 237.927658,264.077393 238.947937,258.000000 
	C239.004135,240.308487 239.060333,222.616959 239.117279,204.000702 
	C239.062454,194.050629 239.006851,185.025299 238.951263,175.999969 
	C238.951263,165.240799 238.951263,154.481628 238.951263,143.250656 
	C253.063644,139.970108 267.053131,139.770233 281.534180,139.796616 
	C291.272186,141.539978 300.701874,142.783463 309.773682,145.311295 
	C318.536346,147.753006 325.951599,153.009079 332.423828,159.952484 
	C346.549774,177.382370 347.854919,197.340836 345.145294,218.582764 
M263.996307,225.926178 
	C263.996307,232.513443 263.996307,239.100693 263.996307,246.008209 
	C282.443970,246.306259 301.102753,248.109436 312.915405,230.824051 
	C323.559082,215.249222 323.246307,198.120987 315.970551,180.284470 
	C311.469330,170.970047 303.986298,164.943359 294.027435,163.180130 
	C285.277069,161.630890 276.239594,161.694595 267.326782,161.077179 
	C264.773956,160.900330 263.911438,162.172501 263.927612,164.701355 
	C264.056091,184.800140 264.083313,204.899567 263.996307,225.926178 
z"/>
<path fill="#792EF8" opacity="1.000000" stroke="none" 
	d="
M238.607941,176.036652 
	C239.006851,185.025299 239.062454,194.050629 239.033844,203.538361 
	C237.371109,205.095825 235.618561,206.007965 234.242950,207.316406 
	C226.731125,214.461502 219.311935,221.703964 211.530518,228.956635 
	C210.526123,219.612228 209.852097,210.224106 209.237335,200.415146 
	C216.150650,199.798950 218.673004,194.005096 222.541733,189.874405 
	C225.404251,186.818069 228.512283,183.978073 231.647232,181.195251 
	C233.728546,179.347733 236.050415,177.771194 238.607941,176.036652 
z"/>
<path fill="#8227F9" opacity="1.000000" stroke="none" 
	d="
M238.574554,258.005707 
	C237.927658,264.077393 241.570343,265.563599 246.592133,266.037964 
	C263.498749,267.635071 280.362305,267.792969 297.585266,265.007812 
	C297.769043,271.053802 293.710968,274.262177 288.821533,276.025604 
	C284.068390,277.739929 281.524200,280.309631 279.441071,285.117676 
	C277.751007,289.018524 273.345490,292.321777 269.378143,294.484833 
	C265.822479,296.423431 262.933075,297.997711 261.760681,302.165710 
	C260.174866,307.803192 256.362122,311.635101 250.657501,313.165405 
	C246.862717,314.183350 244.838608,316.407288 243.770065,320.148926 
	C242.065079,326.119171 238.014420,330.101593 232.035660,331.816650 
	C228.528503,332.822662 226.294464,334.646088 225.308594,338.309448 
	C223.678085,344.368347 219.446960,347.798370 213.662292,350.172119 
	C210.989883,351.268768 208.239944,354.058624 207.149399,356.741089 
	C204.785797,362.554962 201.066696,366.176178 195.319794,368.568634 
	C192.795059,369.619720 190.524994,372.255798 189.104218,374.727020 
	C187.503220,377.511658 186.989090,380.921204 185.537384,384.515564 
	C161.382019,384.926575 137.691467,384.880951 114.000931,384.835327 
	C115.061241,378.209137 117.512421,372.838531 123.955383,369.265198 
	C127.921410,367.065552 131.271240,363.254822 134.029160,359.525177 
	C136.519562,356.157318 138.876495,353.251312 142.582642,350.922852 
	C146.614517,348.389740 150.328064,344.685120 152.886459,340.667358 
	C155.224197,336.996094 158.051697,334.554718 161.442841,332.071899 
	C165.184830,329.332184 168.116714,325.490723 171.425400,322.152893 
	C174.018265,319.537170 176.646667,316.956696 179.261002,314.362274 
	C182.596893,311.051788 185.938034,307.746613 189.270340,304.432556 
	C192.006195,301.711700 194.729523,298.978241 197.463715,296.255707 
	C201.034256,292.700409 204.621964,289.162231 208.179718,285.594177 
	C210.904175,282.861847 213.579773,280.080841 216.302155,277.346405 
	C219.617950,274.015900 223.901627,271.224854 226.058136,267.269073 
	C228.910034,262.037750 232.834778,259.367493 238.574554,258.005707 
z"/>
<path fill="#EFEEF0" opacity="1.000000" stroke="none" 
	d="
M113.563446,384.902771 
	C137.691467,384.880951 161.382019,384.926575 185.537033,384.903931 
	C204.358490,384.881348 222.715454,384.927002 241.536926,384.904480 
	C251.691727,384.881409 261.382050,384.926514 271.536774,384.903015 
	C283.024902,384.880737 294.048615,384.927094 305.536743,384.904968 
	C308.683685,384.905975 311.366180,384.975403 314.489563,385.108826 
	C313.510376,385.447693 312.090515,385.962311 310.670288,385.963135 
	C243.662186,386.002594 176.654037,385.998688 109.645905,385.984711 
	C108.661812,385.984497 107.677742,385.795380 106.382668,385.430969 
	C108.423103,385.101746 110.774529,385.035950 113.563446,384.902771 
z"/>
<path fill="#7133F8" opacity="1.000000" stroke="none" 
	d="
M100.358078,261.963989 
	C100.827728,241.734451 101.582703,221.466003 102.501442,201.204956 
	C102.821022,194.156952 103.545616,187.127319 104.943031,179.903793 
	C113.324661,199.000687 121.706291,218.097580 130.135986,237.563446 
	C123.668526,238.170670 120.079575,243.116867 117.268059,247.609390 
	C113.091568,254.283005 106.921417,257.975616 100.358078,261.963989 
z"/>
<path fill="#8129F9" opacity="1.000000" stroke="none" 
	d="
M316.047974,180.983185 
	C323.246307,198.120987 323.559082,215.249222 312.915405,230.824051 
	C301.102753,248.109436 282.443970,246.306259 263.996307,246.008209 
	C263.996307,239.100693 263.996307,232.513443 264.424683,225.417557 
	C271.150238,222.424927 277.900543,220.497162 280.431152,213.096039 
	C282.099487,208.216660 285.402069,205.142868 290.188995,203.365448 
	C295.365570,201.443329 298.397522,197.513916 300.101562,192.337402 
	C300.592255,190.846756 301.448944,189.063217 302.684509,188.305893 
	C307.010101,185.654648 311.574371,183.392883 316.047974,180.983185 
z"/>
<path fill="#7D2CF9" opacity="1.000000" stroke="none" 
	d="
M316.009277,180.633820 
	C311.574371,183.392883 307.010101,185.654648 302.684509,188.305893 
	C301.448944,189.063217 300.592255,190.846756 300.101562,192.337402 
	C298.397522,197.513916 295.365570,201.443329 290.188995,203.365448 
	C285.402069,205.142868 282.099487,208.216660 280.431152,213.096039 
	C277.900543,220.497162 271.150238,222.424927 264.497314,224.953857 
	C264.083313,204.899567 264.056091,184.800140 263.927612,164.701355 
	C263.911438,162.172501 264.773956,160.900330 267.326782,161.077179 
	C276.239594,161.694595 285.277069,161.630890 294.027435,163.180130 
	C303.986298,164.943359 311.469330,170.970047 316.009277,180.633820 
z"/>
</svg>